<svg width="768" height="1232" viewBox="0 0 768 1232" fill="none" xmlns="http://www.w3.org/2000/svg">
<rect width="768" height="1232" fill="url(#paint0_linear_0_1)"/>
<path opacity="0.25" d="M0 935.925C0 935.925 74.0635 1067.4 177.934 1067.4C254.734 1067.4 307.2 928.619 384 928.619C460.8 928.619 557.685 1055.27 634.485 1055.27C711.285 1055.27 768 991.824 768 991.824V1232C768 1232 652.8 1232 576 1232C499.2 1232 460.8 1232 384 1232C307.2 1232 268.8 1232 192 1232C115.2 1232 0 1232 0 1232V935.925Z" fill="white"/>
<path opacity="0.08" d="M0 863.062C0.163709 863.515 0.386644 864.128 0.667509 864.892C1.32964 866.692 2.31374 869.331 3.60281 872.689C6.18093 879.405 9.97907 888.997 14.8612 900.506C24.6251 923.522 38.7273 954.213 56.0799 984.906C90.7682 1046.26 138.521 1107.76 190.619 1107.76C229.103 1107.76 263.538 1080.37 297.884 1053.06L297.92 1053.03C332.303 1025.68 366.597 998.411 404.9 998.411C443.194 998.411 480.622 1030.76 518.156 1063.22L518.205 1063.27C555.682 1095.68 593.265 1128.18 631.755 1128.18C670.271 1128.18 704.414 1096.69 728.907 1065.24C741.158 1049.52 751.004 1033.8 757.788 1022C761.18 1016.1 763.807 1011.19 765.587 1007.75C766.477 1006.03 767.155 1004.67 767.611 1003.75C767.732 1003.5 767.837 1003.29 767.926 1003.11L768 1002.95L768 1001.85L768 1001.12C767.888 1001.12 767.776 1001.2 767.697 1001.37L768 1001.85C767.697 1001.37 767.697 1001.37 767.697 1001.37L767.695 1001.38L767.687 1001.39L767.655 1001.46C767.627 1001.52 767.584 1001.61 767.527 1001.73C767.456 1001.87 767.363 1002.06 767.249 1002.3C767.179 1002.44 767.102 1002.6 767.016 1002.77C766.564 1003.69 765.89 1005.03 765.005 1006.74C763.234 1010.17 760.617 1015.07 757.236 1020.94C750.474 1032.7 740.658 1048.38 728.447 1064.05C704.018 1095.41 670.038 1126.72 631.755 1126.72C593.461 1126.72 556.032 1094.36 518.499 1061.9L518.45 1061.86C480.972 1029.45 443.39 996.951 404.9 996.951C366.417 996.951 331.982 1024.34 297.636 1051.66L297.6 1051.69C263.217 1079.04 228.923 1106.3 190.619 1106.3C138.847 1106.3 91.2905 1045.15 56.6367 983.858C39.3183 953.225 25.2413 922.59 15.4938 899.612C10.6203 888.124 6.82972 878.551 4.25801 871.852C2.97217 868.502 1.99109 865.871 1.33177 864.078C1.00211 863.182 0.752889 862.495 0.58624 862.033C0.502916 861.801 0.440234 861.626 0.39846 861.509L0.351514 861.378L0.337005 861.337C0.336402 861.335 0.336129 861.334 4.80652e-05 861.73L0.336129 861.334C0.259684 861.118 0.131206 861 0 861L4.80652e-05 861.73L0 863.062Z" fill="#0053F1"/>
<defs>
<linearGradient id="paint0_linear_0_1" x1="384" y1="0" x2="384" y2="1232" gradientUnits="userSpaceOnUse">
<stop stop-color="#F4F6FD"/>
<stop offset="1" stop-color="#E9EDFD"/>
</linearGradient>
</defs>
</svg>
