<svg width="182" height="56" viewBox="0 0 182 56" fill="none" xmlns="http://www.w3.org/2000/svg">
<g clip-path="url(#clip0_2_2281)">
<path fill-rule="evenodd" clip-rule="evenodd" d="M50.4767 44.618C49.3091 44.8461 48.1219 44.959 46.9323 44.9552C44.8889 44.9728 42.8623 44.5846 40.9696 43.8132L40.9656 43.8116L40.9617 43.8099C39.13 43.0533 37.4818 41.912 36.1284 40.4631L36.123 40.4573L36.1176 40.4515C34.7353 38.9455 33.6714 37.1754 32.9897 35.2474L32.9887 35.2447L32.9878 35.242C32.2449 33.1195 31.8789 30.8834 31.9062 28.6347C31.8849 26.426 32.2519 24.2307 32.9903 22.1492L32.9913 22.1465L32.9922 22.1438C33.6846 20.2114 34.757 18.4376 36.1461 16.9274L36.1532 16.9198L36.1603 16.9122C37.549 15.4366 39.2353 14.2736 41.1073 13.5004L41.1129 13.4981L41.1185 13.4959C43.0874 12.698 45.1944 12.298 47.3183 12.3188C48.3311 12.3122 49.3429 12.3863 50.344 12.5403L50.3502 12.5412L50.3564 12.5422C51.2749 12.69 52.1757 12.9319 53.0448 13.2641L53.0477 13.2652L53.0506 13.2663C53.8913 13.591 54.6955 14.0036 55.4497 14.4973L55.4507 14.498C56.185 14.9793 56.8892 15.505 57.5595 16.0722L58.0918 16.5226L58.3784 18.6003L57.8755 19.3935L57.8234 19.4609C57.5845 19.7697 57.2792 20.0208 56.9302 20.1955C56.5812 20.3702 56.1973 20.4641 55.8072 20.4701L55.6947 20.4719L55.5829 20.4597C54.9101 20.3867 54.2804 20.0961 53.7885 19.6333C53.6648 19.5304 53.4745 19.3822 53.2258 19.192C53.0299 19.0421 52.7461 18.8518 52.3662 18.6175C52.013 18.4112 51.6411 18.2386 51.2555 18.102L51.251 18.1004L51.2465 18.0988C50.6988 17.9015 50.1355 17.7503 49.5627 17.6468C48.8283 17.5164 48.0834 17.4548 47.3376 17.4627L47.3187 17.4629L47.2998 17.4628C45.8793 17.4483 44.4697 17.7124 43.1506 18.2402C41.9797 18.721 40.9246 19.446 40.0553 20.3669C39.133 21.3639 38.4211 22.5372 37.9625 23.8163C37.4132 25.353 37.1413 26.9753 37.1597 28.6074L37.16 28.6312L37.1596 28.6549C37.1351 30.3065 37.4011 31.9495 37.9454 33.5088C38.3917 34.7807 39.0879 35.9502 39.9928 36.9485C40.8355 37.8524 41.8625 38.5644 43.0043 39.036C44.246 39.5393 45.5748 39.7925 46.9145 39.7809L46.9306 39.7808L46.9466 39.7809C47.7947 39.7886 48.6419 39.722 49.4783 39.5819C50.1231 39.4704 50.7541 39.2903 51.3606 39.0446C51.8995 38.8229 52.4121 38.5417 52.8887 38.2061C53.4356 37.8174 53.9576 37.3948 54.4517 36.9407C54.912 36.4808 55.5289 36.2097 56.1809 36.1831L56.2082 36.1819L56.2355 36.1817C56.5738 36.178 56.9094 36.2419 57.2227 36.3696C57.5118 36.4873 57.7766 36.6572 58.004 36.8706L58.744 37.5171L58.7971 39.9382L58.2336 40.4903C57.5713 41.1393 56.8569 41.7328 56.0976 42.2649L56.096 42.2661C55.2881 42.8309 54.4238 43.3102 53.5169 43.6962L53.5106 43.6989L53.5043 43.7015C52.5285 44.1082 51.5141 44.4153 50.4767 44.618Z" fill="#ADB7D9"/>
<path d="M92.4949 12.6223H90.527L88.8918 14.2506V25.8116H74.5408V14.2506L72.9056 12.6223H70.9377L69.3024 14.2506V42.9993L70.9348 44.6335H72.9085L74.5408 42.9993V31.0163H88.8918V42.9993L90.5241 44.6335H92.4978L94.1302 42.9993V14.2506L92.4949 12.6223Z" fill="#ADB7D9"/>
<path fill-rule="evenodd" clip-rule="evenodd" d="M118.3 13.6841L116.863 12.7225H116.18L116.104 12.5396L116.028 12.7225H115.368L113.932 13.6841L101.996 42.3266L103.595 44.7367H104.854C105.411 44.7463 105.957 44.5788 106.414 44.2579C106.856 43.9476 107.191 43.5097 107.376 43.0038L116.106 22.0098L124.841 42.9871C125.014 43.4804 125.332 43.9114 125.753 44.223C126.205 44.557 126.753 44.736 127.315 44.7336H128.631L130.237 42.3265L118.3 13.6841Z" fill="#ADB7D9"/>
<path d="M142.481 12.6223H140.513L138.878 14.2506V42.9993L140.51 44.6335H142.484L144.116 42.9993V14.2506L142.481 12.6223Z" fill="#ADB7D9"/>
<path d="M182.046 14.2563L180.422 12.6223H178.527L176.892 14.2506V34.1014L161.993 13.7942C161.748 13.4362 161.421 13.1423 161.038 12.9381C160.64 12.7263 160.197 12.6178 159.747 12.6223H159.233L158.74 11.9507V12.7352L157.218 14.2506V42.9993L158.85 44.6335H160.751L162.378 42.9965V23.0539L177.38 43.4862C177.612 43.8259 177.921 44.1065 178.281 44.3056C178.662 44.516 179.09 44.6286 179.525 44.6334L179.535 44.6335H180.106L180.53 45.2114V44.5167L182.046 42.9993V14.2563Z" fill="#ADB7D9"/>
<path fill-rule="evenodd" clip-rule="evenodd" d="M21.0279 16.665L21.0243 16.6601L21.0207 16.6551C19.9866 15.2576 18.6308 14.1307 17.0684 13.3702L17.0601 13.3661L17.0518 13.3622C15.5657 12.6573 13.9417 12.2916 12.2972 12.2916C10.6527 12.2916 9.02879 12.6573 7.54267 13.3622L7.53461 13.366L7.52658 13.3699C5.96345 14.1302 4.60666 15.2569 3.5714 16.6543L3.56714 16.66L3.56294 16.6658C2.43818 18.2092 1.60473 19.9454 1.10369 21.7889L1.10337 21.7901C0.498372 24.0221 0.210574 26.3282 0.248417 28.6405C0.211889 30.9465 0.499758 33.2465 1.1035 35.4723C1.60395 37.3166 2.43964 39.0527 3.5687 40.5937L3.57283 40.5994L3.577 40.605C4.614 41.9978 5.97256 43.1184 7.53648 43.871L7.54601 43.8756L7.55558 43.8801C9.04036 44.5735 10.6589 44.9328 12.2972 44.9328C13.9356 44.9328 15.5541 44.5735 17.0389 43.8801L17.0496 43.8751L17.0602 43.87C18.6214 43.1161 19.9783 41.9969 21.016 40.6069L21.0216 40.5995L21.0271 40.5919C22.1533 39.0509 22.9881 37.3165 23.4904 35.4744L23.4911 35.4718C24.0944 33.2461 24.3822 30.9465 24.346 28.6406C24.3839 26.3283 24.0961 24.0221 23.4911 21.7901L23.4905 21.7879C22.9884 19.9443 22.1538 18.2081 21.0279 16.665ZM6.2096 23.2117C6.52953 21.9911 7.06921 20.8393 7.80212 19.8128C8.57719 18.7597 9.69582 18.0111 10.9643 17.6967C12.2331 17.3823 13.5716 17.5222 14.748 18.0919C15.0169 18.2269 15.2734 18.3838 15.5149 18.5608L6.04418 33.3568C5.69699 31.8157 5.5351 30.2377 5.56256 28.6565L5.56311 28.6249L5.56256 28.5933C5.53108 26.7784 5.74875 24.9677 6.20947 23.2122L6.2096 23.2117ZM8.84503 38.5123C9.14313 38.7469 9.46554 38.9508 9.80746 39.1202C10.5784 39.4884 11.4224 39.6779 12.2766 39.6746L12.2801 39.6746H12.2999L12.3042 39.6746C13.1527 39.6786 13.991 39.4896 14.7558 39.1221C15.5491 38.7271 16.2358 38.1469 16.758 37.4304C17.4851 36.4055 18.0196 35.2565 18.3352 34.0396L18.3358 34.0374L18.3363 34.0351C18.7962 32.2806 19.0129 30.4711 18.9804 28.6575L18.9798 28.625L18.9804 28.5925C19.0105 26.897 18.8234 25.2052 18.4238 23.5584L8.84503 38.5123Z" fill="#ADB7D9"/>
</g>
<defs>
<clipPath id="clip0_2_2281">
<rect width="182" height="56" fill="white"/>
</clipPath>
</defs>
</svg>
