<svg width="254" height="56" viewBox="0 0 254 56" fill="none" xmlns="http://www.w3.org/2000/svg">
<path d="M127.746 25.0433L135.151 14.0441H147.222L136.508 29.9348L147.559 46.5622H135.498L127.746 34.8441V46.5622H117.733V0H127.746V25.0433Z" fill="#6E7E9D"/>
<path d="M253.122 24.1555V46.5532H243.119V24.3952C243.119 22.1404 241.274 20.2938 239.022 20.2938C236.75 20.2938 234.915 22.1404 234.915 24.3952V46.5532H224.911V0H234.915V15.074C236.831 13.6446 239.199 12.7924 241.762 12.7924C248.041 12.7835 253.122 17.8704 253.122 24.1555Z" fill="#6E7E9D"/>
<path d="M102.143 14.0433V15.6501C99.4296 13.8923 96.1924 12.8625 92.7157 12.8625C83.1016 12.8625 75.3057 20.6658 75.3057 30.289C75.3057 39.9121 83.1016 47.7154 92.7245 47.7154C96.2012 47.7154 99.4296 46.6857 102.152 44.9278V46.6235H112.156V14.0433H102.143ZM94.1791 38.7759C89.2834 38.7759 85.31 34.7986 85.31 29.8984C85.31 24.998 89.2834 21.021 94.1791 21.021C99.0748 21.021 103.048 24.998 103.048 29.8984C103.048 34.7986 99.0837 38.7759 94.1791 38.7759Z" fill="#6E7E9D"/>
<path d="M174.39 14.0433V15.6501C171.676 13.8923 168.439 12.8625 164.963 12.8625C155.349 12.8625 147.552 20.6658 147.552 30.289C147.552 39.9121 155.349 47.7154 164.963 47.7154C168.439 47.7154 171.667 46.6857 174.39 44.9278V46.6235H184.394V14.0433H174.39ZM166.425 38.7759C161.531 38.7759 157.558 34.7986 157.558 29.8984C157.558 24.998 161.531 21.021 166.425 21.021C171.322 21.021 175.295 24.998 175.295 29.8984C175.295 34.7986 171.322 38.7759 166.425 38.7759Z" fill="#6E7E9D"/>
<path d="M198.996 36.036C199.04 36.7017 199.217 37.2699 199.518 37.7226C199.838 38.202 200.254 38.5927 200.751 38.8945C201.293 39.2141 201.922 39.4538 202.64 39.6047C203.394 39.7644 204.174 39.8443 204.982 39.8443C206.782 39.8443 208.14 39.5692 209.017 39.0364C209.753 38.5837 210.082 38.0954 210.082 37.4563C210.082 37.1634 210.021 36.9237 209.895 36.7195C209.824 36.604 209.629 36.3645 209.088 36.0626C208.583 35.7785 207.891 35.5121 207.022 35.2635C206.109 35.0061 204.919 34.7309 203.483 34.4646C201.586 34.0829 199.82 33.6035 198.232 33.0264C196.61 32.4405 195.2 31.7125 194.029 30.8692C192.822 29.9904 191.856 28.9606 191.173 27.8064C190.464 26.608 190.099 25.2231 190.099 23.6786C190.099 22.2049 190.454 20.7668 191.155 19.4263C191.856 18.0946 192.858 16.9228 194.144 15.9373C195.404 14.9697 196.956 14.1885 198.747 13.6292C200.521 13.0699 202.544 12.7859 204.751 12.7859C207.049 12.7859 209.15 13.0611 210.995 13.6026C212.867 14.153 214.481 14.9342 215.802 15.9108C217.15 16.9139 218.197 18.1301 218.915 19.515C219.634 20.9088 219.997 22.4445 219.997 24.0779H209.708C209.708 23.1636 209.354 22.4445 208.601 21.8055C207.803 21.1396 206.507 20.8111 204.742 20.8111C203.083 20.8111 201.851 21.0863 201.071 21.6367C200.388 22.116 200.078 22.6399 200.078 23.2791C200.078 23.5809 200.139 23.8561 200.263 24.1135C200.37 24.3354 200.591 24.5573 200.919 24.7704C201.327 25.0368 201.922 25.2942 202.685 25.525C203.491 25.7736 204.548 25.9955 205.807 26.1731C207.767 26.4927 209.612 26.9099 211.288 27.407C213.017 27.922 214.543 28.6055 215.811 29.4223C217.133 30.2833 218.188 31.3397 218.942 32.5737C219.713 33.8431 220.112 35.3613 220.112 37.0747C220.112 38.6636 219.723 40.1461 218.96 41.4867C218.206 42.8095 217.132 43.9546 215.766 44.9046C214.437 45.8277 212.813 46.5557 210.941 47.0618C209.097 47.5589 207.031 47.8163 204.777 47.8163C202.285 47.8163 200.051 47.479 198.117 46.822C196.184 46.1562 194.525 45.2774 193.204 44.1944C191.856 43.0934 190.827 41.824 190.126 40.4125C189.426 38.9921 189.062 37.5362 189.062 36.0803L198.996 36.036Z" fill="#6E7E9D"/>
<path d="M53.7983 55.9987L64.5476 37.3384L43.0313 0.00872803H21.5148L53.7983 55.9987Z" fill="#6E7E9D"/>
<path d="M43.0402 37.3384L53.7894 55.9988H32.2819L21.5148 37.3384H43.0402Z" fill="#6E7E9D"/>
<path d="M10.7581 18.6703H32.2746L10.7671 56L0 37.3397L10.7581 18.6703Z" fill="#6E7E9D"/>
</svg>
