<svg width="172" height="56" viewBox="0 0 172 56" fill="none" xmlns="http://www.w3.org/2000/svg">
<path d="M169.797 43.0555C169.939 43.0555 170.026 42.9429 170.026 42.8022V42.6052C170.026 42.4645 169.939 42.3801 169.797 42.3801H169.195V43.0555H169.797ZM169.195 43.365V44.1249H168.794V42.0424H169.767C170.197 42.0424 170.455 42.2957 170.455 42.7178C170.455 43.0836 170.254 43.2806 169.997 43.365L170.455 44.1529H169.997L169.567 43.3932C169.567 43.365 169.195 43.365 169.195 43.365ZM169.425 44.8566C170.426 44.941 171.285 44.2375 171.399 43.2525C171.399 43.1399 171.399 43.0273 171.399 42.9148C171.313 42.0706 170.626 41.3671 169.739 41.3108C168.738 41.2264 167.88 41.9299 167.765 42.9148C167.765 43.0273 167.765 43.1399 167.765 43.2525C167.85 44.0967 168.566 44.8003 169.425 44.8566ZM85.2274 32.0525L84.884 32.165C82.3368 32.9249 79.6181 32.8968 77.071 32.1369L76.7275 32.0243L80.677 19.3329C80.7628 19.0234 81.2208 19.0234 81.3067 19.3329L85.2274 32.0525ZM76.1839 13.7048L65.2227 45.2505H72.6064L75.0105 37.568L75.3539 37.6806C78.9884 38.7782 82.9952 38.7782 86.6012 37.7087L86.9445 37.5962L89.2914 45.2505H96.6751L85.7712 13.7048C85.0844 11.7068 83.1669 10.3842 81.0491 10.3842H80.9346C78.7595 10.3842 76.8707 11.735 76.1839 13.7048ZM152.167 19.1078H144.325L136.684 29.2103V10.3842H130.073V45.2787H136.684V32.7278L145.643 45.2787H153.026L143.237 31.7148C142.895 31.2364 142.923 30.5892 143.267 30.1389L152.167 19.1078ZM117.481 19.1078H106.863C103.601 19.1078 100.939 21.7249 100.939 24.9329V45.2787H107.55V26.4245C107.55 25.6083 108.237 24.9329 109.067 24.9329H115.964C116.794 24.9329 117.481 25.6083 117.481 26.4245V45.2787H124.092V24.9329C124.092 21.7249 121.43 19.1078 118.168 19.1078H117.481ZM171.799 19.1078H162.813C159.551 19.1078 156.89 21.7249 156.89 24.9329V45.2787H163.5V26.4245C163.5 25.6083 164.186 24.9329 165.017 24.9329H171.799V19.1078ZM30.4221 0.928926L48.9958 10.2998C51.686 11.6505 53.3746 14.3801 53.3746 17.3631V21.6405H46.5346V17.3631C46.5346 16.9129 46.277 16.4908 45.8763 16.2938L27.3026 6.9229C26.9591 6.75404 26.5298 6.75404 26.1864 6.9229L7.61272 16.2938C7.21206 16.4908 6.95449 16.9129 6.95449 17.3631V21.6405H0.0859375V17.3631C0.0859375 14.3801 1.77445 11.6505 4.46464 10.2998L23.0384 0.928926C25.3565 -0.224844 28.1038 -0.224844 30.4221 0.928926ZM32.5971 27.6626C32.5971 24.4827 29.9642 21.8938 26.7302 21.8938C23.4962 21.8938 20.8633 24.4827 20.8633 27.6626C20.8633 30.8424 23.4962 33.4315 26.7302 33.4315C29.9642 33.4033 32.5971 30.8424 32.5971 27.6626ZM45.8763 39.5943C46.277 39.3973 46.5346 38.9752 46.5346 38.5248V34.2475H53.3746V38.5531C53.3746 41.5359 51.686 44.2656 48.9958 45.5882L30.4221 54.959C29.2774 55.5219 28.018 55.8315 26.7302 55.8315C25.4423 55.8315 24.1831 55.5219 23.0384 54.959L4.46464 45.5882C1.77445 44.2375 0.0859375 41.5078 0.0859375 38.5531V34.2757H6.92587V38.5531C6.92587 39.0033 7.18343 39.4254 7.58411 39.6224L23.296 47.5299V39.6787C17.9728 38.2153 14.0233 33.3752 14.0233 27.6626C14.0233 20.7682 19.7185 15.1682 26.7302 15.1682C33.742 15.1682 39.4371 20.7682 39.4371 27.6626C39.4371 33.3752 35.4877 38.2153 30.136 39.6787V47.5299L45.8763 39.5943Z" fill="#6E7E9D"/>
</svg>
