<svg width="216" height="56" viewBox="0 0 216 56" fill="none" xmlns="http://www.w3.org/2000/svg">
<path d="M83.6413 36.0206C83.527 35.7922 83.4299 35.5294 83.35 35.2325C83.2699 34.9355 83.2015 34.6215 83.1444 34.2903C82.8817 34.5758 82.579 34.8443 82.2364 35.0955C81.8938 35.3468 81.5112 35.5694 81.0888 35.7635C80.6775 35.9464 80.2207 36.089 79.7182 36.1918C79.2157 36.3061 78.6731 36.3632 78.0907 36.3632C77.1428 36.3632 76.2691 36.226 75.4697 35.9521C74.6816 35.678 74.0021 35.2952 73.431 34.8042C72.8601 34.3131 72.4146 33.7308 72.0948 33.0568C71.7751 32.3716 71.6152 31.6293 71.6152 30.8298C71.6152 28.8769 72.3405 27.3695 73.7909 26.3072C75.2527 25.2337 77.4284 24.697 80.3178 24.697H82.973V23.6006C82.973 22.7097 82.6819 22.0074 82.0994 21.4935C81.5169 20.968 80.6775 20.7055 79.5811 20.7055C78.6104 20.7055 77.9024 20.9167 77.4569 21.3393C77.0115 21.7504 76.7888 22.3044 76.7888 23.001H72.0264C72.0264 22.2129 72.1977 21.4648 72.5403 20.7568C72.8943 20.0486 73.4025 19.4263 74.0648 18.8894C74.7388 18.3527 75.5553 17.9302 76.5147 17.6218C77.4854 17.302 78.5933 17.1421 79.8382 17.1421C80.9573 17.1421 81.9965 17.2792 82.9559 17.5532C83.9266 17.8274 84.7661 18.2327 85.4741 18.7695C86.1824 19.3064 86.7361 19.9859 87.136 20.8082C87.5356 21.619 87.7354 22.5612 87.7354 23.6348V31.5836C87.7354 32.5772 87.7984 33.3996 87.924 34.0506C88.0495 34.7015 88.2324 35.261 88.4722 35.7293V36.0206H83.6413ZM79.1014 32.68C79.5811 32.68 80.0265 32.6229 80.4376 32.5087C80.8488 32.3944 81.22 32.246 81.5513 32.0632C81.8824 31.8806 82.1679 31.675 82.4078 31.4465C82.6475 31.2068 82.8361 30.9669 82.973 30.7271V27.5407H80.5405C79.798 27.5407 79.1642 27.6149 78.6389 27.7634C78.1136 27.9004 77.6853 28.1003 77.3541 28.363C77.0229 28.6141 76.7773 28.9225 76.6174 29.2881C76.4575 29.6421 76.3777 30.0304 76.3777 30.4529C76.3777 31.0925 76.6002 31.6236 77.0457 32.0461C77.5025 32.4688 78.1877 32.68 79.1014 32.68Z" fill="#ADB7D9"/>
<path d="M106.443 17.1421C107.162 17.1421 107.825 17.1935 108.43 17.2963C109.047 17.3877 109.543 17.4905 109.92 17.6047L109.218 22.35C108.59 22.2015 107.944 22.093 107.282 22.0245C106.631 21.9445 106.009 21.9045 105.415 21.9045C104.078 21.9045 103.005 22.1616 102.194 22.6755C101.395 23.1893 100.795 23.9261 100.395 24.8854V36.0206H95.6328V17.4848H100.07L100.293 20.5169C101.046 19.4662 101.949 18.644 102.999 18.0501C104.05 17.4448 105.198 17.1421 106.443 17.1421Z" fill="#ADB7D9"/>
<path d="M126.058 30.2131L127.668 17.4849H132.036L128.713 36.0206H124.533L122.101 24.2344L119.753 36.0206H115.573L112.25 17.4849H116.601L118.212 30.2645L120.541 17.4849H123.728L126.058 30.2131Z" fill="#ADB7D9"/>
<path d="M144.268 36.3632C142.841 36.3632 141.544 36.1291 140.379 35.6609C139.214 35.1926 138.214 34.5587 137.381 33.7593C136.548 32.9484 135.903 32.0005 135.445 30.9156C135 29.8191 134.777 28.6486 134.777 27.4037V26.7183C134.777 25.3023 135 24.0117 135.445 22.8467C135.89 21.6705 136.513 20.6596 137.313 19.8146C138.112 18.9695 139.06 18.3128 140.156 17.8445C141.252 17.3763 142.446 17.1421 143.736 17.1421C145.073 17.1421 146.261 17.3648 147.3 17.8103C148.35 18.2441 149.236 18.861 149.955 19.6604C150.687 20.4599 151.24 21.4249 151.617 22.5555C151.994 23.6748 152.182 24.9139 152.182 26.273V28.2944H139.608C139.7 28.9225 139.882 29.4993 140.156 30.0247C140.441 30.5387 140.802 30.984 141.236 31.3609C141.67 31.7378 142.166 32.029 142.726 32.2346C143.286 32.4403 143.896 32.543 144.559 32.543C145.027 32.543 145.49 32.4973 145.947 32.4058C146.415 32.3146 146.86 32.1833 147.283 32.0119C147.705 31.8292 148.1 31.6064 148.465 31.3438C148.83 31.0811 149.15 30.7727 149.424 30.4187L151.805 32.9883C151.509 33.411 151.121 33.8278 150.641 34.2389C150.172 34.6386 149.613 34.9985 148.962 35.3183C148.322 35.6266 147.609 35.8777 146.82 36.0719C146.033 36.2662 145.182 36.3632 144.268 36.3632ZM143.703 20.9965C143.166 20.9965 142.675 21.0937 142.229 21.2878C141.784 21.4705 141.39 21.739 141.048 22.0929C140.715 22.4471 140.436 22.8696 140.208 23.3607C139.979 23.8517 139.808 24.4 139.694 25.0053H147.506V24.6284C147.482 24.1258 147.386 23.6519 147.214 23.2064C147.043 22.7612 146.798 22.3784 146.478 22.0587C146.158 21.7276 145.764 21.4705 145.296 21.2878C144.839 21.0937 144.308 20.9965 143.703 20.9965Z" fill="#ADB7D9"/>
<path d="M167.928 36.0206C167.814 35.7922 167.717 35.5294 167.636 35.2325C167.557 34.9355 167.489 34.6215 167.432 34.2903C167.168 34.5758 166.866 34.8443 166.524 35.0955C166.18 35.3468 165.798 35.5694 165.376 35.7635C164.963 35.9464 164.507 36.089 164.006 36.1918C163.502 36.3061 162.96 36.3632 162.378 36.3632C161.43 36.3632 160.556 36.226 159.756 35.9521C158.969 35.678 158.289 35.2952 157.718 34.8042C157.147 34.3131 156.701 33.7308 156.382 33.0568C156.062 32.3716 155.902 31.6293 155.902 30.8298C155.902 28.8769 156.627 27.3695 158.078 26.3072C159.54 25.2337 161.715 24.697 164.604 24.697H167.261V23.6006C167.261 22.7097 166.969 22.0074 166.386 21.4935C165.804 20.968 164.963 20.7055 163.868 20.7055C162.896 20.7055 162.188 20.9167 161.744 21.3393C161.298 21.7504 161.076 22.3044 161.076 23.001H156.313C156.313 22.2129 156.484 21.4648 156.827 20.7568C157.181 20.0486 157.69 19.4263 158.352 18.8894C159.026 18.3527 159.842 17.9302 160.801 17.6218C161.772 17.302 162.879 17.1421 164.124 17.1421C165.244 17.1421 166.284 17.2792 167.244 17.5532C168.214 17.8274 169.052 18.2327 169.76 18.7695C170.47 19.3064 171.023 19.9859 171.423 20.8082C171.822 21.619 172.022 22.5612 172.022 23.6348V31.5836C172.022 32.5772 172.086 33.3996 172.211 34.0506C172.337 34.7015 172.519 35.261 172.758 35.7293V36.0206H167.928ZM163.388 32.68C163.868 32.68 164.312 32.6229 164.725 32.5087C165.137 32.3944 165.507 32.246 165.838 32.0632C166.17 31.8806 166.455 31.675 166.695 31.4465C166.935 31.2068 167.123 30.9669 167.261 30.7271V27.5407H164.828C164.084 27.5407 163.452 27.6149 162.925 27.7634C162.4 27.9004 161.972 28.1003 161.641 28.363C161.309 28.6141 161.064 28.9225 160.905 29.2881C160.744 29.6421 160.665 30.0304 160.665 30.4529C160.665 31.0925 160.886 31.6236 161.333 32.0461C161.789 32.4688 162.476 32.68 163.388 32.68Z" fill="#ADB7D9"/>
<path d="M185.298 30.5215L185.537 31.8577L185.777 30.5729L189.854 17.4849H194.822L187.781 36.0206H183.309L176.234 17.4849H181.202L185.298 30.5215Z" fill="#ADB7D9"/>
<path d="M207.485 36.3632C206.057 36.3632 204.76 36.1291 203.596 35.6609C202.43 35.1926 201.431 34.5587 200.598 33.7593C199.764 32.9484 199.118 32.0005 198.662 30.9156C198.217 29.8191 197.994 28.6486 197.994 27.4037V26.7183C197.994 25.3023 198.217 24.0117 198.662 22.8467C199.108 21.6705 199.73 20.6596 200.529 19.8146C201.329 18.9695 202.277 18.3128 203.373 17.8445C204.47 17.3763 205.663 17.1421 206.953 17.1421C208.29 17.1421 209.477 17.3648 210.517 17.8103C211.567 18.2441 212.453 18.861 213.172 19.6604C213.902 20.4599 214.456 21.4249 214.833 22.5555C215.211 23.6748 215.399 24.9139 215.399 26.273V28.2944H202.824C202.917 28.9225 203.099 29.4993 203.373 30.0247C203.658 30.5387 204.018 30.984 204.451 31.3609C204.886 31.7378 205.383 32.029 205.943 32.2346C206.501 32.4403 207.112 32.543 207.775 32.543C208.243 32.543 208.706 32.4973 209.162 32.4058C209.631 32.3146 210.077 32.1833 210.5 32.0119C210.923 31.8292 211.315 31.6064 211.681 31.3438C212.047 31.0811 212.367 30.7727 212.641 30.4187L215.021 32.9883C214.725 33.411 214.336 33.8278 213.857 34.2389C213.389 34.6386 212.829 34.9985 212.178 35.3183C211.538 35.6266 210.825 35.8777 210.037 36.0719C209.248 36.2662 208.397 36.3632 207.485 36.3632ZM206.92 20.9965C206.383 20.9965 205.891 21.0937 205.447 21.2878C205 21.4705 204.606 21.739 204.263 22.0929C203.933 22.4471 203.653 22.8696 203.424 23.3607C203.196 23.8517 203.024 24.4 202.91 25.0053H210.721V24.6284C210.699 24.1258 210.602 23.6519 210.431 23.2064C210.26 22.7612 210.013 22.3784 209.695 22.0587C209.374 21.7276 208.98 21.4705 208.511 21.2878C208.055 21.0937 207.524 20.9965 206.92 20.9965Z" fill="#ADB7D9"/>
<path fill-rule="evenodd" clip-rule="evenodd" d="M2.86362 28C2.86362 15.1849 13.2523 4.79624 26.0674 4.79624C38.8824 4.79624 49.2711 15.1849 49.2711 28C49.2711 40.8151 38.8824 51.2038 26.0674 51.2038C13.2523 51.2038 2.86362 40.8151 2.86362 28ZM26.0674 2C11.708 2 0.0673828 13.6406 0.0673828 28C0.0673828 42.3594 11.708 54 26.0674 54C40.4267 54 52.0673 42.3594 52.0673 28C52.0673 13.6406 40.4267 2 26.0674 2ZM30.3557 36.066C30.4393 36.3766 30.5407 36.6514 30.6602 36.8903H35.7139V36.5856C35.4629 36.0958 35.2718 35.5105 35.1404 34.8295C35.0089 34.1485 34.9433 33.2883 34.9433 32.249V23.9338C34.9433 22.8108 34.7343 21.8252 34.316 20.9769C33.8979 20.1167 33.3184 19.4059 32.5777 18.8443C31.8369 18.2829 30.959 17.8588 29.9434 17.572C28.9398 17.2853 27.8526 17.142 26.6819 17.142C25.3796 17.142 24.2209 17.3093 23.2053 17.6437C22.2019 17.9664 21.3476 18.4083 20.6427 18.9698C19.9498 19.5314 19.4182 20.1825 19.0477 20.9232C18.6894 21.6639 18.5102 22.4464 18.5102 23.2707H23.4921C23.4921 22.542 23.7251 21.9625 24.191 21.5324C24.6569 21.0905 25.3977 20.8693 26.4131 20.8693C27.56 20.8693 28.4382 21.1441 29.0474 21.6938C29.6568 22.2313 29.9614 22.9661 29.9614 23.898V25.0449H27.1838C24.1612 25.0449 21.8853 25.6065 20.356 26.7293C18.8387 27.8406 18.0801 29.4174 18.0801 31.4605C18.0801 32.2968 18.2472 33.0732 18.5818 33.7902C18.9163 34.4949 19.3823 35.1043 19.9797 35.618C20.5769 36.1317 21.2879 36.5319 22.1123 36.8186C22.9485 37.1054 23.8625 37.2488 24.8541 37.2488C25.4634 37.2488 26.0308 37.1889 26.5564 37.0695C27.0821 36.9621 27.56 36.8126 27.9901 36.6215C28.4321 36.4185 28.8323 36.1854 29.1908 35.9226C29.5492 35.6598 29.8658 35.379 30.1406 35.0803C30.2004 35.4267 30.2719 35.7552 30.3557 36.066ZM27.309 33.2167C26.8791 33.3362 26.4131 33.3959 25.9114 33.3959C24.9555 33.3959 24.2388 33.1748 23.7609 32.7329C23.2949 32.2907 23.062 31.7353 23.062 31.0662C23.062 30.624 23.1456 30.2179 23.3129 29.8476C23.4801 29.4653 23.737 29.1426 24.0834 28.8799C24.4299 28.6051 24.8779 28.396 25.4275 28.2526C25.9771 28.0974 26.6402 28.0197 27.4166 28.0197H29.9614V31.3529C29.8179 31.6037 29.6209 31.8547 29.37 32.1055C29.119 32.3444 28.8204 32.5595 28.474 32.7506C28.1275 32.9419 27.7392 33.097 27.309 33.2167Z" fill="#ADB7D9"/>
</svg>
