<svg width="80" height="80" viewBox="0 0 80 80" fill="none" xmlns="http://www.w3.org/2000/svg">
<path d="M26.8753 66.2501H33.1753C35.5753 66.2501 37.1253 64.55 36.6753 62.475L35.6503 57.9502H24.4003L23.3753 62.475C22.9253 64.425 24.6253 66.2501 26.8753 66.2501Z" stroke="#0053F1" stroke-width="3" stroke-linecap="round" stroke-linejoin="round"/>
<path d="M35.6504 57.9255L39.9754 54.0754C42.4004 51.9254 42.5004 50.4252 40.5754 48.0002L32.9504 38.3254C31.3504 36.3004 28.7254 36.3004 27.1254 38.3254L19.5004 48.0002C17.5754 50.4252 17.5754 52.0004 20.1004 54.0754L24.4254 57.9255" stroke="#0053F1" stroke-width="3" stroke-linecap="round" stroke-linejoin="round"/>
<path d="M30.0254 37.8008V44.1259" stroke="#0053F1" stroke-width="3" stroke-linecap="round" stroke-linejoin="round"/>
<path d="M31.2998 22.5H28.7998C27.4248 22.5 26.2998 21.375 26.2998 20V17.5C26.2998 16.125 27.4248 15 28.7998 15H31.2998C32.6748 15 33.7998 16.125 33.7998 17.5V20C33.7998 21.375 32.6748 22.5 31.2998 22.5Z" stroke="#0053F1" stroke-width="3" stroke-linecap="round" stroke-linejoin="round"/>
<path d="M8.1748 45.425H10.6748C12.0498 45.425 13.1748 44.3 13.1748 42.925V40.425C13.1748 39.05 12.0498 37.9248 10.6748 37.9248H8.1748C6.7998 37.9248 5.6748 39.05 5.6748 40.425V42.925C5.6748 44.3 6.7998 45.425 8.1748 45.425Z" stroke="#0053F1" stroke-width="3" stroke-linecap="round" stroke-linejoin="round"/>
<path d="M51.8252 45.425H49.3252C47.9502 45.425 46.8252 44.3 46.8252 42.925V40.425C46.8252 39.05 47.9502 37.9248 49.3252 37.9248H51.8252C53.2002 37.9248 54.3252 39.05 54.3252 40.425V42.925C54.3252 44.3 53.2002 45.425 51.8252 45.425Z" stroke="#0053F1" stroke-width="3" stroke-linecap="round" stroke-linejoin="round"/>
<path d="M26.3 18.9004C16.775 20.0254 9.375 28.1004 9.375 37.9254" stroke="#0053F1" stroke-width="3" stroke-linecap="round" stroke-linejoin="round"/>
<path d="M50.6248 37.9254C50.6248 28.1254 43.2748 20.0754 33.7998 18.9004" stroke="#0053F1" stroke-width="3" stroke-linecap="round" stroke-linejoin="round"/>
</svg>
