<svg width="167" height="56" viewBox="0 0 167 56" fill="none" xmlns="http://www.w3.org/2000/svg">
<g clip-path="url(#clip0_2_207)">
<path fill-rule="evenodd" clip-rule="evenodd" d="M66.8007 7.46667H74.7211C76.4203 7.46667 77.682 7.88676 78.555 8.60849C79.4961 9.4 79.9783 10.4695 79.9783 11.7971C79.9783 13.4499 79.1278 14.4982 77.682 15.0567V15.1265C79.4723 15.6849 80.6212 17.2219 80.6212 19.2001C80.6212 20.8754 80.0225 22.0883 78.9445 22.926C77.9805 23.6938 76.6278 24.1139 74.9048 24.1139H66.8007V7.46667ZM74.1241 14.057C75.2956 14.057 76.0976 13.4749 76.0976 12.3817C76.0976 11.3334 75.3386 10.7275 74.1466 10.7275H70.8242V14.057H74.1241ZM74.4439 20.8094C75.7753 20.8094 76.6015 20.0403 76.6015 18.8548C76.6015 17.5273 75.6359 16.8517 74.3984 16.8517H70.8242V20.8094H74.4439ZM82.1622 7.47165H85.9034V10.5431H82.1572L82.1622 7.47165ZM82.1622 12.1972H85.9034V24.1188H82.1572L82.1622 12.1972ZM88.6819 20.9764V14.5681H87.1167V12.1922H88.6769V8.42398H92.3333V12.1922H94.4668V14.5681H92.3333V20.1549C92.3333 21.0861 92.8394 21.3192 93.6418 21.3192C93.8363 21.3192 94.2501 21.3105 94.5791 21.3042L95.0283 21.2955V24.0665C94.7056 24.16 93.4368 24.2522 92.4269 24.2522C90.2371 24.2547 88.6769 23.5317 88.6769 20.9714L88.6819 20.9764ZM98.013 10.9644H93.7921V7.47414H106.332V10.9644H102.076V24.1139H98.008L98.013 10.9644ZM103.825 18.1817C103.825 14.5967 106.356 11.8706 110.115 11.8706C113.911 11.8706 116.382 14.5942 116.382 18.1817C116.382 21.7692 113.901 24.4915 110.115 24.4915C106.346 24.4866 103.82 21.7617 103.82 18.1767L103.825 18.1817ZM112.594 18.1817C112.594 16.0165 111.72 14.5481 110.093 14.5481C108.465 14.5481 107.611 16.0165 107.611 18.1817C107.611 20.3469 108.461 21.7966 110.093 21.7966C111.723 21.7966 112.589 20.3431 112.589 18.1767L112.594 18.1817ZM117.703 12.1984H121.285V14.0545H121.353C122.178 12.6347 123.222 12.0464 124.286 12.0065C124.535 11.9831 124.786 12.015 125.021 12.0999V15.3596H124.929C122.945 15.0891 121.434 16.1736 121.434 18.7588V24.1188H117.698L117.703 12.1984ZM126.14 12.1984H129.721V14.0545H129.785C130.611 12.6347 131.653 12.0464 132.719 12.0065C132.967 11.9832 133.218 12.0151 133.452 12.0999V15.3596H133.36C131.381 15.0891 129.876 16.1736 129.876 18.7588V24.1188H126.135L126.14 12.1984ZM133.575 18.1368C133.575 14.5743 136.033 11.8506 139.613 11.8506C141.289 11.8506 142.621 12.4091 143.63 13.3465C145.03 14.6491 145.719 16.7233 145.697 19.1428H137.25C137.481 20.7495 138.352 21.7517 139.89 21.7517C140.876 21.7517 141.521 21.3105 141.841 20.5638H145.49C145.202 21.7077 144.5 22.7089 143.516 23.3797C142.531 24.079 141.335 24.4754 139.847 24.4754C135.957 24.4629 133.57 21.7392 133.57 18.1306L133.575 18.1368ZM141.907 16.8791C141.772 15.4593 140.895 14.5519 139.682 14.5519C138.258 14.5519 137.531 15.4593 137.278 16.8791H141.907ZM146.983 12.1984H150.588V13.8226H150.656C151.529 12.5412 152.654 11.8444 154.282 11.8444C156.855 11.8444 158.368 13.7055 158.368 16.363V24.1139H154.621V17.1334C154.621 15.8757 154.001 15.0143 152.786 15.0143C151.546 15.0143 150.719 16.0614 150.719 17.5298V24.1188H146.978L146.983 12.1984ZM160.657 20.9714V14.5681H159.097V12.1922H160.657V8.42398H164.306V12.1922H166.44V14.5681H164.306V20.1549C164.306 21.0861 164.812 21.3192 165.614 21.3192C165.809 21.3192 166.222 21.3105 166.551 21.3042L167.001 21.2955V24.0665C166.678 24.16 165.409 24.2522 164.401 24.2522C162.214 24.2547 160.657 23.5317 160.657 20.9714ZM112.861 41.4142C112.861 44.1703 110.561 45.7122 107.31 45.7122C103.068 45.7122 101.042 43.41 100.872 40.4482H102.73C102.983 42.9412 104.546 44.2325 107.395 44.2325C109.484 44.2325 110.983 43.3063 110.983 41.4766C110.983 39.4609 109.167 38.9835 106.466 38.4126C103.809 37.8367 101.532 37.0963 101.532 34.3191C101.532 31.8934 103.6 30.4324 106.661 30.4324C110.439 30.4324 112.001 32.3022 112.381 35.0184H110.579C110.305 32.9205 108.912 31.8722 106.695 31.8722C104.648 31.8722 103.298 32.7148 103.298 34.2405C103.298 35.9071 104.986 36.4008 107.244 36.832C110.174 37.4104 112.858 38.1097 112.858 41.4205L112.861 41.4142ZM66.8057 45.4243H68.7037V38.5011H75.6446V36.938H68.7012V32.3571H77.0378V30.7366H66.8007L66.8057 45.4243ZM78.7546 45.4243H80.4642V34.799H78.7496L78.7546 45.4243ZM78.7546 32.7771H80.4642V30.7204H78.7496L78.7546 32.7771ZM84.5674 45.4243H82.8528V30.7154H84.5624L84.5674 45.4243ZM91.6223 45.7122C94.0923 45.7122 95.7978 44.4171 96.3038 42.1348H94.6363C94.2555 43.5755 93.2013 44.3234 91.6173 44.3234C89.4221 44.3234 88.2201 42.6782 88.0936 40.518H96.5355C96.5355 37.0016 94.7841 34.5347 91.5121 34.5347C88.4097 34.5347 86.3414 37.044 86.3414 40.1291C86.3414 43.2142 88.2844 45.7184 91.6173 45.7184L91.6223 45.7122ZM91.5121 35.8473C93.4748 35.8473 94.5933 37.1437 94.6993 39.2615H88.1354C88.3884 37.3282 89.4852 35.8473 91.5121 35.8473ZM116.172 48.9482C117.501 48.9482 118.346 48.4956 119.232 46.2942L123.898 34.799H122.082L119.591 41.4205C119.253 42.3053 118.873 43.4983 118.873 43.4983H118.832C118.832 43.4983 118.43 42.3053 118.093 41.4205L115.518 34.799H113.66L117.924 45.1227L117.501 46.171C117.079 47.1993 116.595 47.4673 115.876 47.4673C115.307 47.4673 114.948 47.364 114.716 47.2404H114.631V48.7213C115.095 48.9071 115.518 48.9482 116.172 48.9482ZM133.445 42.5111C133.445 44.6503 131.651 45.7396 129.143 45.7396C126.146 45.7396 124.478 44.3624 124.31 41.9764H126.061C126.294 43.8277 127.56 44.345 129.185 44.345C130.979 44.345 131.716 43.5846 131.716 42.5998C131.716 41.4067 130.872 41.0976 128.866 40.6862C126.715 40.255 124.792 39.8224 124.792 37.4989C124.792 35.7301 126.184 34.5783 128.714 34.5783C131.416 34.5783 132.745 35.8336 133 37.9103H131.25C131.082 36.5117 130.3 35.8947 128.675 35.8947C127.112 35.8947 126.48 36.574 126.48 37.4166C126.48 38.5685 127.535 38.7878 129.414 39.1618C131.609 39.5868 133.445 40.063 133.445 42.5111ZM134.179 36.1539H135.762V43.4336C135.762 44.9294 136.774 45.4903 138.166 45.4903C138.627 45.4886 139.086 45.4401 139.537 45.3459V43.9098H139.474C139.18 43.999 138.875 44.0471 138.567 44.0529C137.87 44.0529 137.468 43.8036 137.468 43.0657V36.1564H139.579V34.799H137.471V31.4471H135.762V34.799H134.179V36.1539ZM150.594 42.1373C150.088 44.4196 148.379 45.7147 145.913 45.7147C142.578 45.7147 140.637 43.2067 140.637 40.1216C140.637 37.0365 142.704 34.5272 145.808 34.5272C149.079 34.5272 150.831 36.9953 150.831 40.5105H142.388C142.514 42.6708 143.718 44.3159 145.913 44.3159C147.496 44.3159 148.551 43.5759 148.93 42.1361L150.594 42.1373ZM148.99 39.2577C148.885 37.1387 147.766 35.8436 145.804 35.8436C143.78 35.8436 142.68 37.3244 142.426 39.2577H148.99ZM152.498 45.4268H154.204V38.809C154.204 37.1437 155.682 35.9508 157.012 35.9508C158.13 35.9508 158.889 36.7323 158.889 38.0486V45.4305H160.6V38.809C160.6 37.1437 161.865 35.9508 163.28 35.9508C164.378 35.9508 165.285 36.7323 165.285 38.0486V45.4305H166.994V37.9663C166.994 35.765 165.623 34.5522 163.681 34.5522C163.005 34.5491 162.34 34.7226 161.754 35.055C161.169 35.3874 160.683 35.8668 160.347 36.4444H160.304C159.839 35.2103 158.786 34.5522 157.455 34.5522C156.812 34.5586 156.182 34.7239 155.621 35.033C155.061 35.3421 154.588 35.785 154.247 36.321H154.204V34.799H152.495L152.498 45.4268Z" fill="#6E7E9D"/>
<path fill-rule="evenodd" clip-rule="evenodd" d="M27.4545 42.1792V29.3616L38.7772 22.9535L45.272 19.2738V27.5846C45.2716 27.6259 45.2829 27.6666 45.3042 27.7025C45.3255 27.7383 45.3559 27.768 45.3923 27.7887C45.429 27.8093 45.4708 27.8201 45.5129 27.8201C45.5555 27.8199 45.5968 27.8089 45.6336 27.7881L46.2001 27.4719L49.498 25.6054C49.6812 25.5015 49.8332 25.3522 49.9393 25.1725C50.0449 24.9928 50.1004 24.7891 50.1 24.5818V15.1811C50.0992 14.7667 49.9873 14.3597 49.7752 14.0009C49.5631 13.6421 49.2583 13.3442 48.8909 13.137L47.6852 12.4542L40.5913 8.43663C40.408 8.33309 40.2 8.27863 39.9883 8.27863C39.7766 8.27863 39.5687 8.33309 39.3854 8.43663L35.5343 10.6208C35.4976 10.6414 35.467 10.6711 35.4457 10.707C35.4244 10.7428 35.4132 10.7836 35.4132 10.8251C35.4132 10.8665 35.4244 10.9073 35.4457 10.9431C35.467 10.979 35.4976 11.0087 35.5343 11.0293L42.866 15.1811L36.3713 18.8594L25.0485 25.2632L13.7272 18.8594L7.46732 15.3139L7.23114 15.1811L14.573 11.0235C14.6098 11.003 14.6404 10.9732 14.6617 10.9373C14.683 10.9015 14.6942 10.8608 14.6942 10.8193C14.6942 10.7778 14.683 10.7371 14.6617 10.7012C14.6404 10.6653 14.6098 10.6356 14.573 10.615L10.722 8.42941C10.5388 8.32546 10.3308 8.2707 10.119 8.2707C9.90727 8.2707 9.69923 8.32546 9.51608 8.42941L2.41039 12.4513L1.20445 13.137C0.838286 13.3448 0.534312 13.6429 0.322941 14.0017C0.111571 14.3604 0.000210866 14.7671 6.34398e-07 15.1811V24.5718C-3.92135e-06 24.779 0.055616 24.9826 0.161299 25.1622C0.266983 25.3418 0.419028 25.4912 0.602227 25.5953L3.91743 27.4719L4.45915 27.778C4.49581 27.7989 4.53752 27.8099 4.57993 27.8099C4.62239 27.81 4.6641 27.799 4.70084 27.7782C4.73754 27.7574 4.76798 27.7275 4.78906 27.6914C4.81014 27.6554 4.82108 27.6145 4.82079 27.573V19.2723L5.05693 19.4065L11.3183 22.9535L22.6381 29.3616V49.5376L15.2963 45.3799C15.2596 45.3588 15.2179 45.348 15.1755 45.348C15.133 45.348 15.0913 45.3588 15.0546 45.3795C15.0178 45.4002 14.9874 45.4305 14.9664 45.4666C14.9453 45.5023 14.9344 45.5434 14.9346 45.5848V49.9487C14.9342 50.1561 14.9896 50.3598 15.0953 50.5398C15.2011 50.7194 15.3534 50.8687 15.5369 50.9724L22.6381 55.0015L23.8426 55.6843C24.209 55.8913 24.6247 56.0004 25.0478 56.0004C25.4709 56.0004 25.8866 55.8913 26.253 55.6843L27.4545 55.0015L34.5543 50.9812C34.738 50.8775 34.8904 50.7281 34.9964 50.5485C35.1024 50.3689 35.1581 50.1648 35.158 49.9574V45.5848C35.1578 45.5434 35.1466 45.5027 35.1254 45.467C35.1042 45.4314 35.0739 45.4015 35.0373 45.3807C35.0007 45.36 34.9592 45.3492 34.9169 45.3488C34.8747 45.3488 34.8331 45.3596 34.7963 45.3799L27.4545 49.5376V42.1792ZM40.581 42.1058C40.3973 42.2095 40.2448 42.3588 40.1388 42.5384C40.0328 42.718 39.9771 42.9217 39.9773 43.1291V47.4946C39.9772 47.5361 39.9884 47.5768 40.0095 47.6124C40.0307 47.6485 40.0612 47.678 40.0979 47.6987C40.1345 47.7195 40.1761 47.7303 40.2184 47.7303C40.2608 47.7303 40.3023 47.7191 40.3389 47.6983L48.8867 42.8595C49.2533 42.6513 49.5577 42.3526 49.7689 41.9934C49.9802 41.6341 50.0916 41.2268 50.0912 40.8123V31.1315C50.0912 31.0901 50.08 31.0494 50.0587 31.0136C50.0378 30.9778 50.0073 30.948 49.9706 30.9274C49.9338 30.9067 49.8921 30.8959 49.8499 30.896C49.8078 30.8961 49.766 30.9071 49.7297 30.9279L48.602 31.566L45.8741 33.1106C45.6904 33.2144 45.5384 33.3637 45.4324 33.5434C45.3267 33.7231 45.2712 33.9268 45.272 34.1342V39.4495L40.581 42.1058ZM10.1139 47.4946C10.1139 47.5361 10.1028 47.5768 10.0816 47.6124C10.0605 47.6485 10.03 47.678 9.99328 47.6987C9.95662 47.7195 9.915 47.7303 9.87271 47.7303C9.83037 47.7303 9.78883 47.7191 9.75226 47.6983L1.20445 42.8607C0.837851 42.6529 0.533603 42.3543 0.322204 41.995C0.110808 41.6354 -0.000306356 41.2282 6.34398e-07 40.8137V31.1214C-3.2534e-05 31.08 0.0110984 31.0393 0.0322702 31.0035C0.0534421 30.9676 0.0839054 30.9379 0.120586 30.9172C0.157267 30.8966 0.198867 30.8858 0.241189 30.8859C0.28351 30.886 0.325056 30.897 0.361632 30.9178L1.50705 31.566L4.21854 33.1006C4.40183 33.2046 4.55396 33.3539 4.65968 33.5335C4.76539 33.7132 4.82091 33.9168 4.82079 34.1241V39.4495L9.51165 42.1058C9.69493 42.2099 9.84707 42.3592 9.95278 42.5388C10.0585 42.7185 10.114 42.9221 10.1139 43.1291V47.4946ZM15.3007 5.15387C15.2639 5.17444 15.2333 5.20419 15.212 5.24007C15.1907 5.27595 15.1795 5.31668 15.1795 5.35812C15.1795 5.3996 15.1907 5.44034 15.212 5.47622C15.2333 5.5121 15.2639 5.5418 15.3007 5.56242L17.8424 7.00602L19.1576 7.7509C19.3407 7.85444 19.5484 7.90894 19.7599 7.90894C19.9713 7.90894 20.179 7.85444 20.3621 7.7509L25.0485 5.09322L29.7497 7.75525C29.9328 7.85875 30.1405 7.9133 30.352 7.9133C30.5634 7.9133 30.7711 7.85875 30.9542 7.75525L32.2826 7.00166L34.8096 5.57109C34.8464 5.55047 34.877 5.52073 34.8983 5.48489C34.9196 5.44901 34.9308 5.40827 34.9308 5.36679C34.9308 5.32531 34.9196 5.28458 34.8983 5.24874C34.877 5.21285 34.8464 5.18311 34.8096 5.16254L26.2486 0.316361C25.8822 0.109314 25.4665 0.000305176 25.0434 0.000305176C24.6202 0.000305176 24.2045 0.109314 23.8382 0.316361L15.3007 5.15387Z" fill="#6E7E9D"/>
</g>
<defs>
<clipPath id="clip0_2_207">
<rect width="167" height="56" fill="white"/>
</clipPath>
</defs>
</svg>
