<svg width="166" height="56" viewBox="0 0 166 56" fill="none" xmlns="http://www.w3.org/2000/svg">
<g clip-path="url(#clip0_2_2320)">
<path fill-rule="evenodd" clip-rule="evenodd" d="M66.3701 7.46655H74.2396C75.9279 7.46655 77.1814 7.88664 78.0488 8.60837C78.9838 9.39988 79.4629 10.4694 79.4629 11.7969C79.4629 13.4498 78.6179 14.4981 77.1814 15.0566V15.1264C78.9602 15.6848 80.1017 17.2218 80.1017 19.2C80.1017 20.8753 79.5069 22.0882 78.4358 22.9258C77.478 23.6937 76.134 24.1137 74.4221 24.1137H66.3701V7.46655ZM73.6464 14.0569C74.8104 14.0569 75.6072 13.4747 75.6072 12.3816C75.6072 11.3332 74.8531 10.7274 73.6688 10.7274H70.3677V14.0569H73.6464ZM73.9641 20.8092C75.287 20.8092 76.1079 20.0401 76.1079 18.8547C76.1079 17.5272 75.1484 16.8516 73.9189 16.8516H70.3677V20.8092H73.9641ZM81.6328 7.47153H85.35V10.5429H81.6278L81.6328 7.47153ZM81.6328 12.1971H85.35V24.1187H81.6278L81.6328 12.1971ZM88.1106 20.9763V14.5679H86.5554V12.1921H88.1056V8.42386H91.7385V12.1921H93.8582V14.5679H91.7385V20.1548C91.7385 21.086 92.2413 21.319 93.0386 21.319C93.2319 21.319 93.6429 21.3103 93.9698 21.3041L94.4162 21.2954V24.0664C94.0955 24.1599 92.8349 24.2521 91.8315 24.2521C89.6557 24.2546 88.1056 23.5316 88.1056 20.9713L88.1106 20.9763ZM97.3817 10.9643H93.1879V7.47402H105.647V10.9643H101.418V24.1137H97.3767L97.3817 10.9643ZM103.157 18.1816C103.157 14.5966 105.671 11.8705 109.406 11.8705C113.177 11.8705 115.632 14.5941 115.632 18.1816C115.632 21.769 113.167 24.4914 109.406 24.4914C105.661 24.4864 103.152 21.7616 103.152 18.1766L103.157 18.1816ZM111.869 18.1816C111.869 16.0164 111 14.548 109.384 14.548C107.767 14.548 106.918 16.0164 106.918 18.1816C106.918 20.3468 107.763 21.7965 109.384 21.7965C111.004 21.7965 111.864 20.343 111.864 18.1766L111.869 18.1816ZM116.945 12.1983H120.504V14.0544H120.571C121.391 12.6346 122.429 12.0462 123.486 12.0064C123.733 11.983 123.983 12.0149 124.216 12.0998V15.3595H124.124C122.153 15.089 120.652 16.1734 120.652 18.7587V24.1187H116.94L116.945 12.1983ZM125.327 12.1983H128.886V14.0544H128.949C129.77 12.6346 130.806 12.0462 131.864 12.0064C132.111 11.9831 132.361 12.015 132.593 12.0998V15.3595H132.502C130.535 15.089 129.04 16.1734 129.04 18.7587V24.1187H125.322L125.327 12.1983ZM132.715 18.1367C132.715 14.5742 135.157 11.8505 138.714 11.8505C140.379 11.8505 141.703 12.409 142.706 13.3463C144.096 14.6489 144.781 16.7231 144.758 19.1426H136.366C136.596 20.7494 137.461 21.7516 138.99 21.7516C139.969 21.7516 140.61 21.3103 140.928 20.5637H144.554C144.267 21.7076 143.57 22.7088 142.592 23.3796C141.613 24.0788 140.425 24.4752 138.947 24.4752C135.081 24.4628 132.71 21.7391 132.71 18.1305L132.715 18.1367ZM140.993 16.879C140.859 15.4592 139.988 14.5518 138.782 14.5518C137.368 14.5518 136.645 15.4592 136.394 16.879H140.993ZM146.037 12.1983H149.618V13.8225H149.686C150.554 12.5411 151.671 11.8443 153.289 11.8443C155.845 11.8443 157.349 13.7054 157.349 16.3629V24.1137H153.626V17.1333C153.626 15.8756 153.01 15.0142 151.802 15.0142C150.57 15.0142 149.749 16.0613 149.749 17.5297V24.1187H146.032L146.037 12.1983ZM159.623 20.9713V14.5679H158.072V12.1921H159.623V8.42386H163.248V12.1921H165.369V14.5679H163.248V20.1548C163.248 21.086 163.751 21.319 164.548 21.319C164.741 21.319 165.152 21.3103 165.479 21.3041L165.926 21.2954V24.0664C165.605 24.1599 164.344 24.2521 163.342 24.2521C161.17 24.2546 159.623 23.5316 159.623 20.9713ZM112.134 41.4141C112.134 44.1702 109.849 45.7121 106.619 45.7121C102.404 45.7121 100.391 43.4098 100.223 40.4481H102.068C102.32 42.9411 103.872 44.2324 106.703 44.2324C108.779 44.2324 110.268 43.3061 110.268 41.4764C110.268 39.4608 108.464 38.9834 105.78 38.4125C103.141 37.8366 100.878 37.0962 100.878 34.319C100.878 31.8933 102.933 30.4323 105.974 30.4323C109.728 30.4323 111.279 32.3021 111.658 35.0183H109.867C109.595 32.9204 108.21 31.8721 106.008 31.8721C103.974 31.8721 102.633 32.7147 102.633 34.2404C102.633 35.907 104.309 36.4006 106.554 36.8319C109.464 37.4103 112.131 38.1096 112.131 41.4203L112.134 41.4141ZM66.3751 45.4242H68.2608V38.501H75.1571V36.9379H68.2584V32.3569H76.5414V30.7365H66.3701L66.3751 45.4242ZM78.2471 45.4242H79.9458V34.7989H78.2421L78.2471 45.4242ZM78.2471 32.777H79.9458V30.7203H78.2421L78.2471 32.777ZM84.0226 45.4242H82.3189V30.7153H84.0176L84.0226 45.4242ZM91.0321 45.7121C93.4861 45.7121 95.1807 44.417 95.6834 42.1347H94.0266C93.6483 43.5754 92.6009 44.3233 91.0271 44.3233C88.846 44.3233 87.6518 42.6781 87.5261 40.5179H95.9136C95.9136 37.0015 94.1735 34.5346 90.9226 34.5346C87.8401 34.5346 85.7851 37.0438 85.7851 40.1289C85.7851 43.2141 87.7157 45.7183 91.0271 45.7183L91.0321 45.7121ZM90.9226 35.8472C92.8726 35.8472 93.9839 37.1436 94.0893 39.2614H87.5676C87.8189 37.328 88.9087 35.8472 90.9226 35.8472ZM115.424 48.948C116.745 48.948 117.584 48.4955 118.465 46.294L123.1 34.7989H121.296L118.821 41.4203C118.485 42.3052 118.108 43.4982 118.108 43.4982H118.066C118.066 43.4982 117.668 42.3052 117.332 41.4203L114.774 34.7989H112.929L117.165 45.1226L116.745 46.1709C116.325 47.1992 115.844 47.4671 115.13 47.4671C114.564 47.4671 114.208 47.3639 113.977 47.2402H113.893V48.7211C114.354 48.907 114.774 48.948 115.424 48.948ZM132.586 42.5109C132.586 44.6501 130.803 45.7394 128.312 45.7394C125.334 45.7394 123.677 44.3623 123.51 41.9762H125.249C125.481 43.8276 126.739 44.3448 128.353 44.3448C130.136 44.3448 130.868 43.5845 130.868 42.5997C130.868 41.4066 130.029 41.0975 128.036 40.6861C125.899 40.2548 123.988 39.8223 123.988 37.4988C123.988 35.73 125.371 34.5782 127.885 34.5782C130.569 34.5782 131.891 35.8335 132.143 37.9101H130.405C130.237 36.5116 129.461 35.8946 127.846 35.8946C126.294 35.8946 125.665 36.5739 125.665 37.4165C125.665 38.5683 126.714 38.7877 128.581 39.1616C130.762 39.5867 132.586 40.0629 132.586 42.5109ZM133.315 36.1538H134.888V43.4335C134.888 44.9293 135.893 45.4901 137.276 45.4901C137.734 45.4885 138.191 45.4399 138.639 45.3458V43.9097H138.576C138.284 43.9989 137.98 44.047 137.675 44.0528C136.982 44.0528 136.583 43.8035 136.583 43.0655V36.1563H138.68V34.7989H136.586V31.447H134.888V34.7989H133.315V36.1538ZM149.625 42.1372C149.122 44.4195 147.424 45.7146 144.973 45.7146C141.66 45.7146 139.731 43.2066 139.731 40.1215C139.731 37.0363 141.786 34.5271 144.869 34.5271C148.119 34.5271 149.86 36.9952 149.86 40.5104H141.471C141.597 42.6706 142.792 44.3158 144.973 44.3158C146.546 44.3158 147.595 43.5758 147.972 42.1359L149.625 42.1372ZM148.031 39.2576C147.926 37.1385 146.815 35.8435 144.865 35.8435C142.854 35.8435 141.761 37.3243 141.509 39.2576H148.031ZM151.517 45.4267H153.211V38.8089C153.211 37.1436 154.68 35.9506 156.001 35.9506C157.112 35.9506 157.866 36.7322 157.866 38.0485V45.4304H159.566V38.8089C159.566 37.1436 160.823 35.9506 162.228 35.9506C163.32 35.9506 164.221 36.7322 164.221 38.0485V45.4304H165.919V37.9662C165.919 35.7649 164.557 34.5521 162.627 34.5521C161.955 34.549 161.295 34.7225 160.713 35.0549C160.132 35.3873 159.649 35.8667 159.314 36.4443H159.272C158.81 35.2102 157.763 34.5521 156.441 34.5521C155.803 34.5585 155.177 34.7238 154.619 35.0329C154.063 35.342 153.593 35.7848 153.254 36.3209H153.211V34.7989H151.513L151.517 45.4267Z" fill="#ADB7D9"/>
<path fill-rule="evenodd" clip-rule="evenodd" d="M27.2779 42.1791V29.3616L38.5278 22.9534L44.9809 19.2737V27.5845C44.9804 27.6259 44.9916 27.6666 45.0128 27.7024C45.034 27.7382 45.0642 27.768 45.1003 27.7886C45.1368 27.8093 45.1783 27.8201 45.2202 27.82C45.2625 27.8199 45.3036 27.8089 45.3401 27.7881L45.903 27.4719L49.1796 25.6053C49.3617 25.5014 49.5127 25.3521 49.6181 25.1725C49.723 24.9928 49.7782 24.7891 49.7778 24.5818V15.1811C49.7769 14.7666 49.6658 14.3596 49.4551 14.0009C49.2443 13.6421 48.9415 13.3442 48.5765 13.1369L47.3785 12.4541L40.3302 8.43657C40.1481 8.33303 39.9415 8.27857 39.7311 8.27857C39.5208 8.27857 39.3142 8.33303 39.1321 8.43657L35.3058 10.6207C35.2693 10.6413 35.2389 10.6711 35.2177 10.7069C35.1966 10.7428 35.1854 10.7835 35.1854 10.825C35.1854 10.8665 35.1966 10.9072 35.2177 10.9431C35.2389 10.9789 35.2693 11.0087 35.3058 11.0293L42.5903 15.1811L36.1373 18.8594L24.8874 25.2632L13.6389 18.8594L7.41929 15.3139L7.18463 15.1811L14.4793 11.0235C14.5159 11.0029 14.5463 10.9732 14.5674 10.9373C14.5885 10.9014 14.5997 10.8607 14.5997 10.8192C14.5997 10.7777 14.5885 10.737 14.5674 10.7011C14.5463 10.6653 14.5159 10.6355 14.4793 10.615L10.6531 8.42935C10.471 8.3254 10.2644 8.27064 10.0539 8.27064C9.84356 8.27064 9.63685 8.3254 9.45487 8.42935L2.39488 12.4512L1.19671 13.1369C0.832894 13.3447 0.530876 13.6429 0.320864 14.0016C0.110853 14.3603 0.00020951 14.767 6.30318e-07 15.1811V24.5717C-3.89613e-06 24.7789 0.0552583 24.9825 0.160262 25.1622C0.265266 25.3418 0.416333 25.4911 0.598354 25.5952L3.89224 27.4719L4.43047 27.7779C4.46689 27.7988 4.50833 27.8098 4.55048 27.8099C4.59266 27.8099 4.6341 27.799 4.67061 27.7781C4.70707 27.7574 4.73731 27.7274 4.75826 27.6914C4.77921 27.6553 4.79007 27.6145 4.78978 27.5729V19.2722L5.0244 19.4065L11.2455 22.9534L22.4925 29.3616V49.5375L15.1979 45.3799C15.1614 45.3587 15.12 45.3479 15.0779 45.3479C15.0357 45.3479 14.9943 45.3587 14.9578 45.3794C14.9213 45.4002 14.891 45.4305 14.8701 45.4666C14.8492 45.5022 14.8383 45.5433 14.8386 45.5848V49.9486C14.8381 50.156 14.8932 50.3597 14.9983 50.5397C15.1033 50.7194 15.2546 50.8687 15.437 50.9724L22.4925 55.0015L23.6892 55.6843C24.0533 55.8913 24.4663 56.0004 24.8867 56.0004C25.3071 56.0004 25.7201 55.8913 26.0841 55.6843L27.2779 55.0015L34.332 50.9811C34.5145 50.8774 34.666 50.7281 34.7714 50.5485C34.8766 50.3688 34.932 50.1647 34.9318 49.9573V45.5848C34.9317 45.5433 34.9206 45.5026 34.8995 45.467C34.8785 45.4313 34.8483 45.4014 34.8119 45.3807C34.7756 45.3599 34.7344 45.3492 34.6924 45.3487C34.6504 45.3487 34.6091 45.3595 34.5725 45.3799L27.2779 49.5375V42.1791ZM40.32 42.1057C40.1375 42.2094 39.9859 42.3588 39.8807 42.5384C39.7753 42.718 39.72 42.9217 39.7201 43.1291V47.4946C39.7201 47.5361 39.7312 47.5767 39.7522 47.6124C39.7732 47.6485 39.8035 47.6779 39.84 47.6987C39.8764 47.7194 39.9178 47.7302 39.9598 47.7302C40.0018 47.7302 40.0431 47.719 40.0794 47.6983L48.5723 42.8594C48.9365 42.6512 49.2389 42.3525 49.4488 41.9933C49.6587 41.6341 49.7695 41.2267 49.7691 40.8122V31.1314C49.7691 31.09 49.7579 31.0494 49.7367 31.0135C49.716 30.9777 49.6857 30.9479 49.6492 30.9273C49.6127 30.9066 49.5712 30.8958 49.5293 30.8959C49.4874 30.896 49.4459 30.9071 49.4098 30.9279L48.2894 31.5659L45.579 33.1106C45.3965 33.2144 45.2455 33.3636 45.1401 33.5433C45.0352 33.723 44.98 33.9268 44.9809 34.1341V39.4495L40.32 42.1057ZM10.0488 47.4946C10.0488 47.5361 10.0378 47.5767 10.0168 47.6124C9.99575 47.6485 9.96547 47.6779 9.92901 47.6987C9.89259 47.7194 9.85123 47.7302 9.80921 47.7302C9.76715 47.7302 9.72587 47.719 9.68953 47.6983L1.19671 42.8607C0.832463 42.6529 0.530171 42.3542 0.320132 41.995C0.110095 41.6353 -0.000304385 41.2282 6.30318e-07 40.8137V31.1213C-3.23248e-05 31.0799 0.0110271 31.0393 0.0320627 31.0034C0.0530984 30.9676 0.0833657 30.9378 0.119811 30.9172C0.156256 30.8966 0.197588 30.8857 0.239638 30.8858C0.281687 30.8859 0.322965 30.8969 0.359306 30.9177L1.49735 31.5659L4.19141 33.1005C4.37352 33.2045 4.52468 33.3538 4.62971 33.5334C4.73474 33.7131 4.78991 33.9167 4.78978 34.124V39.4495L9.45048 42.1057C9.63258 42.2098 9.78374 42.3592 9.88877 42.5388C9.9938 42.7184 10.049 42.9221 10.0488 43.1291V47.4946ZM15.2023 5.15381C15.1657 5.17438 15.1353 5.20412 15.1142 5.24001C15.093 5.27589 15.0819 5.31662 15.0819 5.35806C15.0819 5.39954 15.093 5.44028 15.1142 5.47616C15.1353 5.51204 15.1657 5.54174 15.2023 5.56236L17.7277 7.00596L19.0344 7.75084C19.2163 7.85438 19.4227 7.90888 19.6328 7.90888C19.8429 7.90888 20.0492 7.85438 20.2311 7.75084L24.8874 5.09316L29.5584 7.75519C29.7403 7.85869 29.9466 7.91324 30.1567 7.91324C30.3669 7.91324 30.5732 7.85869 30.7551 7.75519L32.075 7.0016L34.5857 5.57103C34.6223 5.55041 34.6527 5.52067 34.6739 5.48483C34.695 5.44895 34.7061 5.40821 34.7061 5.36673C34.7061 5.32525 34.695 5.28452 34.6739 5.24868C34.6527 5.21279 34.6223 5.18305 34.5857 5.16248L26.0797 0.3163C25.7157 0.109253 25.3027 0.000244141 24.8823 0.000244141C24.4619 0.000244141 24.0488 0.109253 23.6848 0.3163L15.2023 5.15381Z" fill="#ADB7D9"/>
</g>
<defs>
<clipPath id="clip0_2_2320">
<rect width="166" height="56" fill="white"/>
</clipPath>
</defs>
</svg>
