<svg width="80" height="80" viewBox="0 0 80 80" fill="none" xmlns="http://www.w3.org/2000/svg">
<path d="M30 65H42.5C50 65 55 60 55 52.5V40C55 33.25 50.75 28.25 44.5 27.5C44 27.5 43.25 27.5 42.5 27.5H17.5C16.75 27.5 16.25 27.4999 15.5 27.7499C8.99999 28.4999 5 33.25 5 40C5 40.75 5 41.75 5 42.5" stroke="#0053F1" stroke-width="3" stroke-linecap="round" stroke-linejoin="round"/>
<path d="M44.5 27.5C44 27.5 43.25 27.5 42.5 27.5H17.5C16.75 27.5 16.25 27.4999 15.5 27.7499C15.75 26.9999 16.25 26.5 17 25.75L25 17.5C28.5 14 34 14 37.5 17.5L42 22C43.5 23.5 44.25 25.5 44.5 27.5Z" stroke="#0053F1" stroke-width="3" stroke-linecap="round" stroke-linejoin="round"/>
<path d="M55 41.25H47.5C44.75 41.25 42.5 43.5 42.5 46.25C42.5 49 44.75 51.25 47.5 51.25H55" stroke="#0053F1" stroke-width="3" stroke-linecap="round" stroke-linejoin="round"/>
<path d="M14.5039 63.5001C18.9289 63.5001 22.5039 59.925 22.5039 55.5C22.5039 51.075 18.9289 47.5 14.5039 47.5C10.0789 47.5 6.50391 51.075 6.50391 55.5C6.50391 59.925 10.0789 63.5001 14.5039 63.5001Z" stroke="#0053F1" stroke-width="3" stroke-linecap="round" stroke-linejoin="round"/>
<path d="M5 65L7.5 62.5" stroke="#0053F1" stroke-width="3" stroke-linecap="round" stroke-linejoin="round"/>
</svg>
