<svg width="181" height="56" viewBox="0 0 181 56" fill="none" xmlns="http://www.w3.org/2000/svg">
<path d="M62.82 27.3673C62.61 21.954 66.8392 17.4128 72.2382 17.2023H72.6281C77.6072 17.2023 80.5466 20.1195 81.4164 23.5479L78.297 24.6005C77.7271 21.954 75.2976 20.1195 72.6281 20.33C69.4187 20.33 66.1793 22.6758 66.1793 27.4275C66.1793 32.1792 69.3287 34.4347 72.6581 34.4347C75.3576 34.4949 77.7571 32.7205 78.477 30.1341L81.5064 31.1266C80.4266 35.0963 76.7373 37.803 72.6281 37.5925C67.2891 37.6827 62.88 33.4423 62.79 28.0891C62.79 27.8485 62.79 27.6079 62.82 27.3673Z" fill="#6E7E9D"/>
<path d="M87.5666 37.1407H84.2972V17.1415H87.5666V24.9908C88.4964 23.8781 89.9062 23.2465 91.3759 23.3067C94.6753 23.3067 96.295 25.6825 96.295 28.6298V37.1407H93.1156V29.1711C93.3255 27.7576 92.3357 26.4344 90.926 26.2239C90.746 26.1938 90.5361 26.1938 90.3561 26.2239C88.8264 26.2239 87.5666 27.487 87.5666 29.0207C87.5666 29.111 87.5666 29.1711 87.5666 29.2613V37.1407Z" fill="#6E7E9D"/>
<path d="M103.373 29.4415L106.823 28.9001C107.603 28.8099 107.813 28.3889 107.813 27.9378C107.813 26.795 107.063 25.8927 105.263 25.8927C103.884 25.7724 102.653 26.795 102.503 28.1784V28.2987L99.5941 27.637C99.834 25.3213 101.934 23.2462 105.233 23.2462C109.373 23.2462 110.932 25.592 110.932 28.3287V35.0052C110.932 35.727 110.962 36.4487 111.112 37.1705H108.143C108.023 36.5991 107.993 36.0277 108.023 35.4563C107.123 36.8397 105.533 37.6517 103.884 37.5916C101.574 37.772 99.5641 36.0878 99.3241 33.7721V33.5616C99.2941 31.0655 101.064 29.7723 103.373 29.4415ZM107.783 31.6068V31.0053L104.274 31.5166C103.283 31.5467 102.503 32.3587 102.474 33.3511C102.474 34.3435 103.283 35.1255 104.274 35.0954H104.424C106.103 35.3059 107.633 34.0729 107.813 32.3887C107.813 32.3587 107.813 32.3587 107.813 32.3286C107.873 32.088 107.843 31.8474 107.783 31.6068Z" fill="#6E7E9D"/>
<path d="M116.361 16.8701C117.501 16.8701 118.461 17.7723 118.491 18.9452C118.491 20.088 117.561 21.0203 116.421 21.0504C115.282 21.0504 114.352 20.1181 114.322 18.9753C114.292 17.8024 115.222 16.8701 116.361 16.8701ZM114.802 37.2002V23.6969H118.011V37.14L114.802 37.2002Z" fill="#6E7E9D"/>
<path d="M125.269 37.1419H122.06V23.6988H125.179V25.5033C126.019 24.1198 127.519 23.2778 129.139 23.3078C132.408 23.3078 133.968 25.6837 133.968 28.631V37.1419H130.788V29.1723C130.788 27.5182 130.039 26.195 128.029 26.195C126.469 26.195 125.209 27.4881 125.209 29.052C125.209 29.1723 125.209 29.2625 125.209 29.3828L125.269 37.1419Z" fill="#6E7E9D"/>
<path d="M141.074 17.1415H137.895V37.1407H141.074V17.1415Z" fill="#6E7E9D"/>
<path d="M146.806 16.8701C147.945 16.8701 148.875 17.8024 148.905 18.9452C148.905 20.088 147.975 21.0203 146.836 21.0504C145.696 21.0504 144.766 20.1181 144.736 18.9753V18.9452C144.735 17.8024 145.636 16.8701 146.806 16.8701ZM145.216 37.2002V23.6969H148.395V37.14L145.216 37.2002Z" fill="#6E7E9D"/>
<path d="M155.713 37.1419H152.534V23.6988H155.653V25.5033C156.493 24.1198 157.993 23.2778 159.612 23.3078C162.882 23.3078 164.471 25.6837 164.471 28.631V37.1419H161.292V29.1723C161.502 27.7588 160.512 26.4356 159.102 26.225C158.922 26.195 158.713 26.195 158.533 26.225C156.973 26.225 155.713 27.4881 155.743 29.052C155.743 29.1723 155.743 29.2926 155.743 29.3828L155.713 37.1419Z" fill="#6E7E9D"/>
<path d="M175.359 29.3516L180.998 37.1407H177.068L173.139 31.577L171.489 33.3213V37.1407H168.31V17.1415H171.489V29.111L176.649 23.6976H180.878L175.359 29.3516Z" fill="#6E7E9D"/>
<path d="M24.9679 11.7289L38.7953 19.6985V35.668L25.0279 43.6677L11.2005 35.7883V19.7587L24.9679 11.7289ZM24.9679 0L19.8989 2.94727L6.10145 10.977L1.03241 13.9243V41.6226L6.10145 44.5398L19.9289 52.4794L24.9979 55.3966L30.0669 52.4493L43.8343 44.4195L48.9033 41.4723V13.7439L43.8343 10.8267L30.0069 2.85704L24.9679 0Z" fill="#6E7E9D"/>
</svg>
