<svg width="15" height="7" viewBox="0 0 15 7" fill="none" xmlns="http://www.w3.org/2000/svg">
<path d="M13.7108 0.288658C13.6178 0.197192 13.5072 0.124593 13.3854 0.0750502C13.2635 0.025507 13.1328 0 13.0008 0C12.8688 0 12.7381 0.025507 12.6162 0.0750502C12.4944 0.124593 12.3838 0.197192 12.2908 0.288658L7.71079 4.7581C7.61783 4.84956 7.50723 4.92216 7.38537 4.9717C7.26351 5.02125 7.13281 5.04676 7.00079 5.04676C6.86878 5.04676 6.73808 5.02125 6.61622 4.9717C6.49436 4.92216 6.38376 4.84956 6.29079 4.7581L1.71079 0.288658C1.61783 0.197192 1.50723 0.124593 1.38537 0.0750502C1.26351 0.025507 1.1328 0 1.00079 0C0.868781 0 0.738075 0.025507 0.616216 0.0750502C0.494357 0.124593 0.383756 0.197192 0.290792 0.288658C0.104542 0.471497 0 0.718831 0 0.976639C0 1.23445 0.104542 1.48178 0.290792 1.66462L4.88079 6.14382C5.44329 6.69206 6.20579 7 7.00079 7C7.7958 7 8.55829 6.69206 9.12079 6.14382L13.7108 1.66462C13.897 1.48178 14.0016 1.23445 14.0016 0.976639C14.0016 0.718831 13.897 0.471497 13.7108 0.288658Z" fill="#1B2A47"/>
</svg>
