<svg width="80" height="80" viewBox="0 0 80 80" fill="none" xmlns="http://www.w3.org/2000/svg">
<path d="M21.8875 21.95C20.7898 21.95 19.9 22.8398 19.9 23.9375C19.9 25.0352 20.7898 25.925 21.8875 25.925H25.8625C26.9602 25.925 27.85 25.0352 27.85 23.9375C27.85 22.8398 26.9602 21.95 25.8625 21.95H21.8875ZM19.9 31.8875C19.9 30.7898 20.7898 29.9 21.8875 29.9H25.8625C26.9602 29.9 27.85 30.7898 27.85 31.8875C27.85 32.9852 26.9602 33.875 25.8625 33.875H21.8875C20.7898 33.875 19.9 32.9852 19.9 31.8875ZM21.8875 37.85C20.7898 37.85 19.9 38.7398 19.9 39.8375C19.9 40.9352 20.7898 41.825 21.8875 41.825H25.8625C26.9602 41.825 27.85 40.9352 27.85 39.8375C27.85 38.7398 26.9602 37.85 25.8625 37.85H21.8875ZM11.95 19.3C11.95 16.3729 14.3229 14 17.25 14H33.7654C35.1711 14 36.5191 14.5584 37.5131 15.5523L47.4977 25.5369C48.4916 26.5309 49.05 27.8789 49.05 29.2846V53.75C49.05 56.6771 46.6771 59.05 43.75 59.05H17.25C14.3229 59.05 11.95 56.6771 11.95 53.75V19.3ZM17.25 17.975C16.5182 17.975 15.925 18.5682 15.925 19.3V53.75C15.925 54.4818 16.5182 55.075 17.25 55.075H43.75C44.4818 55.075 45.075 54.4818 45.075 53.75V31.225H36.4626C33.9013 31.225 31.825 29.1487 31.8251 26.5874L31.8253 17.975H17.25ZM35.8002 19.461L35.8001 26.5875C35.8001 26.9534 36.0967 27.25 36.4626 27.25H43.5893L35.8002 19.461ZM7.975 50.4375C7.975 49.3398 7.08517 48.45 5.9875 48.45C4.88983 48.45 4 49.3398 4 50.4375V55.075C4 61.661 9.339 67 15.925 67H45.075C51.661 67 57 61.661 57 55.075V50.4375C57 49.3398 56.1102 48.45 55.0125 48.45C53.9148 48.45 53.025 49.3398 53.025 50.4375V55.075C53.025 59.4657 49.4657 63.025 45.075 63.025H15.925C11.5343 63.025 7.975 59.4657 7.975 55.075V50.4375Z" fill="#0053F1"/>
</svg>
