<svg width="175" height="56" viewBox="0 0 175 56" fill="none" xmlns="http://www.w3.org/2000/svg">
<g clip-path="url(#clip0_2_2283)">
<path fill-rule="evenodd" clip-rule="evenodd" d="M24.2625 0.143959C24.076 0.187156 23.8726 0.263781 23.8105 0.314114C23.7482 0.364446 23.5533 0.467741 23.3772 0.543803C23.201 0.619678 23.0569 0.707008 23.0569 0.737433C23.0569 0.768046 22.9241 0.845986 22.7619 0.91078C22.5998 0.975386 22.4467 1.06103 22.422 1.10084C22.3972 1.14085 22.278 1.19512 22.1571 1.2216C22.0361 1.24808 21.8928 1.32283 21.8388 1.38782C21.7846 1.45279 21.6043 1.57112 21.438 1.65056C21.0605 1.83104 20.56 2.12046 20.0339 2.46283C19.5259 2.79336 19.2599 2.94512 18.8646 3.1301C18.693 3.2103 18.5323 3.3089 18.5073 3.3491C18.4824 3.38928 18.1819 3.5645 17.8396 3.7386C17.4976 3.91251 17.0478 4.15216 16.8406 4.27141C16.6334 4.39048 16.3236 4.55331 16.152 4.63332C15.9805 4.71314 15.828 4.80649 15.813 4.84105C15.7678 4.94508 15.0905 5.39188 14.978 5.39188C14.9204 5.39188 14.7582 5.4764 14.6179 5.57969C14.4775 5.68299 14.3208 5.7675 14.27 5.7675C14.2192 5.7675 14.0816 5.84431 13.9644 5.93821C13.8472 6.03212 13.6327 6.16791 13.4877 6.24021C13.2426 6.36248 13.1036 6.44286 12.333 6.90805C11.604 7.34847 9.72685 8.39682 9.66752 8.39682C9.64228 8.39682 9.51041 8.48133 9.37459 8.58462C9.23879 8.68772 9.04909 8.80811 8.95302 8.85206C8.85696 8.89582 8.60887 9.02953 8.40166 9.14917C8.19446 9.2688 7.91699 9.41848 7.78512 9.4816C7.65327 9.54488 7.52179 9.63466 7.49296 9.68123C7.46395 9.728 7.30063 9.83336 7.12979 9.91543C6.95912 9.99769 6.66188 10.1545 6.46954 10.2638C6.27722 10.3731 5.82192 10.6317 5.45799 10.8383C5.09424 11.0449 4.64122 11.306 4.45171 11.4185C4.26202 11.531 3.99566 11.6754 3.86004 11.7396C3.72422 11.8037 3.39589 12.0044 3.13029 12.1857C2.86469 12.3671 2.56952 12.54 2.47438 12.5701C2.37925 12.6001 2.21594 12.6818 2.11158 12.7513C1.31666 13.2813 1.12659 13.428 0.809185 13.7559C0.611584 13.9599 0.432066 14.2151 0.410214 14.3232C0.388176 14.4311 0.33788 14.6416 0.298323 14.791C0.166651 15.2882 0.204889 26.6907 0.338634 26.8013C0.48933 26.9261 0.908456 26.8421 1.17444 26.6336C1.41273 26.4467 1.70262 26.2784 2.16715 26.0578C2.34365 25.974 2.53014 25.8716 2.58156 25.8304C2.63299 25.7891 2.79386 25.6573 2.93891 25.5371C3.08395 25.417 3.31057 25.2952 3.44223 25.2666C3.57409 25.2382 3.72404 25.1643 3.77546 25.1025C3.8267 25.0409 3.97325 24.9412 4.10077 24.8811C4.2285 24.8211 4.63801 24.5872 5.01099 24.3615C5.38396 24.1357 5.8078 23.8962 5.95284 23.8294C6.09788 23.7623 6.28437 23.6468 6.36726 23.5729C6.45014 23.4986 6.72026 23.3315 6.9674 23.2014C7.21455 23.0712 7.47111 22.9158 7.53742 22.8559C7.60372 22.7963 7.77288 22.7072 7.9134 22.6584C8.05393 22.6095 8.28525 22.4909 8.42766 22.3946C8.56988 22.2984 8.7219 22.2194 8.76522 22.2194C8.80854 22.2194 8.91403 22.1559 8.99955 22.078C9.08508 22.0003 9.3925 21.811 9.68258 21.6574C9.97268 21.5037 10.2635 21.3308 10.3289 21.273C10.3944 21.2151 10.4851 21.1677 10.5304 21.1677C10.5758 21.1677 10.709 21.0871 10.8266 20.9886C10.9439 20.89 11.1585 20.7549 11.3031 20.6885C11.6497 20.529 12.0466 20.2864 12.1832 20.1503C12.2435 20.0901 12.3516 20.041 12.4236 20.041C12.4953 20.041 12.6692 19.9563 12.8095 19.8531C12.9499 19.7498 13.1066 19.6653 13.1575 19.6653C13.2083 19.6653 13.3458 19.5885 13.463 19.4946C13.5802 19.4007 13.8088 19.257 13.9712 19.1753C14.5904 18.8636 14.7429 18.7725 14.8389 18.6573C14.8933 18.592 14.9818 18.5384 15.0357 18.5384C15.0896 18.5384 15.2295 18.4616 15.3467 18.3677C15.4639 18.2738 15.6784 18.1388 15.8235 18.0679C16.1048 17.9298 16.2677 17.8352 16.5913 17.6223C16.7026 17.5489 17.065 17.3508 17.3966 17.1819C17.7281 17.0129 18.0395 16.8266 18.0885 16.7676C18.1376 16.7086 18.2098 16.6603 18.2489 16.6603C18.2879 16.6603 18.4279 16.5785 18.5599 16.4785C18.6917 16.3787 19.0431 16.1737 19.3406 16.0233C19.6379 15.8731 19.9219 15.7013 19.9714 15.6416C20.021 15.5821 20.0942 15.5336 20.1341 15.5336C20.174 15.5336 20.4248 15.4067 20.6913 15.2518C21.7234 14.6516 21.8971 14.5544 22.1384 14.442C22.2755 14.3781 22.5976 14.1796 22.8542 14.0012C24.1092 13.1275 25.2237 12.9714 26.2216 13.5294C26.4909 13.68 26.8469 13.8754 27.0127 13.9634C27.1785 14.0515 27.3666 14.1695 27.4309 14.2256C27.4951 14.2817 27.7833 14.4509 28.0714 14.6018C28.3594 14.7527 28.6459 14.9193 28.708 14.9722C28.7703 15.0251 29.0923 15.2096 29.4238 15.3822C29.7554 15.5546 30.1623 15.7775 30.3281 15.8774C30.4937 15.9772 30.7754 16.1291 30.9538 16.2147C31.1324 16.3006 31.431 16.478 31.6176 16.6094C31.8043 16.7407 32.1161 16.9392 32.3105 17.0504C32.6506 17.2451 32.7413 17.2914 33.1537 17.4811C33.2572 17.5288 33.4268 17.6188 33.5303 17.6813C34.1211 18.0368 35.3396 17.612 36.1794 16.7576C36.4554 16.4769 37.1674 15.7705 37.7617 15.1881C39.7756 13.2147 40.8803 12.0373 41.1436 11.5847C41.8388 10.3889 41.2403 8.92737 39.7455 8.17087C39.4727 8.03284 39.2305 7.88916 39.2071 7.8516C39.1839 7.81404 39.0246 7.71807 38.853 7.63825C38.6814 7.55825 38.3714 7.39448 38.1642 7.2739C37.957 7.15352 37.6773 6.99557 37.5426 6.92308C37.4079 6.85077 37.2978 6.76645 37.2978 6.73621C37.2978 6.70579 37.0349 6.5529 36.7138 6.39628C36.3926 6.23983 36.079 6.07156 36.0169 6.02235C35.9547 5.97315 35.6665 5.80712 35.3764 5.65349C35.0862 5.49988 34.6285 5.23112 34.3592 5.05645C34.0898 4.8818 33.6337 4.61436 33.3457 4.46242C33.0577 4.3103 32.7696 4.13957 32.7053 4.08267C32.641 4.02596 32.4698 3.92548 32.3248 3.85937C32.1797 3.79325 31.9085 3.65053 31.722 3.54197C31.5355 3.43361 31.1395 3.21518 30.8419 3.05686C30.5445 2.89836 30.086 2.62208 29.823 2.44255C29.5603 2.26318 29.0824 1.98692 28.7613 1.82879C28.4402 1.67065 28.1574 1.50895 28.1331 1.46951C28.1087 1.43007 27.9483 1.33166 27.7767 1.25071C27.6051 1.16977 27.3291 1.02159 27.1635 0.921484C25.9391 0.181897 25.0846 -0.0470413 24.2625 0.143959Z" fill="#ADB7D9"/>
<path fill-rule="evenodd" clip-rule="evenodd" d="M11.2465 23.4737C11.1532 23.4918 11.0432 23.569 11.0021 23.6454C10.9611 23.7218 10.8113 23.8227 10.6693 23.8693C10.5273 23.9161 10.3687 24.0053 10.3169 24.0676C10.2651 24.1297 10.1181 24.231 9.9906 24.2924C9.86288 24.3538 9.58899 24.502 9.38178 24.6217C9.17458 24.7412 8.88636 24.9003 8.74131 24.9751C8.59627 25.0498 8.45047 25.1533 8.4175 25.2047C8.38436 25.2564 8.20352 25.3371 8.01553 25.3844C7.82735 25.4316 7.65706 25.5129 7.63691 25.5653C7.61674 25.6178 7.5009 25.7017 7.37959 25.7518C7.25828 25.802 7.15901 25.8745 7.15901 25.9132C7.15901 25.9519 7.00775 26.0501 6.82314 26.1316C6.63835 26.2132 6.46825 26.3102 6.44527 26.3471C6.42229 26.3844 6.27667 26.4555 6.12184 26.5053C5.96699 26.5551 5.78747 26.6506 5.72287 26.7177C5.65826 26.7846 5.37061 26.9576 5.08353 27.102C4.79664 27.2467 4.50185 27.424 4.42875 27.4962C4.35566 27.5685 4.24943 27.6277 4.19291 27.6277C4.13641 27.6277 4.00021 27.6982 3.89039 27.7843C3.78057 27.8705 3.56451 27.9757 3.41042 28.0181C3.25633 28.0603 3.08549 28.159 3.03067 28.2371C2.97584 28.3151 2.88731 28.3789 2.83381 28.3789C2.78051 28.3789 2.67822 28.4436 2.60664 28.5222C2.53507 28.601 2.36873 28.7091 2.23705 28.7622C2.10539 28.8152 1.97993 28.8837 1.95846 28.9145C1.93698 28.9453 1.75898 29.0391 1.56288 29.1229C1.36679 29.2065 1.20648 29.3075 1.20648 29.347C1.20648 29.3867 1.08837 29.4579 0.943891 29.5054C0.33809 29.7046 0.377084 29.2936 0.38217 35.4318C0.38669 40.8888 0.411744 41.5546 0.618952 41.7069C0.679984 41.7517 0.770402 41.8644 0.820131 41.9574C0.869674 42.0504 0.960846 42.1265 1.02263 42.1265C1.08442 42.1265 1.16711 42.2109 1.20648 42.3143C1.24585 42.4175 1.32572 42.5021 1.38374 42.5021C1.44195 42.5021 1.53556 42.5575 1.59171 42.6251C1.64802 42.6927 1.83018 42.8134 1.99651 42.8936C2.59252 43.1806 2.91821 43.368 3.0463 43.4975C3.1177 43.5698 3.23505 43.6289 3.307 43.6289C3.37878 43.6289 3.55264 43.7135 3.69298 43.8167C3.83332 43.9201 3.97874 44.0046 4.01584 44.0046C4.05314 44.0046 4.17371 44.0741 4.2839 44.1591C4.62164 44.4198 5.15794 44.7529 5.24176 44.7544C5.28565 44.7552 5.4339 44.8386 5.57142 44.9397C5.70874 45.0409 5.91651 45.1444 6.03293 45.1699C6.14915 45.1953 6.28647 45.2666 6.3379 45.3284C6.38913 45.39 6.54416 45.4877 6.68205 45.5452C6.82012 45.6026 6.93295 45.6824 6.93295 45.7226C6.93295 45.7628 7.03618 45.8181 7.16239 45.8458C7.2886 45.8735 7.47999 45.9775 7.58774 46.0772C7.69567 46.1767 7.84015 46.2582 7.90891 46.2582C7.97766 46.2582 8.1489 46.3428 8.28922 46.446C8.42956 46.5494 8.58422 46.6339 8.63263 46.6339C8.71381 46.6339 9.13878 46.9271 9.42962 47.1837C9.49725 47.2436 9.67489 47.3327 9.82408 47.382C9.97345 47.4309 10.1166 47.5053 10.1424 47.547C10.1684 47.5887 10.3298 47.6895 10.5015 47.7709C10.6731 47.8522 10.9829 48.0169 11.1901 48.1368C11.3973 48.2569 11.6786 48.4083 11.815 48.4735C11.9515 48.5387 12.0809 48.638 12.1028 48.6945C12.1245 48.7511 12.2908 48.8345 12.4726 48.8801C12.6542 48.9257 12.8299 49.0052 12.8631 49.0567C12.896 49.1082 13.0418 49.2119 13.1869 49.287C13.7676 49.5878 13.9815 49.7171 14.0533 49.8106C14.0948 49.8646 14.2474 49.9547 14.3925 50.0106C14.5375 50.0669 14.6901 50.1528 14.7316 50.2021C14.773 50.2511 14.9298 50.3316 15.0803 50.381C15.2307 50.4304 15.414 50.5371 15.4876 50.6182C15.5611 50.6993 15.6773 50.7656 15.7457 50.7656C15.814 50.7656 15.9851 50.8502 16.1255 50.9534C16.2658 51.0568 16.4231 51.1412 16.4749 51.1412C16.5268 51.1412 16.6134 51.204 16.6674 51.2808C16.7217 51.3574 16.8433 51.4446 16.9379 51.4744C17.0324 51.5041 17.1985 51.6104 17.3067 51.7106C17.415 51.8106 17.5601 51.8925 17.6289 51.8925C17.6976 51.8925 17.8688 51.9769 18.0092 52.0803C18.1495 52.1835 18.2953 52.2681 18.3332 52.2681C18.3708 52.2681 18.5025 52.3526 18.6257 52.456C18.7488 52.5592 18.8933 52.6437 18.9467 52.6437C19 52.6437 19.1246 52.7064 19.2234 52.7831C19.3223 52.8597 19.5229 52.9613 19.6693 53.0088C19.8156 53.0563 19.9935 53.1628 20.0641 53.2451C20.1349 53.3275 20.2593 53.395 20.3402 53.395C20.4214 53.395 20.5794 53.4795 20.6912 53.5827C20.803 53.6861 20.9353 53.7706 20.9854 53.7706C21.0355 53.7706 21.168 53.855 21.2796 53.9584C21.3916 54.0616 21.5262 54.1462 21.579 54.1462C21.6317 54.1462 21.7512 54.2269 21.844 54.3257C21.9371 54.4243 22.1153 54.5255 22.24 54.5504C22.3648 54.5753 22.5536 54.6636 22.6593 54.7464C22.7652 54.8294 22.8955 54.8974 22.9488 54.8974C23.0023 54.8974 23.1417 54.9772 23.2589 55.0749C23.376 55.1726 23.5567 55.278 23.6603 55.3093C23.7639 55.3404 23.9115 55.421 23.9887 55.4885C24.1889 55.664 25.689 55.6667 25.8941 55.492C25.9708 55.4265 26.1524 55.3271 26.2975 55.2709C26.4425 55.2149 26.5869 55.1275 26.6183 55.0764C26.6497 55.0255 26.8024 54.9425 26.9573 54.8922C27.1124 54.8416 27.3202 54.7378 27.4191 54.6612C27.5179 54.5845 27.6317 54.5218 27.6718 54.5218C27.7121 54.5218 27.8457 54.4373 27.9689 54.3339C28.0921 54.2307 28.2413 54.1462 28.3005 54.1462C28.3598 54.1462 28.482 54.0616 28.5721 53.9584C28.6621 53.855 28.7761 53.7706 28.8251 53.7706C28.8742 53.7706 28.9952 53.7083 29.094 53.6324C29.1929 53.5563 29.3901 53.4545 29.5325 53.4061C29.675 53.3576 29.8506 53.2647 29.9229 53.1992C30.0728 53.064 30.432 52.857 30.8184 52.6835C30.9635 52.6183 31.133 52.5318 31.1951 52.4912C31.2573 52.4507 31.4268 52.3584 31.5719 52.2865C31.717 52.2144 31.8613 52.1158 31.8927 52.0672C31.9242 52.0186 32.0767 51.9381 32.2317 51.8881C32.3868 51.8382 32.5744 51.7343 32.6485 51.6571C32.7226 51.5799 32.8317 51.5169 32.8908 51.5169C32.9498 51.5169 33.0339 51.4504 33.0773 51.3693C33.121 51.2881 33.2917 51.1812 33.457 51.1321C33.6219 51.0827 33.757 51.018 33.757 50.9884C33.757 50.9587 33.9265 50.8617 34.1337 50.7727C34.3409 50.6839 34.5105 50.5815 34.5105 50.5455C34.5105 50.5095 34.6137 50.4439 34.7402 50.4C34.8663 50.3562 35.0573 50.2515 35.1647 50.1673C35.2719 50.0832 35.4177 50.0144 35.4885 50.0144C35.5593 50.0144 35.6759 49.9497 35.7475 49.8711C35.8191 49.7923 35.9855 49.6842 36.1171 49.6313C36.2487 49.5782 36.3822 49.4932 36.4136 49.4421C36.4451 49.3912 36.5891 49.3107 36.7338 49.263C36.8785 49.2153 36.997 49.1481 36.997 49.1132C36.997 49.0786 37.1473 48.9929 37.3312 48.9231C37.515 48.8529 37.6823 48.7521 37.7026 48.699C37.7231 48.6457 37.8694 48.5596 38.0278 48.5076C38.186 48.4555 38.3495 48.373 38.3909 48.324C38.4323 48.2747 38.5849 48.1897 38.73 48.1347C38.8751 48.0797 39.0445 47.9877 39.1068 47.9305C39.2217 47.8244 39.5457 47.64 39.9981 47.4233C40.1359 47.3571 40.3488 47.1947 40.471 47.0623C40.5934 46.93 40.7603 46.7529 40.842 46.6688C40.9236 46.5846 40.9905 46.4854 40.9905 46.4483C40.9905 46.4111 41.0667 46.2996 41.1599 46.2008C41.5956 45.7383 41.282 43.9643 40.7268 43.7521C40.6646 43.7283 40.6137 43.6727 40.6137 43.6287C40.6137 43.5251 40.1592 43.0719 39.9904 43.0072C39.9188 42.9798 39.8602 42.9203 39.8602 42.8751C39.8602 42.7682 38.2813 41.195 38.1083 41.1294C38.0358 41.102 37.9765 41.0433 37.9765 40.9994C37.9765 40.8958 37.522 40.4426 37.3531 40.3779C37.2816 40.3505 37.223 40.2906 37.223 40.2449C37.223 40.1372 36.3981 39.3161 36.2246 39.2509C36.1521 39.2236 36.0928 39.1632 36.0928 39.1165C36.0928 38.9872 35.6476 38.6005 35.3619 38.4815C35.2224 38.4234 35.0558 38.3239 34.9922 38.2604C34.8358 38.1046 33.7971 38.1019 33.531 38.2567C33.4273 38.317 33.2244 38.4216 33.0802 38.4894C32.9357 38.557 32.7363 38.6762 32.6368 38.7542C32.5372 38.8323 32.3984 38.8961 32.3283 38.8961C32.2584 38.8961 32.1229 38.979 32.0276 39.0801C31.9324 39.1813 31.7593 39.2848 31.6429 39.3103C31.5267 39.3358 31.393 39.4028 31.3459 39.4596C31.2988 39.5163 31.1633 39.5838 31.0453 39.6097C30.9271 39.6356 30.7474 39.7307 30.6459 39.8212C30.5444 39.9114 30.3637 40.0437 30.2443 40.1148C29.9515 40.2891 29.7622 40.4065 29.5375 40.5528C29.4339 40.6203 29.2261 40.7158 29.0756 40.7652C28.9252 40.8146 28.742 40.9213 28.6683 41.0024C28.5949 41.0835 28.4956 41.1499 28.448 41.1499C28.4002 41.1499 28.2462 41.2344 28.1059 41.3376C27.9655 41.441 27.7944 41.5254 27.7261 41.5254C27.6577 41.5254 27.5432 41.5901 27.4716 41.6687C27.4 41.7477 27.2337 41.8552 27.102 41.9079C26.9703 41.9606 26.7848 42.0628 26.6895 42.135C26.5943 42.2072 26.4164 42.2881 26.2939 42.315C26.1717 42.3418 26.0715 42.3907 26.0715 42.4237C26.0715 42.7596 24.1968 42.7723 23.7721 42.4395C23.6654 42.3556 23.4813 42.266 23.3633 42.2401C23.2451 42.2142 23.0888 42.1274 23.0158 42.047C22.9432 41.9668 22.8427 41.9011 22.7931 41.9011C22.7435 41.9011 22.6113 41.8166 22.4995 41.7133C22.3877 41.6101 22.2367 41.5254 22.1638 41.5254C22.091 41.5254 21.9657 41.4747 21.885 41.4128C21.8046 41.3508 21.5949 41.2344 21.4186 41.154C21.2426 41.0738 21.0984 40.975 21.0984 40.9347C21.0984 40.8941 20.9824 40.8229 20.8407 40.7763C20.6991 40.7296 20.544 40.6447 20.4964 40.5873C20.4489 40.5303 20.3104 40.4617 20.1892 40.435C20.0676 40.4084 19.9261 40.3303 19.8741 40.2612C19.8223 40.1922 19.6612 40.0744 19.5161 39.9997C19.3712 39.9249 19.0829 39.7665 18.8757 39.6472C18.6684 39.5282 18.4141 39.3884 18.3106 39.337C18.2069 39.2853 18.0544 39.1861 17.9716 39.1165C17.8886 39.0467 17.6938 38.9493 17.5389 38.8998C17.3838 38.8504 17.2312 38.7663 17.1997 38.7134C17.1683 38.6603 17.013 38.575 16.8548 38.5236C16.6966 38.4723 16.5502 38.3869 16.5297 38.3334C16.5093 38.2803 16.3421 38.1795 16.1582 38.1094C15.9744 38.0395 15.8241 37.954 15.8241 37.9192C15.8241 37.8845 15.7054 37.817 15.5604 37.7693C15.4153 37.7216 15.2966 37.6528 15.2966 37.6168C15.2966 37.5806 15.1525 37.4795 14.9764 37.3924C14.3109 37.0627 14.0263 36.9013 13.8855 36.7739C13.8055 36.7016 13.6875 36.6425 13.6234 36.6425C13.5593 36.6425 13.4602 36.5865 13.4033 36.5181C13.3464 36.4498 13.189 36.3477 13.0533 36.2911C12.9177 36.2346 12.7393 36.1299 12.657 36.0586C12.2092 35.6701 11.9758 35.4077 11.9352 35.2459C11.9101 35.1464 11.8626 35.0649 11.8299 35.0649C11.6292 35.0649 11.6046 34.4145 11.6046 29.125C11.6046 24.01 11.5897 23.4047 11.4646 23.431C11.438 23.4365 11.3399 23.4559 11.2465 23.4737Z" fill="#ADB7D9"/>
<path fill-rule="evenodd" clip-rule="evenodd" d="M11.1139 23.4563C10.2676 23.9692 9.61016 24.3513 9.30555 24.507C9.18123 24.5704 8.89303 24.7406 8.66509 24.8848C8.43717 25.0291 8.17439 25.1815 8.08115 25.2234C7.98791 25.2653 7.83532 25.3333 7.74209 25.3746C7.64883 25.4159 7.41564 25.5654 7.22406 25.7067C7.0323 25.8481 6.62542 26.0913 6.31988 26.2473C6.01416 26.4033 5.71219 26.5736 5.64853 26.6259C5.58486 26.6782 5.33055 26.8267 5.08341 26.9564C4.83627 27.0857 4.51529 27.2692 4.37024 27.364C4.10125 27.5396 3.80287 27.7026 3.46606 27.8579C3.21779 27.9724 3.18011 27.9948 2.69619 28.3151C2.46882 28.4657 2.02634 28.7291 1.71309 28.9005C1.39982 29.072 1.10238 29.2614 1.05228 29.3218C1.00217 29.3821 0.894043 29.4313 0.81229 29.4313C0.730348 29.4313 0.564959 29.5363 0.444591 29.6645L0.22608 29.8979V35.3506C0.22608 41.8896 0.179741 41.4686 0.984273 42.2351C1.53488 42.7595 1.87018 42.9758 3.4962 43.8549C3.83998 44.0408 4.21126 44.2522 4.32107 44.3245C4.78522 44.6299 4.96399 44.7367 5.57393 45.0746C5.92712 45.27 6.34908 45.5067 6.51146 45.6003C7.33106 46.0732 7.5004 46.1676 8.00599 46.4337C8.30625 46.592 8.73272 46.8456 8.95331 46.9971C9.3971 47.3022 9.86446 47.5772 10.4358 47.8695C10.643 47.9756 10.9482 48.1452 11.1139 48.2466C11.2797 48.348 11.5515 48.4955 11.7178 48.5741C11.8842 48.6531 12.0663 48.7726 12.1226 48.8402C12.1788 48.9079 12.282 48.9633 12.3517 48.9633C12.4216 48.9633 12.5936 49.0478 12.7339 49.1511C12.8743 49.2544 13.018 49.339 13.053 49.339C13.088 49.339 13.2086 49.4016 13.3209 49.4785C13.9073 49.879 14.3682 50.1573 14.9567 50.4657C15.1225 50.5528 15.4276 50.7208 15.6348 50.8395C15.842 50.958 16.1188 51.1055 16.2498 51.167C16.3809 51.2287 16.5535 51.3411 16.6336 51.4171C16.7952 51.5702 17.0241 51.7054 17.8575 52.1397C18.1684 52.3016 18.4736 52.4775 18.5358 52.5306C18.5979 52.5837 18.9031 52.7559 19.2138 52.9134C19.5247 53.0709 19.8298 53.2395 19.892 53.2884C19.9542 53.337 20.2288 53.494 20.5023 53.6372C20.776 53.7804 21.0812 53.9549 21.1805 54.0249C21.6916 54.3852 21.9402 54.5355 22.4916 54.8187C22.8231 54.9892 23.297 55.2479 23.5448 55.394C24.2482 55.8087 25.3988 55.9118 25.928 55.6077C26.0272 55.5507 26.2439 55.4337 26.4097 55.3474C26.5755 55.2612 26.8805 55.0928 27.0877 54.9731C27.295 54.8536 27.6002 54.6877 27.766 54.6047C27.9316 54.5216 28.203 54.3528 28.3686 54.2296C28.5344 54.1064 28.9694 53.8534 29.335 53.6676C29.7008 53.4816 30.0488 53.2891 30.1084 53.2398C30.2257 53.1428 30.5317 52.9672 31.006 52.7249C31.1716 52.6401 31.4768 52.4703 31.684 52.3472C31.8912 52.2243 32.1964 52.0544 32.3621 51.9699C32.5279 51.8854 32.7991 51.7162 32.9649 51.5937C33.1307 51.4713 33.5376 51.2318 33.8692 51.0615C34.2006 50.8913 34.5227 50.7081 34.585 50.6541C34.6471 50.6004 34.9313 50.4336 35.2165 50.2838C35.5017 50.1338 35.8238 49.9488 35.9324 49.8727C36.0409 49.7966 36.2059 49.7106 36.2991 49.6819C36.3924 49.653 36.4687 49.6013 36.4687 49.5672C36.4687 49.5329 36.7483 49.363 37.0902 49.1895C37.4322 49.0159 37.7627 48.8297 37.8249 48.7759C37.8871 48.7219 38.0566 48.6225 38.2017 48.555C38.4684 48.4307 38.8597 48.2164 39.4888 47.8498C39.6788 47.7391 39.971 47.5742 40.1382 47.4832C40.4233 47.3278 40.821 46.9078 41.2033 46.3576C41.6827 45.6677 41.5797 44.5261 40.9747 43.8274C40.4267 43.1946 35.6428 38.4461 35.5534 38.4461C35.5136 38.4461 35.3563 38.3615 35.2039 38.2583C34.8713 38.0329 33.7246 37.9835 33.3794 38.1797C33.0746 38.3529 32.6842 38.5677 32.372 38.7343C32.2116 38.8198 32.0252 38.9361 31.9576 38.9927C31.8902 39.0494 31.5465 39.2371 31.1942 39.4097C30.8421 39.5823 30.4182 39.8259 30.2524 39.9511C30.0867 40.0765 29.6709 40.3166 29.3288 40.4851C28.9866 40.6536 28.6862 40.8243 28.6613 40.8645C28.6362 40.9047 28.4756 41.0044 28.3039 41.0862C27.9267 41.2658 27.5854 41.4543 27.3006 41.6405C26.0246 42.4742 24.7233 42.8126 24.1115 42.4701C24.0079 42.4121 23.6491 42.2274 23.3144 42.0593C22.9794 41.8914 22.6436 41.6857 22.5681 41.6023C22.4923 41.5191 22.386 41.4509 22.3318 41.4509C22.2413 41.4509 21.6652 41.1427 20.9627 40.7188C20.809 40.6259 20.5403 40.4813 20.3661 40.3973C20.1917 40.3134 20.0306 40.2152 20.0083 40.179C19.9856 40.1427 19.7724 40.0017 19.5341 39.8655C19.2958 39.7294 18.9992 39.559 18.8748 39.4873C18.7505 39.4155 18.5132 39.2853 18.3474 39.198C18.1816 39.1107 17.8765 38.9423 17.6693 38.8235C17.4621 38.7051 17.1751 38.5533 17.0315 38.4866C16.8881 38.4198 16.7185 38.3193 16.6549 38.2631C16.5911 38.207 16.3064 38.0387 16.0219 37.8892C15.7376 37.7397 15.4195 37.5504 15.315 37.4683C15.2102 37.3863 15.0784 37.3192 15.0218 37.3192C14.9654 37.3192 14.852 37.2523 14.7701 37.1707C14.6881 37.0889 14.5101 36.9689 14.3745 36.9037C14.2388 36.8386 14.0261 36.7263 13.9018 36.6541C13.7775 36.5821 13.4838 36.4134 13.2493 36.2792C12.6062 35.9115 12.1645 35.4861 11.9283 35.0065L11.7167 34.5773L11.679 29.0181C11.6583 25.9605 11.6139 23.4167 11.5803 23.3651C11.498 23.2381 11.4622 23.2453 11.1139 23.4563ZM11.5579 23.5403C11.5832 23.6057 11.6037 26.1191 11.6037 29.1257C11.6037 34.4152 11.6284 35.0655 11.829 35.0655C11.8618 35.0655 11.9092 35.147 11.9343 35.2466C11.975 35.4082 12.2084 35.6708 12.6561 36.0592C12.7384 36.1305 12.9168 36.2351 13.0524 36.2917C13.1881 36.3482 13.3455 36.4504 13.4024 36.5188C13.4593 36.5872 13.5585 36.643 13.6225 36.643C13.6866 36.643 13.8047 36.7023 13.8847 36.7746C14.0254 36.9019 14.31 37.0634 14.9755 37.393C15.1516 37.4802 15.2958 37.5811 15.2958 37.6174C15.2958 37.6535 15.4144 37.7223 15.5595 37.7699C15.7045 37.8177 15.8232 37.885 15.8232 37.9198C15.8232 37.9545 15.9736 38.0402 16.1574 38.1101C16.3411 38.1801 16.5084 38.2809 16.5289 38.3341C16.5493 38.3874 16.6958 38.473 16.854 38.5242C17.0122 38.5757 17.1674 38.6609 17.1988 38.7141C17.2304 38.767 17.3829 38.8509 17.538 38.9003C17.693 38.95 17.8877 39.0474 17.9706 39.117C18.0535 39.1868 18.2061 39.286 18.3097 39.3375C18.4133 39.3891 18.6676 39.5287 18.8748 39.6479C19.082 39.767 19.3703 39.9256 19.5152 40.0003C19.6603 40.0751 19.8214 40.1929 19.8732 40.2617C19.9252 40.3309 20.0668 40.4091 20.1883 40.4357C20.3096 40.4624 20.448 40.5309 20.4955 40.588C20.5432 40.6452 20.6983 40.7302 20.8399 40.7769C20.9816 40.8235 21.0975 40.8947 21.0975 40.9352C21.0975 40.9757 21.2417 41.0745 21.4178 41.1546C21.594 41.235 21.8038 41.3515 21.8842 41.4134C21.9648 41.4754 22.0902 41.5261 22.163 41.5261C22.2357 41.5261 22.3868 41.6106 22.4986 41.7139C22.6104 41.8172 22.7427 41.9018 22.7922 41.9018C22.8419 41.9018 22.9423 41.9675 23.015 42.0476C23.0879 42.1281 23.2442 42.2148 23.3624 42.2407C23.4804 42.2667 23.6645 42.3563 23.7713 42.4402C24.1958 42.7729 26.0706 42.7601 26.0706 42.4244C26.0706 42.3913 26.1708 42.3425 26.293 42.3156C26.4155 42.2888 26.5935 42.2078 26.6886 42.1355C26.7839 42.0634 26.9695 41.9613 27.1011 41.9085C27.2328 41.8559 27.3992 41.7482 27.4708 41.6694C27.5424 41.5907 27.6569 41.5261 27.7252 41.5261C27.7936 41.5261 27.9646 41.4416 28.105 41.3383C28.2453 41.235 28.3994 41.1504 28.447 41.1504C28.4948 41.1504 28.594 41.0842 28.6675 41.0031C28.7411 40.922 28.9244 40.8152 29.0747 40.7659C29.2252 40.7165 29.433 40.6209 29.5367 40.5535C29.7613 40.4072 29.9507 40.2898 30.2434 40.1154C30.3628 40.0443 30.5435 39.9121 30.645 39.8217C30.7465 39.7314 30.9262 39.6361 31.0443 39.6102C31.1624 39.5843 31.2979 39.517 31.345 39.4602C31.3921 39.4035 31.5258 39.3364 31.6421 39.3109C31.7585 39.2853 31.9316 39.1819 32.0267 39.0806C32.122 38.9797 32.2575 38.8968 32.3275 38.8968C32.3976 38.8968 32.5362 38.833 32.6359 38.7548C32.7354 38.6769 32.9347 38.5576 33.0793 38.49C33.2236 38.4222 33.4265 38.3176 33.5301 38.2573C33.7962 38.1026 34.8348 38.1051 34.9913 38.2611C35.0549 38.3245 35.2214 38.4241 35.3611 38.4821C35.6468 38.6012 36.0919 38.9879 36.0919 39.117C36.0919 39.1639 36.1512 39.2243 36.2237 39.2516C36.3973 39.3167 37.2222 40.1378 37.2222 40.2454C37.2222 40.2913 37.2808 40.3512 37.3522 40.3786C37.521 40.4432 37.9756 40.8963 37.9756 41.0001C37.9756 41.044 38.0349 41.1025 38.1075 41.1301C38.2804 41.1955 39.8594 42.7688 39.8594 42.8756C39.8594 42.921 39.918 42.9805 39.9894 43.0079C40.1583 43.0725 40.6128 43.5256 40.6128 43.6294C40.6128 43.6733 40.6637 43.7289 40.726 43.7527C41.2812 43.965 41.5947 45.7388 41.1591 46.2014C41.0658 46.3001 40.9896 46.4117 40.9896 46.449C40.9896 46.4861 40.9226 46.5853 40.8411 46.6695C40.7594 46.7535 40.5925 46.9307 40.4702 47.0628C40.348 47.1953 40.1351 47.3578 39.9973 47.4238C39.5447 47.6406 39.2208 47.825 39.1059 47.9312C39.0436 47.9884 38.8742 48.0804 38.7291 48.1353C38.584 48.1902 38.4315 48.2754 38.3901 48.3245C38.3487 48.3736 38.1852 48.4562 38.0268 48.5083C37.8686 48.5602 37.7223 48.6463 37.7017 48.6996C37.6814 48.7528 37.5141 48.8536 37.3303 48.9236C37.1464 48.9935 36.9962 49.0792 36.9962 49.1139C36.9962 49.1487 36.8776 49.2159 36.7329 49.2636C36.5882 49.3113 36.4442 49.3919 36.4127 49.4428C36.3813 49.4939 36.2478 49.5789 36.1161 49.6319C35.9846 49.6848 35.8183 49.7928 35.7467 49.8717C35.6751 49.9504 35.5584 50.015 35.4876 50.015C35.4168 50.015 35.2711 50.0837 35.1639 50.1679C35.0564 50.252 34.8654 50.3568 34.7392 50.4006C34.6129 50.4445 34.5096 50.5101 34.5096 50.5462C34.5096 50.5822 34.34 50.6846 34.1328 50.7734C33.9256 50.8622 33.7562 50.9593 33.7562 50.989C33.7562 51.0187 33.6211 51.0832 33.4561 51.1327C33.2908 51.1819 33.1202 51.2887 33.0765 51.3698C33.033 51.4511 32.949 51.5174 32.8899 51.5174C32.8308 51.5174 32.7217 51.5806 32.6477 51.6578C32.5735 51.735 32.3859 51.8389 32.2308 51.8888C32.0759 51.9387 31.9233 52.0193 31.8918 52.0677C31.8604 52.1164 31.7161 52.215 31.571 52.2871C31.4259 52.3591 31.2565 52.4512 31.1942 52.4918C31.1321 52.5325 30.9625 52.619 30.8176 52.6841C30.4312 52.8577 30.0719 53.0647 29.922 53.1999C29.8497 53.2652 29.6742 53.3582 29.5317 53.4066C29.3893 53.455 29.1921 53.5569 29.0931 53.6329C28.9943 53.709 28.8733 53.7712 28.8242 53.7712C28.7752 53.7712 28.6613 53.8557 28.5713 53.959C28.4811 54.0623 28.3589 54.1467 28.2996 54.1467C28.2405 54.1467 28.0912 54.2314 27.968 54.3346C27.8449 54.4379 27.7113 54.5224 27.6709 54.5224C27.6309 54.5224 27.5171 54.5852 27.4181 54.6618C27.3193 54.7385 27.1116 54.8422 26.9565 54.8928C26.8015 54.9432 26.6488 55.0262 26.6174 55.077C26.586 55.1282 26.4416 55.2156 26.2967 55.2716C26.1516 55.3277 25.9699 55.4271 25.8931 55.4926C25.6882 55.6672 24.188 55.6647 23.9878 55.4891C23.9107 55.4217 23.763 55.3411 23.6595 55.3099C23.5558 55.2785 23.3751 55.1732 23.258 55.0755C23.1408 54.9778 23.0014 54.8981 22.948 54.8981C22.8946 54.8981 22.7643 54.8301 22.6585 54.7471C22.5528 54.6642 22.364 54.576 22.2392 54.551C22.1144 54.5262 21.9361 54.425 21.8432 54.3264C21.7503 54.2276 21.6308 54.1467 21.5782 54.1467C21.5254 54.1467 21.3907 54.0623 21.2788 53.959C21.1671 53.8557 21.0346 53.7712 20.9845 53.7712C20.9345 53.7712 20.8021 53.6867 20.6903 53.5834C20.5784 53.4801 20.4206 53.3955 20.3394 53.3955C20.2584 53.3955 20.134 53.3282 20.0632 53.2458C19.9926 53.1634 19.8148 53.057 19.6685 53.0095C19.522 52.962 19.3214 52.8604 19.2225 52.7837C19.1237 52.7071 18.9992 52.6443 18.9458 52.6443C18.8924 52.6443 18.748 52.5599 18.6248 52.4565C18.5016 52.3533 18.37 52.2687 18.3323 52.2687C18.2944 52.2687 18.1487 52.1842 18.0083 52.081C17.868 51.9776 17.6968 51.8931 17.628 51.8931C17.5592 51.8931 17.4142 51.8112 17.3059 51.7111C17.1976 51.611 17.0315 51.5048 16.9371 51.4751C16.8425 51.4451 16.7208 51.3581 16.6665 51.2814C16.6125 51.2047 16.5258 51.1419 16.4741 51.1419C16.4222 51.1419 16.2649 51.0573 16.1246 50.9541C15.9842 50.8507 15.8132 50.7662 15.7448 50.7662C15.6765 50.7662 15.5602 50.7 15.4867 50.6189C15.4131 50.5377 15.2298 50.4311 15.0795 50.3817C14.929 50.3323 14.7721 50.2517 14.7307 50.2026C14.6891 50.1535 14.5366 50.0674 14.3915 50.0112C14.2466 49.9552 14.0939 49.8651 14.0525 49.8113C13.9806 49.7178 13.7668 49.5885 13.186 49.2877C13.041 49.2125 12.8952 49.1089 12.8622 49.0574C12.829 49.0057 12.6533 48.9263 12.4717 48.8807C12.2899 48.835 12.1236 48.7516 12.1019 48.695C12.0801 48.6386 11.9507 48.5392 11.8141 48.474C11.6777 48.4088 11.3965 48.2576 11.1893 48.1375C10.9821 48.0175 10.6722 47.8528 10.5006 47.7715C10.329 47.6902 10.1675 47.5894 10.1415 47.5477C10.1157 47.506 9.97258 47.4315 9.8232 47.3825C9.67402 47.3334 9.49638 47.2443 9.42876 47.1844C9.1379 46.9276 8.71295 46.6345 8.63176 46.6345C8.58334 46.6345 8.42869 46.5499 8.28836 46.4467C8.14802 46.3433 7.97679 46.2588 7.90803 46.2588C7.83928 46.2588 7.6948 46.1773 7.58686 46.0778C7.47911 45.978 7.28774 45.874 7.16153 45.8465C7.03532 45.8188 6.93209 45.7635 6.93209 45.7233C6.93209 45.6831 6.81926 45.6032 6.68118 45.5458C6.54329 45.4883 6.38827 45.3906 6.33702 45.329C6.28559 45.2672 6.14827 45.1959 6.03205 45.1706C5.91564 45.1449 5.70786 45.0416 5.57054 44.9402C5.43303 44.8393 5.28478 44.7559 5.24089 44.7551C5.15707 44.7536 4.62078 44.4204 4.28303 44.1597C4.17283 44.0747 4.05227 44.0052 4.01498 44.0052C3.97787 44.0052 3.83244 43.9206 3.6921 43.8174C3.55176 43.714 3.3779 43.6295 3.30614 43.6295C3.23418 43.6295 3.11682 43.5704 3.04543 43.4981C2.91734 43.3687 2.59165 43.1813 1.99563 42.8943C1.82931 42.8141 1.64715 42.6933 1.59083 42.6257C1.53469 42.5581 1.44107 42.5027 1.38287 42.5027C1.32485 42.5027 1.24498 42.4182 1.20561 42.3148C1.16624 42.2116 1.08355 42.1271 1.02176 42.1271C0.959975 42.1271 0.868801 42.051 0.81926 41.958C0.76953 41.8651 0.679112 41.7524 0.61808 41.7075C0.410873 41.5553 0.385819 40.8895 0.381298 35.4325C0.376212 29.2942 0.337218 29.7053 0.94302 29.5059C1.0875 29.4584 1.20561 29.3873 1.20561 29.3477C1.20561 29.3081 1.36591 29.2072 1.562 29.1234C1.7581 29.0397 1.93611 28.9459 1.95759 28.9152C1.97906 28.8844 2.10451 28.8159 2.23619 28.7628C2.36785 28.7097 2.53419 28.6017 2.60578 28.5228C2.67735 28.4441 2.77964 28.3795 2.83295 28.3795C2.88644 28.3795 2.97498 28.3156 3.0298 28.2378C3.08461 28.1597 3.25547 28.061 3.40954 28.0188C3.56363 27.9763 3.7797 27.8712 3.88951 27.7849C3.99933 27.6987 4.13553 27.6283 4.19204 27.6283C4.24856 27.6283 4.3548 27.5692 4.42789 27.4968C4.50097 27.4245 4.79577 27.2472 5.08265 27.1027C5.36973 26.9582 5.65738 26.7853 5.72199 26.7184C5.78661 26.6513 5.96613 26.5558 6.12096 26.506C6.27581 26.4562 6.42141 26.3851 6.44439 26.3478C6.46737 26.3108 6.63748 26.2137 6.82226 26.1322C7.00687 26.0507 7.15813 25.9524 7.15813 25.9139C7.15813 25.8751 7.2574 25.8027 7.37871 25.7525C7.50002 25.7023 7.61588 25.6183 7.63603 25.566C7.65618 25.5136 7.82647 25.4323 8.01466 25.3849C8.20265 25.3378 8.38348 25.2571 8.41664 25.2054C8.4496 25.1539 8.5954 25.0505 8.74045 24.9758C8.88549 24.901 9.1737 24.7419 9.38091 24.6222C9.58811 24.5027 9.86201 24.3545 9.98972 24.293C10.1173 24.2316 10.2642 24.1304 10.316 24.0683C10.3678 24.0058 10.5264 23.9166 10.6684 23.8699C10.8105 23.8234 10.9602 23.7224 11.0013 23.6461C11.0423 23.5695 11.1524 23.4924 11.2456 23.4744C11.339 23.4565 11.4372 23.4372 11.4637 23.4315C11.4905 23.4261 11.5329 23.475 11.5579 23.5403Z" fill="#ADB7D9"/>
<path d="M174.922 14.8047H149.421V20.276H159.106V44.092H164.916V20.276H174.922V14.8047Z" fill="#ADB7D9" stroke="#ADB7D9"/>
<path d="M120.693 14.8047H141.998V19.6323H124.566C124.566 19.6323 123.275 19.6323 123.275 20.276V25.7472C123.275 26.3909 123.921 26.3909 123.921 26.3909H138.447C140.383 26.3909 142.32 27.6782 142.32 29.6093V40.5517C142.32 42.4829 140.707 44.092 138.77 44.092H117.465V38.6207H135.542C135.542 38.6207 136.188 38.2989 136.188 37.6553V32.8276C136.188 32.184 135.542 32.184 135.542 32.184H121.016C118.756 32.184 117.465 30.8967 117.465 28.9655V17.3793C117.465 15.4484 119.402 14.8047 120.693 14.8047Z" fill="#ADB7D9" stroke="#ADB7D9"/>
<path d="M54.8397 19.9541L51.9346 14.8047H73.8852C75.822 14.8047 77.7588 16.4138 77.7588 18.6668V29.9312C77.7588 31.8622 73.8852 32.8276 73.8852 32.8276C73.8852 32.8276 73.2395 32.5058 73.8852 34.115C74.5308 35.7243 77.436 42.4829 77.7588 43.4484C78.0816 44.4138 77.7588 44.4138 77.7588 44.4138H70.6571C70.0115 44.4138 66.4607 33.4713 66.4607 33.4713H57.745V44.4138H51.9346V28.3219H70.6571C71.9483 28.3219 71.9483 27.0345 71.9483 27.0345V20.9196C71.9483 19.9541 70.6571 19.9541 70.6571 19.9541H54.8397Z" fill="#ADB7D9" stroke="#ADB7D9"/>
<path d="M83.8926 39.9081V14.8047H89.703V38.6207H105.198V14.8047H111.008C111.008 14.8047 110.685 37.0116 110.685 39.9081C110.685 42.8047 109.071 44.092 106.489 44.092H87.7661C86.7975 44.092 83.8926 43.1265 83.8926 39.9081Z" fill="#ADB7D9" stroke="#ADB7D9"/>
</g>
<defs>
<clipPath id="clip0_2_2283">
<rect width="175" height="56" fill="white"/>
</clipPath>
</defs>
</svg>
