<svg width="102" height="134" viewBox="0 0 102 134" fill="none" xmlns="http://www.w3.org/2000/svg">
<rect x="1" y="1" width="6" height="6" rx="3" fill="#D9E1FF" stroke="#D9E1FF" stroke-width="2"/>
<rect x="1" y="27.2734" width="6" height="6" rx="3" fill="#D9E1FF" stroke="#D9E1FF" stroke-width="2"/>
<rect x="1" y="53.5469" width="6" height="6" rx="3" fill="#D9E1FF" stroke="#D9E1FF" stroke-width="2"/>
<rect x="1" y="79.8203" width="6" height="6" rx="3" fill="#D9E1FF" stroke="#D9E1FF" stroke-width="2"/>
<rect x="1" y="106.094" width="6" height="6" rx="3" fill="#D9E1FF" stroke="#D9E1FF" stroke-width="2"/>
<rect x="21" y="1" width="6" height="6" rx="3" fill="#D9E1FF" stroke="#D9E1FF" stroke-width="2"/>
<rect x="21" y="27.2734" width="6" height="6" rx="3" fill="#D9E1FF" stroke="#D9E1FF" stroke-width="2"/>
<rect x="21" y="53.5469" width="6" height="6" rx="3" fill="#D9E1FF" stroke="#D9E1FF" stroke-width="2"/>
<rect x="21" y="79.8203" width="6" height="6" rx="3" fill="#D9E1FF" stroke="#D9E1FF" stroke-width="2"/>
<rect x="21" y="106.094" width="6" height="6" rx="3" fill="#D9E1FF" stroke="#D9E1FF" stroke-width="2"/>
<rect x="41" y="1" width="6" height="6" rx="3" fill="#D9E1FF" stroke="#D9E1FF" stroke-width="2"/>
<rect x="41" y="27.2734" width="6" height="6" rx="3" fill="#D9E1FF" stroke="#D9E1FF" stroke-width="2"/>
<rect x="41" y="53.5469" width="6" height="6" rx="3" fill="#D9E1FF" stroke="#D9E1FF" stroke-width="2"/>
<rect x="41" y="79.8203" width="6" height="6" rx="3" fill="#D9E1FF" stroke="#D9E1FF" stroke-width="2"/>
<rect x="41" y="106.094" width="6" height="6" rx="3" fill="#D9E1FF" stroke="#D9E1FF" stroke-width="2"/>
<rect x="61" y="1" width="6" height="6" rx="3" fill="#D9E1FF" stroke="#D9E1FF" stroke-width="2"/>
<rect x="61" y="27.2734" width="6" height="6" rx="3" fill="#D9E1FF" stroke="#D9E1FF" stroke-width="2"/>
<rect x="61" y="53.5469" width="6" height="6" rx="3" fill="#D9E1FF" stroke="#D9E1FF" stroke-width="2"/>
<rect x="61" y="79.8203" width="6" height="6" rx="3" fill="#D9E1FF" stroke="#D9E1FF" stroke-width="2"/>
<rect x="61" y="106.094" width="6" height="6" rx="3" fill="#D9E1FF" stroke="#D9E1FF" stroke-width="2"/>
<rect x="81" y="1" width="6" height="6" rx="3" fill="#D9E1FF" stroke="#D9E1FF" stroke-width="2"/>
<rect x="81" y="27.2734" width="6" height="6" rx="3" fill="#D9E1FF" stroke="#D9E1FF" stroke-width="2"/>
<rect x="81" y="53.5469" width="6" height="6" rx="3" fill="#D9E1FF" stroke="#D9E1FF" stroke-width="2"/>
<rect x="81" y="79.8203" width="6" height="6" rx="3" fill="#D9E1FF" stroke="#D9E1FF" stroke-width="2"/>
<rect x="81" y="106.094" width="6" height="6" rx="3" fill="#D9E1FF" stroke="#D9E1FF" stroke-width="2"/>
</svg>
