<svg width="213" height="56" viewBox="0 0 213 56" fill="none" xmlns="http://www.w3.org/2000/svg">
<path fill-rule="evenodd" clip-rule="evenodd" d="M0 27.8711C0 42.3011 11.7 54.0011 26 54.0011C40.3 54.0011 51.87 42.4311 52 28.2611C52 13.7011 40.43 2.13107 26.13 2.00107C11.7 1.87107 0.13 13.5711 0 27.8711ZM27.6905 29.041L28.4705 24.881L35.3605 25.921L35.8805 23.971L28.7305 22.931C29.1562 21.5932 29.525 20.2554 29.8901 18.9309C30.3055 17.4238 30.7162 15.934 31.2005 14.481C31.5905 13.5711 32.2405 12.6611 32.8905 12.0111C33.8005 11.1011 34.9705 11.2311 35.7505 12.2711C35.9455 12.4661 36.108 12.6611 36.2705 12.8561C36.433 13.0511 36.5955 13.2461 36.7905 13.4411C37.3105 13.961 37.9605 14.091 38.4805 13.7011C38.8705 13.3111 38.8705 12.6611 38.8705 12.1411C38.8705 11.8811 38.6105 11.6211 38.4805 11.4911C37.7005 10.5811 36.5305 10.1911 35.3605 10.1911C32.6305 10.0611 30.8105 11.3611 29.2505 13.4411C27.6905 15.521 27.0405 17.861 26.3905 20.201C26.239 20.5796 26.1317 20.9583 26.0171 21.3627C25.9349 21.6525 25.849 21.9554 25.7405 22.281L18.0705 21.241L17.8105 23.321L25.2205 24.491L24.3105 28.521L17.1605 27.481L16.9005 29.431L23.7905 30.471V30.991C23.2493 33.5888 22.618 36.0964 21.9716 38.664C21.8417 39.1802 21.7111 39.6988 21.5805 40.2211C21.1905 41.6511 20.5405 43.0811 19.3705 44.1211C18.3305 44.9011 17.2905 44.7711 16.5105 43.731C16.2505 43.2111 15.8605 42.6911 15.4705 42.3011C15.0805 42.1711 14.4305 42.0411 14.1705 42.1711C13.7805 42.4311 13.5205 43.0811 13.5205 43.6011C13.5205 43.9911 13.9105 44.5111 14.3005 44.7711C15.4705 45.6811 17.0305 45.8111 18.4605 45.5511C20.9305 45.1611 22.7505 43.6011 23.7905 41.3911C24.5705 39.7011 25.2205 37.8812 25.8705 36.0612C26.2659 35.1121 26.5171 34.0667 26.7702 33.0129C26.9331 32.3346 27.0969 31.6528 27.3005 30.991L34.5805 32.0311L35.1005 30.0811L27.6905 29.041Z" fill="#ADB7D9"/>
<path d="M74.3071 19.03V26.4621H85.5915V30.0809H74.3071V41.1318H70.1436V15.4502H88.7044V19.03H74.3071Z" fill="#ADB7D9"/>
<path d="M95.4482 18.4072C94.5661 18.4072 93.8788 18.1867 93.3858 17.7457C92.893 17.2788 92.6465 16.6302 92.6465 15.8001C92.6465 14.97 92.893 14.3344 93.3858 13.8935C93.8788 13.4524 94.5661 13.2319 95.4482 13.2319C96.3302 13.2319 97.0047 13.4524 97.4716 13.8935C97.9644 14.3344 98.2109 14.97 98.2109 15.8001C98.2109 16.6302 97.9644 17.2788 97.4716 17.7457C97.0047 18.1867 96.3302 18.4072 95.4482 18.4072ZM97.5105 41.1315H93.3469V21.6757H97.5105V41.1315Z" fill="#ADB7D9"/>
<path d="M108.072 35.4507C108.072 36.4105 108.215 37.085 108.5 37.4741C108.785 37.8372 109.317 38.0189 110.095 38.0189C110.588 38.0189 111.003 37.9929 111.34 37.941C111.704 37.8632 112.145 37.7205 112.663 37.513L112.196 40.8594C111.314 41.3004 110.238 41.5209 108.967 41.5209C107.229 41.5209 105.945 41.0799 105.114 40.1979C104.31 39.3159 103.908 37.928 103.908 36.0344V12.9209H108.072V35.4507Z" fill="#ADB7D9"/>
<path d="M133.54 30.82C133.54 31.5723 133.488 32.2857 133.384 32.9601H119.144C119.376 34.6722 119.986 35.9823 120.972 36.8902C121.957 37.7722 123.229 38.2132 124.786 38.2132C126.056 38.2132 127.107 37.9927 127.937 37.5517C128.793 37.0848 129.377 36.4232 129.688 35.5672L133.152 37.0069C131.698 40.0161 128.91 41.5206 124.786 41.5206C121.725 41.5206 119.324 40.6258 117.587 38.8358C115.875 37.0458 115.019 34.5685 115.019 31.4037C115.019 28.2129 115.849 25.7356 117.509 23.9716C119.17 22.1816 121.504 21.2866 124.513 21.2866C127.367 21.2866 129.585 22.1557 131.167 23.8937C132.749 25.6318 133.54 27.9406 133.54 30.82ZM124.513 24.5942C123.008 24.5942 121.79 25.0351 120.855 25.9171C119.947 26.7991 119.376 28.0833 119.144 29.7694H129.649C129.442 28.1351 128.884 26.864 127.976 25.9561C127.094 25.0481 125.94 24.5942 124.513 24.5942Z" fill="#ADB7D9"/>
<path d="M147.317 21.2866C151.572 21.2866 154.387 23.1026 155.762 26.7343L151.871 28.2908C151.196 25.8263 149.679 24.5942 147.317 24.5942C145.58 24.5942 144.231 25.1908 143.271 26.384C142.311 27.5774 141.831 29.2635 141.831 31.4426C141.831 33.6216 142.311 35.2948 143.271 36.4622C144.231 37.6295 145.58 38.2132 147.317 38.2132C148.641 38.2132 149.705 37.8889 150.508 37.2405C151.313 36.5919 151.845 35.658 152.104 34.4388L155.918 35.7229C155.347 37.5387 154.335 38.9656 152.883 40.0032C151.429 41.0148 149.601 41.5206 147.395 41.5206C144.335 41.5206 141.935 40.6258 140.197 38.8358C138.485 37.0458 137.629 34.5685 137.629 31.4037C137.629 28.2389 138.485 25.7615 140.197 23.9716C141.909 22.1816 144.283 21.2866 147.317 21.2866Z" fill="#ADB7D9"/>
<path d="M169.356 21.2866C172.391 21.2866 174.766 22.1816 176.478 23.9716C178.189 25.7615 179.046 28.2389 179.046 31.4037C179.046 34.5685 178.189 37.0458 176.478 38.8358C174.766 40.6258 172.391 41.5206 169.356 41.5206C166.322 41.5206 163.948 40.6258 162.236 38.8358C160.524 37.0458 159.668 34.5685 159.668 31.4037C159.668 28.2389 160.524 25.7615 162.236 23.9716C163.948 22.1816 166.322 21.2866 169.356 21.2866ZM169.356 24.5553C167.593 24.5553 166.231 25.1519 165.271 26.3452C164.337 27.5126 163.871 29.1987 163.871 31.4037C163.871 33.6087 164.337 35.3078 165.271 36.5011C166.231 37.6684 167.593 38.2521 169.356 38.2521C171.121 38.2521 172.482 37.6555 173.442 36.4622C174.403 35.2689 174.883 33.5827 174.883 31.4037C174.883 29.2247 174.403 27.5384 173.442 26.3452C172.482 25.1519 171.121 24.5553 169.356 24.5553Z" fill="#ADB7D9"/>
<path d="M186.495 18.4072C185.614 18.4072 184.926 18.1867 184.433 17.7457C183.94 17.2788 183.693 16.6302 183.693 15.8001C183.693 14.97 183.94 14.3344 184.433 13.8935C184.926 13.4524 185.614 13.2319 186.495 13.2319C187.377 13.2319 188.052 13.4524 188.519 13.8935C189.012 14.3344 189.259 14.97 189.259 15.8001C189.259 16.6302 189.012 17.2788 188.519 17.7457C188.052 18.1867 187.377 18.4072 186.495 18.4072ZM188.558 41.1315H184.394V21.6757H188.558V41.1315Z" fill="#ADB7D9"/>
<path d="M205.54 21.2866C207.693 21.2866 209.444 21.9093 210.793 23.1545C212.167 24.3996 212.855 26.1895 212.855 28.5242V41.1316H208.692V29.8472C208.692 26.423 207.304 24.7109 204.528 24.7109C203.076 24.7109 201.83 25.2168 200.792 26.2284C199.755 27.2143 199.236 28.7447 199.236 30.82V41.1316H195.072V21.6758H198.769L198.964 24.9055C199.612 23.6862 200.507 22.7783 201.649 22.1816C202.79 21.585 204.087 21.2866 205.54 21.2866Z" fill="#ADB7D9"/>
</svg>
