<svg width="44" height="45" viewBox="0 0 44 45" fill="none" xmlns="http://www.w3.org/2000/svg">
<circle cx="22" cy="22.002" r="20" fill="#0053F1" stroke="white" stroke-width="4"/>
<g clip-path="url(#clip0_692_4904)">
<path d="M18.5002 17.1012C18.5002 17.8712 18.0102 18.5012 17.1002 18.5012C16.2602 18.5012 15.7002 17.8712 15.7002 17.1712C15.7002 16.4012 16.2602 15.7012 17.1002 15.7012C17.9402 15.7012 18.5002 16.3312 18.5002 17.1012ZM15.7002 28.3012H18.5002V19.2012H15.7002V28.3012ZM25.2202 19.3412C23.7502 19.3412 22.9102 20.1812 22.5602 20.7412H22.4902L22.3502 19.5512H19.8302C19.8302 20.3212 19.9002 21.2312 19.9002 22.2812V28.3012H22.7002V23.3312C22.7002 23.0512 22.7002 22.8412 22.7702 22.6312C22.9802 22.1412 23.3302 21.5112 24.1002 21.5112C25.0802 21.5112 25.5002 22.3512 25.5002 23.4712V28.3012H28.3002V23.1212C28.3002 20.5312 26.9702 19.3412 25.2202 19.3412Z" fill="white"/>
</g>
<defs>
<clipPath id="clip0_692_4904">
<rect width="14" height="14" fill="white" transform="translate(15 15.002)"/>
</clipPath>
</defs>
</svg>
