<svg width="80" height="80" viewBox="0 0 80 80" fill="none" xmlns="http://www.w3.org/2000/svg">
<path d="M29.375 15.625C22.3114 15.625 16.4024 20.7319 15.2166 27.5L15.0001 27.5C9.47715 27.5 5 31.9772 5 37.5C5 43.0228 9.47715 47.5 15 47.5H32.8883L33.2419 46.4393C33.5813 45.4212 34.1221 44.512 34.8113 43.75H15C11.5482 43.75 8.75 40.9518 8.75 37.5C8.75 34.0482 11.5482 31.25 15 31.25L16.8903 31.2501C17.89 31.2501 18.7139 30.4658 18.7631 29.4673C19.0407 23.8281 23.7051 19.375 29.375 19.375C35.0449 19.375 39.7093 23.8281 39.9869 29.4673C40.0361 30.4658 40.86 31.2501 41.8597 31.2501L43.7501 31.25C46.3129 31.25 48.5155 32.7926 49.4799 35H53.124C53.2295 35 53.3341 35.0037 53.4378 35.0111C52.3316 30.6924 48.4136 27.5 43.75 27.5L43.5334 27.5C42.3476 20.7319 36.4386 15.625 29.375 15.625ZM41.2495 39.375C41.2495 38.3395 42.0889 37.5 43.1245 37.5H53.124C54.1595 37.5 54.999 38.3395 54.999 39.375V49.375C54.999 50.4105 54.1595 51.25 53.124 51.25H43.1245C42.0889 51.25 41.2495 50.4105 41.2495 49.375V47.5H40.4417C39.8653 47.5 39.3535 47.8689 39.1712 48.4158L36.8864 55.2701C36.1937 57.3483 34.2489 58.75 32.0583 58.75H29.9995V63.125C29.9995 64.1605 29.16 65 28.1245 65H18.125C17.0895 65 16.25 64.1605 16.25 63.125V53.125C16.25 52.0895 17.0895 51.25 18.125 51.25H28.1245C29.16 51.25 29.9995 52.0895 29.9995 53.125V55H32.0583C32.6347 55 33.1465 54.6311 33.3288 54.0842L35.6136 47.2299C36.3063 45.1517 38.2511 43.75 40.4417 43.75H41.2495V39.375ZM44.9995 45.6698V47.5H51.249V41.25H44.9995V45.5802C44.9998 45.5951 45 45.61 45 45.625C45 45.64 44.9998 45.6549 44.9995 45.6698ZM20 55V61.25H26.2495V55H20Z" fill="#0053F1"/>
</svg>
