<svg width="80" height="80" viewBox="0 0 80 80" fill="none" xmlns="http://www.w3.org/2000/svg">
<path d="M26.2966 20.6271C28.6947 19.791 31.3053 19.791 33.7034 20.627C33.7929 20.6564 33.8822 20.6869 33.9711 20.7185L48.7581 25.9654C49.6968 26.2985 50.5378 26.8057 51.25 27.443V26.4052C51.25 24.2884 49.917 22.401 47.9221 21.6931L35.0161 17.1136C31.7712 15.9621 28.2288 15.9621 24.9839 17.1136L12.0779 21.6931C10.083 22.401 8.75 24.2884 8.75 26.4052V27.443C9.46222 26.8057 10.3032 26.2985 11.2419 25.9654L26.0289 20.7185C26.1178 20.6869 26.2071 20.6564 26.2966 20.6271ZM16.1236 35.2779C16.4699 34.302 17.5417 33.7916 18.5176 34.1379L30 38.2123L41.4824 34.1379C42.4583 33.7916 43.5301 34.302 43.8764 35.2779C44.2227 36.2538 43.7123 37.3257 42.7364 37.672L31.875 41.526V53.3268C31.875 54.3624 31.0355 55.2018 30 55.2018C28.9645 55.2018 28.125 54.3624 28.125 53.3268V41.526L17.2636 37.672C16.2877 37.3257 15.7773 36.2538 16.1236 35.2779ZM26.8649 23.0739C28.893 22.3543 31.107 22.3543 33.1351 23.0739L47.9221 28.3209C49.917 29.0288 51.25 30.9162 51.25 33.033V53.619C51.25 55.7358 49.917 57.6232 47.9221 58.3311L33.1351 63.5781C31.107 64.2978 28.893 64.2978 26.8649 63.5781L12.078 58.3311C10.083 57.6232 8.75 55.7358 8.75 53.619V33.033C8.75 30.9162 10.083 29.0288 12.0779 28.3209L26.8649 23.0739ZM31.8811 26.608C30.6642 26.1762 29.3358 26.1762 28.1189 26.608L13.332 31.855C12.8332 32.032 12.5 32.5038 12.5 33.033V53.619C12.5 54.1482 12.8333 54.62 13.332 54.797L28.1189 60.044C29.3358 60.4758 30.6642 60.4758 31.8811 60.044L46.668 54.797C47.1668 54.62 47.5 54.1482 47.5 53.619V33.033C47.5 32.5038 47.1668 32.032 46.668 31.855L31.8811 26.608Z" fill="#0053F1"/>
</svg>
