<svg width="80" height="80" viewBox="0 0 80 80" fill="none" xmlns="http://www.w3.org/2000/svg">
<path d="M29.35 54.3749H44.15C43.925 54.5749 43.7 54.7499 43.475 54.9499L32.8 62.9499C29.275 65.5749 23.525 65.5749 19.975 62.9499L9.27502 54.9499C6.92502 53.1999 5 49.3249 5 46.3999V27.8749C5 24.8249 7.32502 21.4499 10.175 20.3749L22.625 15.6999C24.675 14.9249 28.075 14.9249 30.125 15.6999L42.55 20.3749C44.925 21.2749 46.95 23.7749 47.575 26.3249H29.325C28.775 26.3249 28.275 26.3499 27.8 26.3499C23.175 26.6249 21.975 28.2999 21.975 33.5749V47.1499C22 52.8999 23.475 54.3749 29.35 54.3749Z" stroke="#0053F1" stroke-width="3" stroke-linecap="round" stroke-linejoin="round"/>
<path d="M22 38.0498H55" stroke="#0053F1" stroke-width="3" stroke-miterlimit="10" stroke-linecap="round" stroke-linejoin="round"/>
<path d="M55 33.5499V47.4249C54.95 52.9749 53.425 54.3499 47.65 54.3499H29.35C23.475 54.3499 22 52.8749 22 47.0999V33.5249C22 28.2749 23.2 26.5999 27.825 26.2999C28.3 26.2999 28.8 26.2749 29.35 26.2749H47.65C53.525 26.2999 55 27.7499 55 33.5499Z" stroke="#0053F1" stroke-width="3" stroke-linecap="round" stroke-linejoin="round"/>
<path d="M28.2998 48.1499H31.6248" stroke="#0053F1" stroke-width="3" stroke-miterlimit="10" stroke-linecap="round" stroke-linejoin="round"/>
<path d="M36.875 48.1499H45.05" stroke="#0053F1" stroke-width="3" stroke-miterlimit="10" stroke-linecap="round" stroke-linejoin="round"/>
</svg>
