<svg width="80" height="80" viewBox="0 0 80 80" fill="none" xmlns="http://www.w3.org/2000/svg">
<path d="M23.9248 41.1499L16.2998 48.7749" stroke="#0053F1" stroke-width="3" stroke-miterlimit="10" stroke-linecap="round" stroke-linejoin="round"/>
<path d="M16.375 41.2251L24 48.8501" stroke="#0053F1" stroke-width="3" stroke-miterlimit="10" stroke-linecap="round" stroke-linejoin="round"/>
<path d="M33.8252 45H33.8523" stroke="#0053F1" stroke-width="2" stroke-miterlimit="10" stroke-linecap="round" stroke-linejoin="round"/>
<path d="M43.6748 45H43.7019" stroke="#0053F1" stroke-width="2" stroke-miterlimit="10" stroke-linecap="round" stroke-linejoin="round"/>
<path d="M38.75 49.9541V49.8999" stroke="#0053F1" stroke-width="2" stroke-miterlimit="10" stroke-linecap="round" stroke-linejoin="round"/>
<path d="M38.75 40.104V40.0498" stroke="#0053F1" stroke-width="2" stroke-miterlimit="10" stroke-linecap="round" stroke-linejoin="round"/>
<path d="M22.5 65H37.5C50 65 55 60 55 47.5V42.5C55 30 50 25 37.5 25H22.5C10 25 5 30 5 42.5V47.5C5 60 10 65 22.5 65Z" stroke="#0053F1" stroke-width="3" stroke-linecap="round" stroke-linejoin="round"/>
<path d="M32.5252 15L32.5002 17.525C32.4752 18.9 31.3752 20 30.0002 20H29.9252C28.5502 20 27.4502 21.125 27.4502 22.5C27.4502 23.875 28.5752 25 29.9502 25H32.4502" stroke="#0053F1" stroke-width="3" stroke-linecap="round" stroke-linejoin="round"/>
</svg>
