<svg width="80" height="80" viewBox="0 0 80 80" fill="none" xmlns="http://www.w3.org/2000/svg">
<path d="M52.2746 37.7998C52.2746 50.0248 43.3996 61.4747 31.2746 64.8247C30.4496 65.0497 29.5496 65.0497 28.7246 64.8247C16.5996 61.4747 7.72461 50.0248 7.72461 37.7998V26.8247C7.72461 24.7747 9.27465 22.4497 11.1996 21.6747L25.1246 15.9748C28.2496 14.6998 31.7746 14.6998 34.8996 15.9748L48.8246 21.6747C50.7246 22.4497 52.2997 24.7747 52.2997 26.8247L52.2746 37.7998Z" stroke="#0053F1" stroke-width="3" stroke-linecap="round" stroke-linejoin="round"/>
<path d="M30 41.25C32.7614 41.25 35 39.0114 35 36.25C35 33.4886 32.7614 31.25 30 31.25C27.2386 31.25 25 33.4886 25 36.25C25 39.0114 27.2386 41.25 30 41.25Z" stroke="#0053F1" stroke-width="3" stroke-miterlimit="10" stroke-linecap="round" stroke-linejoin="round"/>
<path d="M30 41.25V48.75" stroke="#0053F1" stroke-width="3" stroke-miterlimit="10" stroke-linecap="round" stroke-linejoin="round"/>
</svg>
