<svg width="80" height="80" viewBox="0 0 80 80" fill="none" xmlns="http://www.w3.org/2000/svg">
<path d="M27.0472 12.1319L27.061 12.1524C28.0269 12.0516 29.0074 12 30 12C45.464 12 58 24.536 58 40C58 55.464 45.464 68 30 68C21.014 68 13.0167 63.767 7.89333 57.1862L7.88614 57.1846L7.88748 57.1787C4.19756 52.4359 2 46.4746 2 40C2 25.5465 12.9513 13.6508 27.0088 12.1579L27.0472 12.1319ZM30 16.2C29.851 16.2 29.7022 16.2014 29.5538 16.2041C29.8971 16.8878 30.2656 17.6961 30.6002 18.585C31.5716 21.1658 32.4645 24.9721 30.8801 28.346C29.4168 31.4619 26.8908 32.2681 25.0277 32.7494L24.7907 32.8106C22.9529 33.2843 22.2463 33.4665 21.7308 34.2491C21.2576 34.9674 21.3293 35.8796 21.9027 37.7479C21.943 37.8792 21.9866 38.0181 22.032 38.163C22.2591 38.8865 22.5329 39.7586 22.6756 40.5788C22.8531 41.5992 22.9032 42.8963 22.2498 44.1502C21.6017 45.394 20.7425 46.2418 19.7274 46.7949C18.7738 47.3143 17.7862 47.5113 17.0473 47.6424L16.787 47.6883C15.3454 47.942 14.6558 48.0634 13.9841 48.7829C13.4628 49.3414 13.1263 50.3279 12.9298 51.8017C12.8498 52.4016 12.8017 52.9963 12.7519 53.6111L12.7252 53.9391C12.6693 54.6175 12.5999 55.3983 12.4474 56.0687L12.4465 56.0724C16.7977 60.8219 23.051 63.8 30 63.8C34.4156 63.8 38.5504 62.5975 42.0947 60.5021C41.8194 60.2217 41.5204 59.8923 41.2256 59.521C40.275 58.3243 39.0282 56.2626 39.4605 53.8292C39.6685 52.659 40.2957 51.6794 40.9018 50.9281C41.5193 50.1625 42.2647 49.4553 42.9165 48.8554C43.0714 48.7128 43.2198 48.5773 43.3621 48.4474C43.8612 47.9917 44.2851 47.6046 44.648 47.2244C45.1318 46.7176 45.2371 46.4891 45.2426 46.4771C45.4328 45.8481 45.1996 45.4023 44.9456 45.2058C44.8179 45.1071 44.6467 45.0356 44.4141 45.0337C44.1794 45.0319 43.799 45.1023 43.291 45.4241C42.7038 45.796 41.8496 46.0256 40.9509 45.6637C40.2022 45.3623 39.7874 44.7853 39.5882 44.4559C39.1853 43.7898 38.9589 42.9265 38.8115 42.2935C38.6978 41.8053 38.5893 41.2509 38.4903 40.745C38.4507 40.5425 38.4126 40.3478 38.3763 40.1683C38.2349 39.4687 38.1154 38.969 38.0008 38.6586C37.9992 38.6546 37.985 38.6203 37.947 38.5509C37.9058 38.4755 37.8474 38.3787 37.7677 38.2574C37.6053 38.0104 37.3932 37.72 37.1302 37.3715C37.0347 37.245 36.932 37.1104 36.8244 36.9693C36.3734 36.378 35.8359 35.6733 35.3787 34.9767C34.8305 34.1413 34.2108 33.0495 34.0149 31.8852C33.9111 31.2681 33.9128 30.5554 34.1688 29.8315C34.431 29.0902 34.9097 28.4805 35.5312 28.0143C36.8848 26.9991 38.8731 24.7311 40.6366 22.529C41.4418 21.5234 42.1614 20.5813 42.6972 19.8663C39.0226 17.544 34.6683 16.2 30 16.2ZM46.0366 22.4138C45.4835 23.1514 44.7442 24.1188 43.9149 25.1543C42.2301 27.2582 39.9967 29.8719 38.1763 31.2791C38.2473 31.5559 38.457 32.0124 38.8901 32.6724C39.2573 33.2318 39.6769 33.7825 40.1195 34.3634C40.2387 34.5199 40.3605 34.6796 40.4824 34.8412C40.9652 35.4807 41.6341 36.3731 41.9408 37.2039C42.1822 37.8577 42.3555 38.656 42.493 39.3359C42.5415 39.5757 42.5863 39.805 42.6295 40.0257C42.7009 40.3908 42.7677 40.7326 42.8389 41.0601C44.5237 40.5793 46.2039 40.8696 47.5148 41.8833C49.2189 43.201 49.9304 45.485 49.2631 47.6921C48.957 48.7048 48.244 49.54 47.6862 50.1244C47.213 50.6201 46.6458 51.1375 46.1315 51.6066C46.0042 51.7227 45.8794 51.8366 45.7608 51.9457C45.117 52.5383 44.5754 53.0635 44.1707 53.5652C43.7546 54.081 43.6243 54.4032 43.5958 54.564C43.487 55.1758 43.7849 55.9905 44.5143 56.9088C44.8451 57.3251 45.1973 57.6759 45.4705 57.9241C45.5028 57.9534 45.5337 57.981 45.5631 58.0069C50.608 53.6428 53.8 47.1942 53.8 40C53.8 33.0336 50.8069 26.7662 46.0366 22.4138ZM6.2 40C6.2 43.9154 7.14548 47.61 8.82058 50.8679C9.05826 49.3071 9.55425 47.3735 10.9139 45.9169C12.5934 44.1177 14.6536 43.7803 15.9487 43.5683C16.0783 43.547 16.2009 43.5269 16.314 43.5069C17.0075 43.3839 17.4086 43.2753 17.718 43.1067C17.9659 42.9717 18.2439 42.749 18.5252 42.2092C18.5669 42.1293 18.6437 41.9081 18.5377 41.2987C18.4469 40.7769 18.2767 40.2312 18.054 39.5171C18.0015 39.3487 17.9455 39.1691 17.8875 38.9801C17.369 37.2907 16.5404 34.4937 18.2233 31.9388C19.6839 29.7213 22.0332 29.1544 23.5245 28.7946C23.6862 28.7555 23.8378 28.719 23.9771 28.683C25.5532 28.2757 26.4503 27.8982 27.0784 26.5607C27.9054 24.7996 27.5496 22.4029 26.6694 20.0645C26.2521 18.9558 25.7625 17.9815 25.3747 17.2823C25.2529 17.0628 25.1424 16.8724 25.0488 16.7157C14.2807 18.9942 6.2 28.5534 6.2 40Z" fill="#0053F1"/>
</svg>
