<svg width="140" height="56" viewBox="0 0 140 56" fill="none" xmlns="http://www.w3.org/2000/svg">
<path fill-rule="evenodd" clip-rule="evenodd" d="M19.7743 35.8595L19.7308 35.8597C18.3008 35.8597 16.9615 35.4607 15.828 34.7689C12.6455 36.6143 10.2529 37.9935 8.65005 38.9066C8.32378 39.0921 8.21444 39.3026 8.2177 39.6747C8.23827 41.7576 6.6548 43.4271 4.57401 43.4426C2.20131 43.4603 0.734203 41.473 0.826491 39.533C0.906245 37.8766 2.32496 35.9701 4.65778 36.0298C5.35898 36.0486 5.99975 36.2901 6.60137 36.6534C6.72928 36.7306 6.9738 36.7454 7.09969 36.674C7.38148 36.5135 7.66312 36.3529 7.94464 36.1919L7.94827 36.2168L13.7493 32.8675C12.8877 31.6976 12.3789 30.2623 12.3789 28.7045C12.3789 26.689 13.2308 24.8778 14.5975 23.5817L9.6178 20.7016L9.58763 20.7541C8.78935 20.2922 7.9917 19.8294 7.19524 19.3646C6.93668 19.2137 6.76213 19.2263 6.50983 19.3866C4.27382 20.8081 1.31002 19.4928 0.868118 16.8943C0.521538 14.8594 1.85472 12.9584 3.95431 12.6127C6.09453 12.2608 7.86761 13.7782 8.15525 15.5921C8.16276 15.6395 8.17185 15.6872 8.18097 15.7352C8.21025 15.8891 8.23988 16.0446 8.21844 16.192C8.14824 16.6774 8.35137 16.9336 8.77244 17.1725C10.3892 18.0908 12.0002 19.0191 13.6112 19.9474C14.7978 20.6312 15.9845 21.315 17.1735 21.9947C17.4751 21.8857 17.7857 21.7954 18.1042 21.7254C19.348 19.9103 21.31 18.6579 23.5359 18.2887V11.1578H23.4818C23.4833 10.2177 23.4855 9.27745 23.4884 8.3372C23.4895 8.02807 23.3324 7.91992 23.1073 7.79696C21.6411 6.99526 21.0335 5.56751 21.1555 4.28228C21.3143 2.61666 22.217 1.4722 23.8362 0.978633C25.6154 0.436389 27.5122 1.3515 28.2548 3.06455C28.9912 4.7628 28.3795 6.75438 26.7701 7.67952C26.3213 7.93749 26.2095 8.21526 26.212 8.69452C26.2259 11.2832 26.2245 13.872 26.2231 16.4607C26.2228 17.0663 26.2225 17.6719 26.2224 18.2775C28.7332 18.6726 30.8727 20.1845 32.0716 22.2858L38.8753 18.343L38.8748 18.3421C39.618 17.9145 40.3618 17.4879 41.1059 17.0618C41.3944 16.8967 41.4841 16.7123 41.4811 16.3889C41.4599 14.4901 42.6202 13.0458 44.4673 12.6365C46.5722 12.1703 48.6795 13.7773 48.8593 15.9269C49.0245 17.9083 47.6809 19.587 45.8268 19.9122C44.8743 20.0791 43.9664 19.9071 43.1565 19.3633C42.9295 19.2107 42.7724 19.2129 42.541 19.3466C42.246 19.5179 41.9509 19.689 41.656 19.86L36.3181 22.9419C35.5149 23.4039 34.7114 23.8651 33.9076 24.3257C33.8664 24.3495 33.8299 24.3731 33.798 24.397L33.7746 24.4106C35.6072 25.4822 36.8421 27.4426 36.8421 29.7013C36.8421 30.8393 36.5274 31.9048 35.9787 32.819L36.6393 33.201C36.6828 33.2617 36.7517 33.3167 36.8508 33.373C38.7519 34.4557 40.6451 35.5523 42.5338 36.6563C42.7847 36.8034 42.9547 36.7638 43.19 36.6186C45.422 35.2392 48.1852 36.3909 48.7933 38.9432C49.3008 41.0731 47.7511 43.1794 45.564 43.412C43.3362 43.6495 41.4256 41.8585 41.4832 39.6658C41.4928 39.2875 41.368 39.0853 41.045 38.9024C40.8716 38.8039 40.6984 38.7053 40.525 38.6065L40.5506 38.5867L34.0521 34.8202C33.2244 35.3636 32.2575 35.7195 31.2145 35.8261C31.0762 35.8483 30.9355 35.8597 30.794 35.8597H26.2746V36.4338C26.2363 36.4954 26.2168 36.5793 26.2168 36.697C26.2252 40.3605 26.2245 44.0247 26.2168 47.6889C26.216 47.9509 26.3336 48.0702 26.5467 48.179C28.1177 48.987 28.7053 50.6003 28.5419 51.8226C28.3008 53.6248 27.1743 54.7962 25.4594 55.1313C23.5128 55.5122 21.4956 54.0288 21.1922 52.0642C20.9306 50.3734 21.8895 48.7922 23.1599 48.1795C23.4024 48.0633 23.4861 47.9118 23.4858 47.6455C23.4792 43.8731 23.4784 40.1016 23.4867 36.3289C23.4867 36.2806 23.4864 36.1242 23.4856 35.8597H19.7853L19.7743 35.8595ZM47.06 20.8281C47.0592 20.519 47.1532 20.3539 47.4243 20.1919C48.8932 19.3106 49.6544 18.0031 49.6992 16.2486C49.6926 16.1696 49.6886 16.087 49.6844 16.0025C49.6748 15.8053 49.6646 15.5968 49.6207 15.3957C48.9544 12.3048 45.6356 10.8078 42.8986 12.3698C42.6103 12.5334 42.4091 12.5268 42.1322 12.3657C38.1025 10.0287 34.0701 7.69559 30.0264 5.38057C29.5887 5.13016 29.3815 4.89153 29.3815 4.32871C29.3815 4.14794 29.3607 4.03747 29.3391 3.92286C29.33 3.87455 29.3208 3.8255 29.313 3.77015C29.0212 1.74018 27.0975 0.0421888 25.0416 0.0010374C22.4036 -0.0524084 20.322 1.96552 20.3152 4.60146C20.3145 4.89855 20.2161 5.06491 19.9641 5.20995C15.7968 7.60677 11.6326 10.0091 7.47186 12.4182C7.25569 12.5429 7.09793 12.5471 6.88552 12.4112C5.97114 11.8271 4.95194 11.6343 3.89513 11.7846C1.92344 12.0657 0.408433 13.5037 0.0763865 15.4639C-0.257911 17.4371 0.56091 19.1946 2.30138 20.2062C2.56446 20.3589 2.63919 20.529 2.63894 20.8166C2.63141 25.6025 2.6294 30.3881 2.64194 35.1746C2.64246 35.5096 2.51855 35.6726 2.24469 35.8344C0.511002 36.8551 -0.27747 38.6673 0.0874244 40.6054C0.665738 43.6735 4.14115 45.2478 6.86796 43.6054C7.09594 43.4674 7.27348 43.4685 7.49945 43.6001C11.6725 46.0143 15.8474 48.4248 20.0257 50.8297C20.2432 50.9558 20.3109 51.1055 20.3169 51.3502C20.325 51.7112 20.3514 52.0801 20.4295 52.4329C20.9402 54.7276 23.0297 56.2135 25.3931 55.9749C27.6121 55.7515 29.3884 53.7477 29.3842 51.445C29.3835 51.1159 29.489 50.9376 29.7708 50.7753C33.8923 48.4073 38.009 46.0304 42.1211 43.6471C42.3955 43.489 42.6017 43.4574 42.8944 43.6366C43.8544 44.2259 44.9154 44.3922 46.0108 44.1833C47.9003 43.8242 49.3589 42.3246 49.6515 40.4987C49.9568 38.5936 49.0969 36.781 47.3975 35.7985C47.1338 35.6466 47.0607 35.4733 47.0611 35.1857C47.0684 30.4007 47.0692 25.6143 47.06 20.8281ZM45.1772 38.6934C44.5779 38.692 44.1403 39.1347 44.1403 39.7443C44.1405 40.3397 44.6002 40.8061 45.1858 40.8061C45.7328 40.8051 46.2581 40.28 46.2519 39.7369C46.2461 39.1728 45.7544 38.6965 45.1772 38.6934ZM24.8522 3.48887C24.2578 3.48937 23.7978 3.94479 23.7956 4.53496C23.7938 5.09678 24.2872 5.5931 24.8541 5.59862C25.412 5.60566 25.9077 5.1033 25.9063 4.53522C25.904 3.94279 25.4475 3.48837 24.8522 3.48887ZM4.51232 40.8061C5.09489 40.8109 5.5586 40.3435 5.56085 39.7486C5.56312 39.1389 5.12776 38.6938 4.52912 38.6934C3.9513 38.6934 3.44772 39.1786 3.45049 39.7327C3.45299 40.2872 3.96184 40.8009 4.51232 40.8061ZM25.906 51.4813C25.9088 50.8929 25.4576 50.4411 24.8637 50.437C24.2675 50.4325 23.8025 50.8769 23.7956 51.46C23.7891 52.0465 24.2456 52.5016 24.8424 52.5047C25.4443 52.5085 25.9021 52.067 25.906 51.4813ZM3.45073 16.287C3.46855 16.8688 3.93901 17.3077 4.5409 17.3024C5.15008 17.2969 5.57013 16.864 5.56085 16.2502C5.55209 15.639 5.12173 15.2259 4.5023 15.2353C3.90892 15.2439 3.43292 15.7199 3.45073 16.287ZM44.1403 16.252C44.1343 16.8661 44.5557 17.2997 45.1643 17.304C45.7621 17.3082 46.2357 16.8638 46.2498 16.2862C46.264 15.7161 45.7912 15.2442 45.1973 15.2361C44.5779 15.228 44.1463 15.6425 44.1403 16.252ZM14.9332 28.7045C14.9332 31.2454 17.0812 33.3053 19.7308 33.3053C19.7467 33.3053 19.7627 33.3053 19.7786 33.305C19.7809 33.3053 19.783 33.3053 19.7853 33.3053H30.794C30.8096 33.3053 30.8243 33.3017 30.8372 33.2952C32.7668 33.1565 34.2877 31.6004 34.2877 29.7013C34.2877 27.711 32.6171 26.0974 30.5563 26.0974H30.5466C30.5042 23.1259 27.9978 20.7298 24.9121 20.7298C22.5586 20.7298 20.5419 22.1238 19.6986 24.1038C17.0639 24.1205 14.9332 26.1738 14.9332 28.7045ZM130.178 23.1122H135.774V30.2815C135.774 32.2533 134.899 33.1053 133.488 33.1053C132.297 33.1053 131.349 32.4723 130.377 31.4012L128.018 34.0303C129.184 35.4178 130.936 36.5862 133.585 36.5862C137.183 36.5862 139.617 34.5901 139.617 30.452V19.3032H135.774H130.178V23.1122ZM66.3933 36.5862C70.0657 36.5862 72.6437 34.6893 72.6437 31.3088V31.2601C72.6437 28.2931 70.6981 27.0528 67.2445 26.1529C64.3017 25.399 63.572 25.0342 63.572 23.9154V23.8667C63.572 23.0399 64.3259 22.3833 65.7609 22.3833C67.1959 22.3833 68.6795 23.0155 70.1874 24.0614L72.133 21.2402C70.4062 19.854 68.2904 19.0758 65.8096 19.0758C62.3316 19.0758 59.8508 21.1186 59.8508 24.2073V24.2559C59.8508 27.6363 62.0641 28.5848 65.4933 29.4603C68.3389 30.1899 68.9226 30.6763 68.9226 31.6249V31.6736C68.9226 32.6706 67.9985 33.2787 66.4662 33.2787C64.5204 33.2787 62.9153 32.4762 61.383 31.2115L59.1699 33.8624C61.2129 35.6863 63.8153 36.5862 66.3933 36.5862ZM83.3845 22.7631H88.5624V19.3032H74.463V22.7631H79.6409V36.3587H83.3845V22.7631ZM99.1409 36.6431C104.406 36.6431 108.233 32.6752 108.233 27.8311V27.7823C108.233 22.9382 104.455 19.019 99.1897 19.019C93.9244 19.019 90.0975 22.9867 90.0975 27.8311V27.8796C90.0975 32.7239 93.8756 36.6431 99.1409 36.6431ZM104.31 27.8311V27.8795C104.31 30.7945 102.213 33.1751 99.1897 33.1751C96.166 33.1751 94.0202 30.7459 94.0202 27.8311V27.7824C94.0202 24.8674 96.1173 22.4868 99.1409 22.4868C102.165 22.4868 104.31 24.916 104.31 27.8311ZM121.761 36.3587H126.142L121.98 30.2674C124.146 29.4635 125.631 27.7335 125.631 24.9802V24.9314C125.631 21.423 123.222 19.3032 119.205 19.3032H111.417V36.3587H115.165V30.901H118.11L121.761 36.3587ZM121.82 25.1467V25.1954C121.82 26.6306 120.777 27.6036 118.956 27.6036H115.169V22.7143H118.883C120.704 22.7143 121.82 23.5412 121.82 25.1467Z" fill="#ADB7D9"/>
</svg>
