<svg width="240" height="56" viewBox="0 0 240 56" fill="none" xmlns="http://www.w3.org/2000/svg">
<g clip-path="url(#clip0_2_2310)">
<path d="M81.6623 30.7865C78.2761 29.8158 75.8081 28.6266 74.259 27.2185C72.7237 25.7967 71.9557 24.0471 71.9557 21.9692C71.9557 19.6179 72.8951 17.6767 74.7733 16.1457C76.6653 14.601 79.1189 13.8286 82.1348 13.8286C84.1913 13.8286 86.0215 14.225 87.6255 15.0179C89.2431 15.8108 90.4911 16.9044 91.3682 18.2988C92.2597 19.6931 92.7048 21.2173 92.7048 22.8714H88.7357C88.7357 21.0669 88.1603 19.6521 87.009 18.6268C85.857 17.5879 84.2324 17.0685 82.1348 17.0685C80.1886 17.0685 78.6663 17.499 77.5698 18.3603C76.487 19.2078 75.9453 20.3903 75.9453 21.9077C75.9453 23.1243 76.4596 24.1564 77.4875 25.0038C78.5298 25.8379 80.2908 26.6035 82.7725 27.3006C85.2679 27.9977 87.2147 28.77 88.6129 29.6176C90.0249 30.4514 91.0665 31.429 91.7385 32.55C92.4236 33.671 92.7665 34.9901 92.7665 36.5073C92.7665 38.9271 91.8208 40.8681 89.9289 42.3309C88.0369 43.7799 85.5072 44.5045 82.3405 44.5045C80.2846 44.5045 78.3652 44.115 76.583 43.3358C74.8008 42.5429 73.4231 41.4629 72.4494 40.0958C71.49 38.7289 71.01 37.1772 71.01 35.4412H74.979C74.979 37.2456 75.6436 38.6741 76.9738 39.7269C78.3172 40.7657 80.1063 41.285 82.3405 41.285C84.4244 41.285 86.0215 40.8614 87.1318 40.0138C88.2426 39.1664 88.7974 38.0112 88.7974 36.5485C88.7974 35.0858 88.2838 33.9579 87.2552 33.165C86.2273 32.3585 84.3627 31.5657 81.6623 30.7865Z" fill="#ADB7D9"/>
<path d="M117.69 17.4786H108.066V44.0944H104.139V17.4786H94.5352V14.2388H117.69V17.4786Z" fill="#ADB7D9"/>
<path d="M132.691 32.0168H125.659V44.0944H121.69V14.2388H131.602C134.974 14.2388 137.565 15.0043 139.375 16.5353C141.198 18.0664 142.11 20.2946 142.11 23.2201C142.11 25.0793 141.602 26.699 140.588 28.0799C139.587 29.4604 138.189 30.4926 136.393 31.1762L143.426 43.8484V44.0944H139.19L132.691 32.0168ZM125.659 28.7976H131.725C133.686 28.7976 135.242 28.2917 136.393 27.28C137.558 26.2684 138.141 24.9152 138.141 23.2201C138.141 21.3746 137.586 19.9597 136.475 18.9755C135.379 17.9912 133.788 17.4922 131.704 17.4786H125.659V28.7976Z" fill="#ADB7D9"/>
<path d="M165.038 36.3025H152.493L149.676 44.0944H145.604L157.038 14.2388H160.493L171.947 44.0944H167.896L165.038 36.3025ZM153.687 33.0627H163.866L158.765 19.0985L153.687 33.0627Z" fill="#ADB7D9"/>
<path d="M191.044 17.4786H181.421V44.0944H177.493V17.4786H167.889V14.2388H191.044V17.4786Z" fill="#ADB7D9"/>
<path d="M215.415 30.1303C215.415 33.0556 214.922 35.6121 213.935 37.7992C212.948 39.9728 211.55 41.6337 209.74 42.782C207.93 43.9302 205.819 44.5045 203.407 44.5045C201.048 44.5045 198.957 43.9302 197.134 42.782C195.311 41.6201 193.892 39.9728 192.878 37.8403C191.877 35.6941 191.362 33.2129 191.335 30.3968V28.2438C191.335 25.3731 191.835 22.8373 192.837 20.6363C193.837 18.4355 195.249 16.754 197.072 15.5921C198.909 14.4164 201.007 13.8286 203.365 13.8286C205.764 13.8286 207.876 14.4096 209.699 15.5716C211.536 16.7198 212.948 18.3944 213.935 20.5953C214.922 22.7826 215.415 25.3319 215.415 28.2438V30.1303ZM211.488 28.2028C211.488 24.6621 210.775 21.9487 209.349 20.0622C207.924 18.1621 205.929 17.2119 203.365 17.2119C200.87 17.2119 198.903 18.1621 197.463 20.0622C196.038 21.9487 195.304 24.5733 195.263 27.9362V30.1303C195.263 33.5616 195.983 36.2613 197.422 38.2299C198.875 40.1846 200.87 41.162 203.407 41.162C205.956 41.162 207.93 40.2395 209.329 38.3939C210.727 36.5349 211.447 33.8758 211.488 30.4174V28.2028Z" fill="#ADB7D9"/>
<path d="M228.896 30.7865C225.51 29.8158 223.042 28.6266 221.493 27.2185C219.957 25.7967 219.19 24.0471 219.19 21.9692C219.19 19.6179 220.129 17.6767 222.007 16.1457C223.899 14.601 226.353 13.8286 229.369 13.8286C231.425 13.8286 233.256 14.225 234.86 15.0179C236.477 15.8108 237.725 16.9044 238.602 18.2988C239.493 19.6931 239.939 21.2173 239.939 22.8714H235.97C235.97 21.0669 235.394 19.6521 234.242 18.6268C233.091 17.5879 231.467 17.0685 229.369 17.0685C227.422 17.0685 225.9 17.499 224.804 18.3603C223.72 19.2078 223.179 20.3903 223.179 21.9077C223.179 23.1243 223.693 24.1564 224.722 25.0038C225.763 25.8379 227.525 26.6035 230.006 27.3006C232.501 27.9977 234.448 28.77 235.846 29.6176C237.258 30.4514 238.301 31.429 238.972 32.55C239.658 33.671 240.001 34.9901 240.001 36.5073C240.001 38.9271 239.054 40.8681 237.162 42.3309C235.27 43.7799 232.741 44.5045 229.575 44.5045C227.518 44.5045 225.599 44.115 223.816 43.3358C222.034 42.5429 220.657 41.4629 219.684 40.0958C218.724 38.7289 218.244 37.1772 218.244 35.4412H222.213C222.213 37.2456 222.878 38.6741 224.207 39.7269C225.551 40.7657 227.34 41.285 229.575 41.285C231.658 41.285 233.256 40.8614 234.366 40.0138C235.476 39.1664 236.032 38.0112 236.032 36.5485C236.032 35.0858 235.517 33.9579 234.489 33.165C233.461 32.3585 231.596 31.5657 228.896 30.7865Z" fill="#ADB7D9"/>
<path fill-rule="evenodd" clip-rule="evenodd" d="M42.2028 42.225C42.2028 47.0991 38.2286 51.0431 33.3355 51.0431C28.4426 51.0431 24.4685 47.0991 24.4685 42.225C24.4685 40.8286 24.7932 39.5131 25.3704 38.344L21.6304 35.3138L21.5435 35.2626C20.3216 37.3023 19.6207 39.6861 19.6207 42.225C19.6207 49.7474 25.7568 55.8531 33.3355 55.8531C40.9143 55.8531 47.0505 49.7474 47.0505 42.225C47.0505 34.7024 40.9143 28.5967 33.3355 28.5967H0L8.82589 35.5445V33.4067H33.3355C38.2286 33.4067 42.2028 37.3506 42.2028 42.225Z" fill="#ADB7D9"/>
<path fill-rule="evenodd" clip-rule="evenodd" d="M23.6684 13.6282C23.6684 8.75386 27.6423 4.80994 32.5355 4.80994C37.4286 4.80994 41.4027 8.75386 41.4027 13.6282C41.4027 15.0244 41.078 16.3399 40.5006 17.509L44.2407 20.5392L44.3276 20.5905C45.5495 18.5507 46.2505 16.167 46.2505 13.6282C46.2505 6.10562 40.1142 0 32.5355 0C24.9568 0 18.8206 6.10562 18.8206 13.6282C18.8206 21.1506 24.9568 27.2562 32.5355 27.2562H65.8715L57.0452 20.3086V22.4464H32.5355C27.6423 22.4464 23.6684 18.5024 23.6684 13.6282Z" fill="#ADB7D9"/>
</g>
<defs>
<clipPath id="clip0_2_2310">
<rect width="240" height="56" fill="white"/>
</clipPath>
</defs>
</svg>
