<svg width="80" height="80" viewBox="0 0 80 80" fill="none" xmlns="http://www.w3.org/2000/svg">
<path d="M23.75 44.3746C23.75 46.7996 25.625 48.7496 27.925 48.7496H32.625C34.625 48.7496 36.25 47.0496 36.25 44.9246C36.25 42.6496 35.25 41.8246 33.775 41.2996L26.25 38.6746C24.775 38.1496 23.775 37.3496 23.775 35.0496C23.775 32.9496 25.4 31.2246 27.4 31.2246H32.1C34.4 31.2246 36.275 33.1746 36.275 35.5996" stroke="#0053F1" stroke-width="3" stroke-linecap="round" stroke-linejoin="round"/>
<path d="M30 28.75V51.25" stroke="#0053F1" stroke-width="3" stroke-linecap="round" stroke-linejoin="round"/>
<path d="M55 40C55 53.8 43.8 65 30 65C16.2 65 5 53.8 5 40C5 26.2 16.2 15 30 15" stroke="#0053F1" stroke-width="3" stroke-linecap="round" stroke-linejoin="round"/>
<path d="M55 25V15H45" stroke="#0053F1" stroke-width="3" stroke-linecap="round" stroke-linejoin="round"/>
<path d="M42.5 27.5L55 15" stroke="#0053F1" stroke-width="3" stroke-linecap="round" stroke-linejoin="round"/>
</svg>
