<svg width="1920" height="482" viewBox="0 0 1920 482" fill="none" xmlns="http://www.w3.org/2000/svg">
<path opacity="0.25" d="M1920 482V129C1920 129 1754.14 235.465 1529.55 235.465C1417.26 235.465 989.35 148.888 676.59 192.361C474.476 220.455 365.202 318.767 252.905 318.767C158.998 318.767 73.4214 297.683 0 268.55V482H1920Z" fill="white"/>
<path opacity="0.08" fill-rule="evenodd" clip-rule="evenodd" d="M2.42429 209.629C1.37654 208.526 0.568489 207.639 0 207.001V204.941L1.01243 204.046L1.01406 204.048L1.0222 204.058L1.05833 204.101C1.09121 204.14 1.14151 204.199 1.20954 204.278L1.35897 204.452C1.48251 204.594 1.63877 204.773 1.82791 204.986C2.38067 205.61 3.21422 206.529 4.3287 207.703C6.558 210.05 9.9109 213.411 14.3887 217.45C23.3446 225.527 36.7977 236.308 54.7573 247.094C90.6708 268.661 144.612 290.248 216.679 290.248C263.056 290.248 303.79 282.272 340.731 268.957C222.973 253.475 141.488 201.302 87.6906 149.097C55.6245 117.98 33.404 86.8621 19.197 63.5169C12.093 51.8436 6.99113 42.1113 3.66261 35.2907C2.0183 31.9213 0.806614 29.2622 0 27.4304V24.0083C1.23362 23.4861 1.23388 23.4862 1.23435 23.4874L1.23719 23.4945L1.24967 23.5256L1.30197 23.6546C1.34905 23.7701 1.42064 23.9443 1.51717 24.1752C1.71022 24.6371 2.00305 25.3259 2.39922 26.2267C3.19155 28.0284 4.39715 30.6775 6.04448 34.0531C9.33922 40.8044 14.4004 50.4606 21.4554 62.0535C35.5663 85.2406 57.6478 116.166 89.5175 147.092C143.745 199.715 226.34 252.37 346.323 266.89C417.941 239.761 475.369 192.662 532.52 145.426L534.526 143.768C621.611 71.7831 708.452 0 844.023 0C910.878 0 969.575 17.9362 1024.74 44.3091C1040.93 42.336 1057.57 41.2774 1074.76 41.2774C1210.27 41.2774 1297.09 102.832 1384.2 164.6L1386.18 166.005C1433.21 199.346 1480.44 232.621 1535.63 256.332C1675.79 249.504 1769.68 194.82 1829.29 140.186C1861.16 110.977 1883.23 81.7699 1897.34 59.8736C1904.4 48.926 1909.46 39.8079 1912.75 33.4335C1914.4 30.2464 1915.6 27.7455 1916.39 26.0451C1916.79 25.1949 1917.08 24.5448 1917.27 24.1092C1917.33 23.9816 1917.38 23.8724 1917.42 23.782L1917.49 23.6185L1917.54 23.4971L1917.55 23.468L1917.56 23.4614C1917.56 23.4604 1917.56 23.4602 1918.78 24.0083C1920 24.5565 1920 24.5581 1920 24.5606L1920 24.5701L1919.98 24.6049L1919.92 24.738L1919.84 24.9405C1919.8 25.0293 1919.75 25.1334 1919.7 25.2523C1919.5 25.7038 1919.2 26.3701 1918.8 27.2368C1917.99 28.9701 1916.77 31.5054 1915.1 34.7281C1911.77 41.1732 1906.67 50.3685 1899.56 61.3972C1885.35 83.4534 1863.13 112.85 1831.06 142.244C1771.85 196.515 1679.12 250.737 1541.43 258.776C1587.8 277.936 1639.87 290.248 1702.1 290.248C1774.21 290.248 1828.18 272.075 1864.11 253.926C1882.07 244.851 1895.52 235.78 1904.48 228.986C1908.95 225.59 1912.31 222.763 1914.53 220.79C1915.65 219.803 1916.48 219.031 1917.03 218.507C1917.31 218.245 1917.51 218.045 1917.65 217.912C1917.72 217.846 1917.77 217.796 1917.8 217.764L1917.84 217.728L1917.84 217.72L1917.84 217.718L1918.78 218.7C1919.19 219.136 1919.42 219.378 1919.55 219.514C1919.71 219.683 1919.71 219.684 1919.71 219.684L1919.71 219.688L1919.7 219.699L1919.65 219.743C1919.61 219.78 1919.56 219.835 1919.49 219.907C1919.43 219.958 1919.37 220.018 1919.3 220.087C1919.23 220.157 1919.15 220.235 1919.06 220.322L1918.84 220.532C1918.26 221.076 1917.41 221.87 1916.27 222.878C1914 224.893 1910.59 227.763 1906.06 231.203C1896.99 238.083 1883.4 247.243 1865.28 256.398C1829.03 274.711 1774.66 293 1702.1 293C1637.1 293 1583.11 279.635 1535.15 259.109C1525.64 259.563 1515.91 259.798 1505.96 259.798C1368.82 259.798 1266.21 195.315 1166.51 131.066C1164.73 129.923 1162.96 128.779 1161.19 127.637L1160.72 127.336C1115.75 98.3419 1071.26 69.6568 1024.3 47.1332C924.39 59.4966 842.025 106.914 758.018 155.279L757.68 155.473C755.859 156.521 754.037 157.57 752.215 158.619C652.503 215.996 549.914 273.557 412.814 273.557C389.6 273.557 367.557 272.204 346.641 269.699C308.129 284.211 265.509 293 216.679 293C144.072 293 89.673 271.246 53.4157 249.472C35.2898 238.587 21.6997 227.698 12.6337 219.522C8.10057 215.433 4.69787 212.023 2.42429 209.629ZM1529.41 256.602C1521.73 256.895 1513.92 257.046 1505.96 257.046C1369.67 257.046 1267.66 193.005 1167.92 128.732C1165.92 127.441 1163.91 126.15 1161.91 124.859C1118.31 96.7446 1075 68.8242 1029.36 46.5394C1044.09 44.9017 1059.2 44.0292 1074.76 44.0292C1209.44 44.0292 1295.66 105.162 1382.84 166.972L1384.67 168.273C1430.23 200.574 1476.14 232.938 1529.41 256.602ZM1019.71 44.9538C965.94 19.7176 908.837 2.75183 844.023 2.75183C709.392 2.75183 623.199 73.9973 535.997 146.078L534.187 147.574C478.359 193.717 421.987 239.991 352.173 267.564C371.427 269.674 391.629 270.805 412.814 270.805C549.147 270.805 651.187 213.602 750.916 156.215C752.914 155.065 754.912 153.915 756.909 152.765C839.602 105.157 921.178 58.1905 1019.71 44.9538Z" fill="#0053F1"/>
</svg>
