<svg width="1920" height="571" viewBox="0 0 1920 571" fill="none" xmlns="http://www.w3.org/2000/svg">
<path opacity="0.04" fill-rule="evenodd" clip-rule="evenodd" d="M2.42429 454.918C1.37654 453.797 0.568489 452.896 0 452.247V450.154L1.01243 449.244L1.01406 449.246L1.0222 449.256L1.05833 449.299C1.09121 449.339 1.14151 449.399 1.20954 449.48L1.35897 449.656C1.48251 449.801 1.63877 449.983 1.82791 450.2C2.38067 450.833 3.21422 451.768 4.3287 452.961C6.558 455.346 9.9109 458.762 14.3887 462.867C23.3446 471.076 36.7977 482.035 54.7573 492.997C90.6708 514.917 144.612 536.858 216.679 536.858C263.056 536.858 303.79 528.751 340.731 515.218C222.973 499.483 141.488 446.455 87.6906 393.395C55.6245 361.768 33.404 330.14 19.197 306.413C12.093 294.548 6.99113 284.657 3.66261 277.724C2.0183 274.3 0.806614 271.597 0 269.735V266.257C1.23362 265.726 1.23388 265.726 1.23435 265.728L1.23719 265.735L1.24967 265.766L1.30197 265.898C1.34905 266.015 1.42064 266.192 1.51717 266.427C1.71022 266.896 2.00305 267.596 2.39922 268.512C3.19155 270.343 4.39715 273.035 6.04448 276.466C9.33922 283.328 14.4004 293.143 21.4554 304.925C35.5663 328.492 57.6478 359.924 89.5175 391.357C143.745 444.842 226.34 498.359 346.323 513.117C417.941 485.544 475.369 437.674 532.52 389.664L534.526 387.979C621.611 314.814 708.452 241.855 844.023 241.855C910.878 241.855 969.575 260.085 1024.74 286.89C1040.93 284.885 1057.57 283.809 1074.76 283.809C1210.27 283.809 1297.09 346.372 1384.2 409.152L1386.18 410.579C1433.21 444.467 1480.44 478.287 1535.63 502.386C1675.79 495.446 1769.68 439.867 1829.29 384.338C1861.16 354.65 1883.23 324.965 1897.34 302.71C1904.4 291.583 1909.46 282.315 1912.75 275.837C1914.4 272.597 1915.6 270.055 1916.39 268.327C1916.79 267.463 1917.08 266.802 1917.27 266.36C1917.33 266.23 1917.38 266.119 1917.42 266.027L1917.49 265.861L1917.54 265.737L1917.55 265.708L1917.56 265.701C1917.56 265.7 1917.56 265.7 1918.78 266.257C1920 266.814 1920 266.816 1920 266.818L1920 266.828L1919.98 266.863L1919.92 266.999L1919.84 267.204C1919.8 267.295 1919.75 267.401 1919.7 267.521C1919.5 267.98 1919.2 268.657 1918.8 269.538C1917.99 271.3 1916.77 273.877 1915.1 277.152C1911.77 283.703 1906.67 293.049 1899.56 304.258C1885.35 326.676 1863.13 356.554 1831.06 386.429C1771.85 441.589 1679.12 496.7 1541.43 504.871C1587.8 524.344 1639.87 536.858 1702.1 536.858C1774.21 536.858 1828.18 518.388 1864.11 499.941C1882.07 490.717 1895.52 481.497 1904.48 474.593C1908.95 471.14 1912.31 468.267 1914.53 466.262C1915.65 465.259 1916.48 464.474 1917.03 463.941C1917.31 463.675 1917.51 463.472 1917.65 463.337C1917.72 463.27 1917.77 463.219 1917.8 463.186L1917.84 463.15L1917.84 463.142L1917.84 463.14L1918.78 464.138C1919.19 464.581 1919.42 464.827 1919.55 464.965C1919.71 465.137 1919.71 465.138 1919.71 465.138L1919.71 465.142L1919.7 465.154L1919.65 465.198C1919.61 465.236 1919.56 465.292 1919.49 465.365C1919.43 465.417 1919.37 465.478 1919.3 465.548C1919.23 465.618 1919.15 465.698 1919.06 465.786L1918.84 466C1918.26 466.553 1917.41 467.36 1916.27 468.384C1914 470.432 1910.59 473.35 1906.06 476.846C1896.99 483.838 1883.4 493.148 1865.28 502.453C1829.03 521.066 1774.66 539.655 1702.1 539.655C1637.1 539.655 1583.11 526.071 1535.15 505.209C1525.64 505.67 1515.91 505.909 1505.96 505.909C1368.82 505.909 1266.21 440.37 1166.51 375.068C1164.73 373.906 1162.96 372.744 1161.19 371.583L1160.72 371.277C1115.75 341.808 1071.26 312.653 1024.3 289.761C924.39 302.327 842.025 350.521 758.018 399.678L757.68 399.875C755.859 400.941 754.037 402.006 752.215 403.072C652.503 461.389 549.914 519.893 412.814 519.893C389.6 519.893 367.557 518.519 346.641 515.972C308.129 530.722 265.509 539.655 216.679 539.655C144.072 539.655 89.673 517.544 53.4157 495.414C35.2898 484.35 21.6997 473.283 12.6337 464.973C8.10057 460.818 4.69787 457.351 2.42429 454.918ZM1529.41 502.661C1521.73 502.959 1513.92 503.112 1505.96 503.112C1369.67 503.112 1267.66 438.022 1167.92 372.696C1165.92 371.384 1163.91 370.072 1161.91 368.76C1118.31 340.185 1075 311.807 1029.36 289.157C1044.09 287.493 1059.2 286.606 1074.76 286.606C1209.44 286.606 1295.66 348.74 1382.84 411.562L1384.67 412.885C1430.23 445.715 1476.14 478.609 1529.41 502.661ZM1019.71 287.546C965.94 261.896 908.837 244.652 844.023 244.652C709.392 244.652 623.199 317.065 535.997 390.326L534.187 391.847C478.359 438.745 421.987 485.778 352.173 513.803C371.427 515.947 391.629 517.096 412.814 517.096C549.147 517.096 651.187 458.957 750.916 400.63C752.914 399.461 754.912 398.292 756.909 397.123C839.602 348.735 921.178 300.999 1019.71 287.546Z" fill="#0053F1"/>
<path opacity="0.25" d="M1920 571V0C1920 0 1754.14 172.214 1529.55 172.214C1417.26 172.214 989.35 32.1694 676.59 102.491C474.476 147.935 365.202 306.961 252.905 306.961C158.998 306.961 73.4213 272.855 0 225.731V571H1920Z" fill="white"/>
</svg>
