<svg width="1440" height="284" viewBox="0 0 1440 284" fill="none" xmlns="http://www.w3.org/2000/svg">
<path opacity="0.15" fill-rule="evenodd" clip-rule="evenodd" d="M1.81822 182.213C1.03241 181.528 0.426367 180.977 0 180.581V179.301L0.759322 178.745L0.760542 178.746L0.766646 178.753L0.793747 178.779C0.818407 178.803 0.856129 178.84 0.907157 178.89L1.01922 178.997C1.11188 179.086 1.22908 179.197 1.37093 179.329C1.7855 179.717 2.41066 180.288 3.24653 181.017C4.9185 182.475 7.43317 184.563 10.7915 187.071C17.5085 192.088 27.5983 198.785 41.0679 205.485C68.0031 218.882 108.459 232.291 162.509 232.291C197.292 232.291 227.842 227.336 255.548 219.065C167.23 209.449 106.116 177.041 65.7679 144.613C41.7184 125.284 25.053 105.955 14.3977 91.4542C9.06974 84.2032 5.24335 78.1579 2.74696 73.9212C1.51372 71.8283 0.60496 70.1765 0 69.0387V66.913C0.925218 66.5886 0.925408 66.5887 0.925765 66.5895L0.927893 66.5939L0.937249 66.6132L0.976478 66.6933C1.01179 66.7651 1.06548 66.8732 1.13787 67.0167C1.28267 67.3036 1.50229 67.7315 1.79941 68.291C2.39366 69.4101 3.29786 71.0556 4.53336 73.1524C7.00441 77.3461 10.8003 83.3441 16.0916 90.5452C26.6747 104.948 43.2359 124.158 67.1382 143.368C107.809 176.055 169.755 208.762 259.742 217.782C313.456 200.93 356.527 171.674 399.39 142.333L400.894 141.303C466.208 96.5888 531.339 52 633.018 52C683.158 52 727.181 63.1412 768.555 79.523C780.694 78.2974 793.178 77.6399 806.067 77.6399C907.704 77.6399 972.814 115.875 1038.15 154.243L1039.64 155.116C1074.91 175.826 1110.33 196.495 1151.72 211.223C1256.84 206.982 1327.26 173.014 1371.97 139.078C1395.87 120.934 1412.43 102.792 1423.01 89.1911C1428.3 82.3909 1432.09 76.7271 1434.56 72.7676C1435.8 70.7879 1436.7 69.2344 1437.29 68.1782C1437.59 67.65 1437.81 67.2463 1437.95 66.9757C1438 66.8964 1438.03 66.8286 1438.06 66.7724L1438.12 66.6709L1438.15 66.5955L1438.16 66.5774L1438.17 66.5733C1438.17 66.5726 1438.17 66.5725 1439.08 66.913C1440 67.2535 1440 67.2545 1440 67.2561L1440 67.262L1439.99 67.2836L1439.94 67.3662L1439.88 67.492C1439.85 67.5472 1439.81 67.6119 1439.77 67.6857C1439.62 67.9662 1439.4 68.38 1439.1 68.9184C1438.49 69.9951 1437.58 71.5699 1436.33 73.5717C1433.83 77.5751 1430 83.2869 1424.67 90.1375C1414.01 103.838 1397.35 122.098 1373.3 140.356C1328.89 174.067 1259.34 207.748 1156.07 212.742C1190.85 224.643 1229.9 232.291 1276.57 232.291C1330.66 232.291 1371.14 221.003 1398.08 209.729C1411.55 204.092 1421.64 198.457 1428.36 194.237C1431.72 192.127 1434.23 190.371 1435.9 189.146C1436.74 188.533 1437.36 188.053 1437.77 187.728C1437.98 187.565 1438.14 187.441 1438.24 187.359C1438.29 187.317 1438.33 187.286 1438.35 187.266L1438.38 187.244L1438.38 187.239L1438.38 187.238L1439.08 187.848C1439.39 188.119 1439.57 188.269 1439.66 188.353C1439.78 188.458 1439.78 188.459 1439.78 188.459L1439.78 188.461L1439.77 188.469L1439.74 188.496C1439.71 188.519 1439.67 188.553 1439.61 188.597C1439.58 188.629 1439.53 188.667 1439.48 188.709C1439.42 188.753 1439.36 188.801 1439.29 188.855L1439.13 188.986C1438.7 189.324 1438.06 189.817 1437.2 190.443C1435.5 191.695 1432.94 193.478 1429.54 195.614C1422.74 199.888 1412.55 205.577 1398.96 211.264C1371.77 222.639 1331 234 1276.57 234C1227.83 234 1187.33 225.698 1151.37 212.948C1144.23 213.23 1136.93 213.376 1129.47 213.376C1026.62 213.376 949.657 173.322 874.88 133.413C873.55 132.703 872.22 131.993 870.891 131.283L870.541 131.096C836.813 113.086 803.444 95.2681 768.226 81.2773C693.292 88.9569 631.519 118.411 568.513 148.453L568.26 148.574C566.894 149.225 565.528 149.876 564.161 150.528C489.377 186.168 412.435 221.923 309.611 221.923C292.2 221.923 275.668 221.083 259.981 219.526C231.097 228.541 199.132 234 162.509 234C108.054 234 67.2548 220.487 40.0618 206.962C26.4674 200.201 16.2748 193.437 9.47528 188.358C6.07543 185.819 3.5234 183.7 1.81822 182.213ZM1147.05 211.391C1141.3 211.573 1135.44 211.667 1129.47 211.667C1027.26 211.667 950.744 171.887 875.94 131.963C874.437 131.161 872.936 130.359 871.434 129.557L871.433 129.557C838.729 112.093 806.253 94.7509 772.017 80.9084C783.064 79.8912 794.399 79.3492 806.067 79.3492C907.081 79.3492 971.746 117.322 1037.13 155.716L1038.5 156.524C1072.67 176.589 1107.1 196.692 1147.05 211.391ZM764.781 79.9235C724.455 64.2478 681.628 53.7093 633.018 53.7093C532.044 53.7093 467.4 97.9642 401.997 142.738L400.64 143.667C358.77 172.329 316.491 201.073 264.129 218.2C278.57 219.511 293.722 220.213 309.611 220.213C411.86 220.213 488.39 184.681 563.187 149.035C564.686 148.32 566.184 147.606 567.682 146.892C629.701 117.319 690.884 88.1456 764.781 79.9235Z" fill="url(#paint0_linear_692_4943)"/>
<path opacity="0.35" d="M0 284H1440V31.1071C1440 31.1071 1315.61 107.379 1147.16 107.379C1062.94 107.379 978.672 80.5922 894.403 53.805C810.133 27.0177 725.864 0.230469 641.642 0.230469C557.419 0.230469 486.54 41.9374 415.66 83.6443C344.781 125.351 273.902 167.058 189.679 167.058C119.248 167.058 55.066 151.953 0 131.082V284Z" fill="#2872FF"/>
<defs>
<linearGradient id="paint0_linear_692_4943" x1="720" y1="52" x2="720" y2="234" gradientUnits="userSpaceOnUse">
<stop stop-color="#F4F6FD"/>
<stop offset="1" stop-color="#E9EDFD"/>
</linearGradient>
</defs>
</svg>
