<svg width="1920" height="442" viewBox="0 0 1920 442" fill="none" xmlns="http://www.w3.org/2000/svg">
<path opacity="0.25" d="M0 10.6441C0 10.6441 185.159 202.186 444.835 202.186C636.835 202.186 768 0 960 0C1152 0 1394.21 184.522 1586.21 184.522C1778.21 184.522 1920 92.0844 1920 92.0844V442C1920 442 1632 442 1440 442C1248 442 1152 442 960 442C768 442 672 442 480 442C288 442 0 442 0 442V10.6441Z" fill="white"/>
<path opacity="0.08" d="M0 27.4239C0.409272 27.956 0.966611 28.6763 1.66877 29.5739C3.3241 31.6899 5.78435 34.7915 9.00703 38.738C15.4523 46.6308 24.9477 57.9034 37.1531 71.4293C61.5628 98.4795 96.8182 134.549 140.2 170.621C226.92 242.731 346.303 315.01 476.549 315.01C572.757 315.01 658.846 282.82 744.709 250.714L744.799 250.68C830.757 218.538 916.493 186.492 1012.25 186.492C1107.98 186.492 1201.56 224.516 1295.39 262.664L1295.51 262.714C1389.21 300.803 1483.16 339 1579.39 339C1675.68 339 1761.03 301.991 1822.27 265.039C1852.89 246.559 1877.51 228.079 1894.47 214.218C1902.95 207.287 1909.52 201.51 1913.97 197.464C1916.19 195.441 1917.89 193.851 1919.03 192.765C1919.33 192.477 1919.59 192.225 1919.82 192.01L1920 191.832L1920 190.533L1920 189.675C1919.72 189.675 1919.44 189.776 1919.24 189.972L1920 190.533C1919.24 189.972 1919.24 189.972 1919.24 189.973L1919.24 189.978L1919.22 189.997L1919.14 190.076C1919.07 190.146 1918.96 190.25 1918.82 190.389C1918.64 190.561 1918.41 190.786 1918.12 191.061C1917.95 191.228 1917.75 191.413 1917.54 191.616C1916.41 192.693 1914.73 194.274 1912.51 196.287C1908.08 200.313 1901.54 206.068 1893.09 212.976C1876.18 226.792 1851.65 245.214 1821.12 263.636C1760.05 300.489 1675.09 337.284 1579.39 337.284C1483.65 337.284 1390.08 299.26 1296.25 261.113L1296.12 261.063C1202.43 222.973 1108.48 184.776 1012.25 184.776C916.042 184.776 829.954 216.967 744.09 249.073L744 249.107C658.042 281.248 572.306 313.294 476.549 313.294C347.118 313.294 228.226 241.427 141.592 169.389C98.2958 133.388 63.1033 97.3837 38.7346 70.3788C26.5508 56.877 17.0743 45.6267 10.645 37.7534C7.43042 33.8168 4.97772 30.7247 3.32941 28.6176C2.50526 27.5641 1.88222 26.7569 1.4656 26.2135C1.25729 25.9419 1.10058 25.7362 0.99615 25.5987L0.878784 25.4438L0.842512 25.3957C0.841004 25.3937 0.840321 25.3928 0.000120163 25.8581L0.840321 25.3928C0.649211 25.1388 0.328015 25.0002 0 25L0.000120163 25.8581L0 27.4239Z" fill="#0053F1"/>
</svg>
