<svg width="1920" height="303" viewBox="0 0 1920 303" fill="none" xmlns="http://www.w3.org/2000/svg">
<path d="M0 151.5C0 151.5 66.1105 75.75 160 75.75C253.889 75.75 320 151.5 320 151.5C320 151.5 386.111 227.25 480 227.25C573.889 227.25 640 151.5 640 151.5" stroke="#D9E1FF" stroke-linecap="round"/>
<path d="M640 151.5C640 151.5 706.111 75.75 800 75.75C893.889 75.75 960 151.5 960 151.5C960 151.5 1026.11 227.25 1120 227.25C1213.89 227.25 1280 151.5 1280 151.5" stroke="#D9E1FF" stroke-linecap="round"/>
<path d="M1280 151.5C1280 151.5 1346.11 75.75 1440 75.75C1533.89 75.75 1600 151.5 1600 151.5C1600 151.5 1666.11 227.25 1760 227.25C1853.89 227.25 1920 151.5 1920 151.5" stroke="#D9E1FF" stroke-linecap="round"/>
</svg>
